<svg xmlns="http://www.w3.org/2000/svg" width="16.801" height="16.801" viewBox="0 0 16.801 16.801"><defs><style>.a{fill:#fff;opacity:0.7;}</style></defs><g transform="translate(65.118 62.46) rotate(90)"><path class="a" d="M14.344,2.458a8.4,8.4,0,1,0,0,11.886A8.414,8.414,0,0,0,14.344,2.458Z" transform="translate(-62.459 48.317)"/><path d="M10.183,10.146a.646.646,0,0,1-.914,0l-2.4-2.4L4.354,10.26a.646.646,0,0,1-.914-.914L5.954,6.832l-2.4-2.4a.646.646,0,0,1,.914-.914l2.4,2.4L9.154,3.632a.646.646,0,1,1,.914.914L7.782,6.832l2.4,2.4A.646.646,0,0,1,10.183,10.146Z" transform="translate(-60.927 49.886)"/></g></svg>