<svg xmlns="http://www.w3.org/2000/svg" xmlns:xlink="http://www.w3.org/1999/xlink" width="52" height="52" viewBox="0 0 52 52">
  <defs>
    <filter id="Ellipse_339" x="0" y="0" width="52" height="52" filterUnits="userSpaceOnUse">
      <feOffset dy="3" input="SourceAlpha"/>
      <feGaussianBlur stdDeviation="3" result="blur"/>
      <feFlood flood-color="#d8dadb"/>
      <feComposite operator="in" in2="blur"/>
      <feComposite in="SourceGraphic"/>
    </filter>
  </defs>
  <g id="Gole-icon" transform="translate(17 14)">
    <g transform="matrix(1, 0, 0, 1, -17, -14)" filter="url(#Ellipse_339)">
      <g id="Ellipse_339-2" data-name="Ellipse 339" transform="translate(10 7)" fill="#fff" stroke="#f26a6b" stroke-width="1">
        <circle cx="16" cy="16" r="16" stroke="none"/>
        <circle cx="16" cy="16" r="16.5" fill="none"/>
      </g>
    </g>
    <g id="plane" transform="translate(0.921 1.963)">
      <path id="Path_9314" data-name="Path 9314" d="M13.98.035l-1.533.7a.922.922,0,0,0-.266.184l-2.5,2.5-8.6-1.032a.511.511,0,0,0-.423.147l-.479.479a.512.512,0,0,0,.153.829L6.494,6.605,4.724,8.376H1.631a.517.517,0,0,0-.363.15l-.258.26a.512.512,0,0,0,.16.832L3.78,10.735,4.9,13.344a.512.512,0,0,0,.832.16l.26-.26a.511.511,0,0,0,.15-.363V9.79L7.91,8.019l2.765,6.168a.512.512,0,0,0,.829.153l.479-.479a.513.513,0,0,0,.147-.423L11.1,4.833l2.5-2.5a.9.9,0,0,0,.184-.266l.7-1.533A.376.376,0,0,0,13.98.035Z" transform="translate(0 0)" fill="#f26a6b"/>
    </g>
  </g>
</svg>
