<svg xmlns="http://www.w3.org/2000/svg" width="16.661" height="20.352" viewBox="0 0 16.661 20.352"><defs><style>.a{fill:#8c939c;}</style></defs><g transform="translate(0)"><path class="a" d="M193.743,5.551a1.851,1.851,0,0,0,1.587-2.8L193.743,0l-1.587,2.748a1.851,1.851,0,0,0,1.587,2.8Z" transform="translate(-185.417)"/><path class="a" d="M56.437,151.183H51.811v-1.85h-1.85v1.85H45.335a2.778,2.778,0,0,0-2.775,2.775v1.425a1.812,1.812,0,0,0,3.094,1.281l1.98-1.975,1.975,1.97a1.855,1.855,0,0,0,2.563,0l1.98-1.97,1.975,1.97a1.812,1.812,0,0,0,3.094-1.281v-1.42A2.791,2.791,0,0,0,56.437,151.183Z" transform="translate(-42.56 -142.857)"/><path class="a" d="M55.137,319.074h0l-.994-.994-1,.994a3.278,3.278,0,0,1-4.524,0l-.995-.994-1,.994a3.136,3.136,0,0,1-2.253.939,3.194,3.194,0,0,1-1.813-.569v4.269a.928.928,0,0,0,.925.925h14.8a.928.928,0,0,0,.925-.925v-4.269a3.185,3.185,0,0,1-4.075-.37Z" transform="translate(-42.56 -304.287)"/></g></svg>