<svg xmlns="http://www.w3.org/2000/svg" xmlns:xlink="http://www.w3.org/1999/xlink" width="133.898" height="106.337" viewBox="0 0 133.898 106.337">
  <defs>
    <linearGradient id="linear-gradient" x1="0.5" x2="0.5" y2="1" gradientUnits="objectBoundingBox">
      <stop offset="0" stop-color="#fe5e5f"/>
      <stop offset="1" stop-color="#f66165"/>
    </linearGradient>
  </defs>
  <path id="Path_10649" data-name="Path 10649" d="M-584.123,463.454c-1.305-8.485-8.718-24.413-33.472-27.546-16.268-1.7-28.931,15.8-31.412,18.277h-2.482s-12.924-18.378-32.42-18.393-35.6,19.83-33.509,38.76,49.741,58.487,55.225,63.84,8.485,3.656,9.4.523,1.305-5.353,1.305-5.353h2.22s2.35,7.355,3.481,8.138,3.917.61,6.179-1.48,41.647-42.038,48.436-48.827S-582.818,471.94-584.123,463.454ZM-648.876,514.5h-2.351l-3.394-7.409h-7.05l11.5-25.49,12,25.49h-7.31Zm58.095-40.08c-.511,9.339-24.3,32.918-24.3,32.918s-6.693,6.221-8.769,8.25C-631.688,523.247-643,533.3-643,533.3c-.783-.826-3.047-5.961-2.872-9.965s3.482-10.531,3.482-10.531a75.258,75.258,0,0,0,8.616.087c3.568-.261,2.785-4.178,2.088-5.919s-11.663-27.851-14.274-33.248-6.962-2.958-8.138,0c0,0-13.272,29.592-15.884,34.64s2.916,5.309,2.916,5.309h8.792c3.176,3.177,4.177,11.272,4.177,13.229s-2.611,6.4-2.611,6.4h-2.219s-37.339-33.813-46.868-47.652-2.09-32.246,8.746-38.643c25.915-11.1,38.578,9.66,41.646,13.055s6.137,4.525,8.835.609c9.139-11.053,21.062-19.844,33.856-16.885C-593.48,448.484-590.085,461.714-590.782,474.42Z" transform="translate(717.601 -435.791)" fill="url(#linear-gradient)"/>
</svg>
