<svg xmlns="http://www.w3.org/2000/svg" width="18.363" height="14.484" viewBox="0 0 18.363 14.484"><defs><style>.a{fill:#8c939c;}</style></defs><g transform="translate(0 -33.331)"><path class="a" d="M18.072,33.331H.291A.291.291,0,0,0,0,33.622v13.9a.291.291,0,0,0,.291.291H18.072a.291.291,0,0,0,.291-.291v-13.9A.291.291,0,0,0,18.072,33.331ZM16.618,45.5l-4-4.144a.119.119,0,0,0-.164-.007L9.677,43.788,6.129,39.42a.117.117,0,0,0-.095-.044.119.119,0,0,0-.093.048l-4.2,5.63V35.077H16.618Z"/><path class="a" d="M186.958,89.346a1.428,1.428,0,1,0-1.427-1.427A1.428,1.428,0,0,0,186.958,89.346Z" transform="translate(-174.735 -50.067)"/></g></svg>