<svg xmlns="http://www.w3.org/2000/svg" width="11.872" height="12.141" viewBox="0 0 11.872 12.141"><defs><style>.a{fill:#8c939c;}</style></defs><path class="a" d="M118.548,258.517a.275.275,0,0,0-.276-.275h-.962a.275.275,0,0,0-.275.275v.962a.275.275,0,0,0,.275.276h.962a.275.275,0,0,0,.276-.276v-.962Z" transform="translate(-114.259 -251.819)"/><path class="a" d="M215.183,258.517a.275.275,0,0,0-.275-.275h-.962a.275.275,0,0,0-.275.275v.962a.275.275,0,0,0,.275.276h.962a.275.275,0,0,0,.275-.276Z" transform="translate(-208.49 -251.819)"/><path class="a" d="M311.811,258.517a.275.275,0,0,0-.275-.275h-.962a.275.275,0,0,0-.276.275v.962a.276.276,0,0,0,.276.276h.962a.275.275,0,0,0,.275-.276Z" transform="translate(-302.715 -251.819)"/><path class="a" d="M118.548,355.15a.275.275,0,0,0-.276-.275h-.962a.275.275,0,0,0-.275.275v.961a.275.275,0,0,0,.275.275h.962a.275.275,0,0,0,.276-.275v-.961Z" transform="translate(-114.259 -346.049)"/><path class="a" d="M215.183,355.15a.275.275,0,0,0-.275-.275h-.962a.275.275,0,0,0-.275.275v.961a.275.275,0,0,0,.275.275h.962a.275.275,0,0,0,.275-.275Z" transform="translate(-208.49 -346.049)"/><path class="a" d="M311.811,355.15a.275.275,0,0,0-.275-.275h-.962a.275.275,0,0,0-.276.275v.961a.275.275,0,0,0,.276.275h.962a.275.275,0,0,0,.275-.275v-.961Z" transform="translate(-302.715 -346.049)"/><path class="a" d="M16.226,54.147v1.469a1.2,1.2,0,0,1-1.2,1.2h-.758a1.206,1.206,0,0,1-1.209-1.2V54.142H9.638v1.474a1.206,1.206,0,0,1-1.209,1.2H7.67a1.2,1.2,0,0,1-1.2-1.2V54.147a1.093,1.093,0,0,0-1.057,1.087v8.607A1.094,1.094,0,0,0,6.5,64.937h9.7a1.1,1.1,0,0,0,1.088-1.095V55.235A1.093,1.093,0,0,0,16.226,54.147Zm-.352,9.159a.471.471,0,0,1-.47.47H7.27a.471.471,0,0,1-.47-.47V58.86a.471.471,0,0,1,.47-.471H15.4a.471.471,0,0,1,.47.471v4.446Z" transform="translate(-5.411 -52.795)"/><path class="a" d="M79.962,3.232h.75a.412.412,0,0,0,.412-.412V.412A.412.412,0,0,0,80.713,0h-.75a.412.412,0,0,0-.412.412V2.82A.412.412,0,0,0,79.962,3.232Z" transform="translate(-77.706)"/><path class="a" d="M344.87,3.232h.75a.412.412,0,0,0,.412-.412V.412A.412.412,0,0,0,345.62,0h-.75a.412.412,0,0,0-.412.412V2.82A.412.412,0,0,0,344.87,3.232Z" transform="translate(-336.025)"/></svg>