<svg xmlns="http://www.w3.org/2000/svg" width="22.876" height="19.063" viewBox="0 0 22.876 19.063"><defs><style>.a{fill:#c2c8cf;}</style></defs><g transform="translate(0 -42.667)"><g transform="translate(0 42.667)"><g transform="translate(0 0)"><circle class="a" cx="4.766" cy="4.766" r="4.766" transform="translate(6.672 5.719)"/><path class="a" d="M20.97,45.526H17.947a1.422,1.422,0,0,1-1.011-.419l-1.742-1.742a2.368,2.368,0,0,0-1.685-.7H9.368a2.368,2.368,0,0,0-1.685.7L5.94,45.108a1.422,1.422,0,0,1-1.011.419H1.906A1.908,1.908,0,0,0,0,47.433V59.824A1.908,1.908,0,0,0,1.906,61.73H20.97a1.908,1.908,0,0,0,1.906-1.906V47.433A1.908,1.908,0,0,0,20.97,45.526ZM11.438,58.871a5.719,5.719,0,1,1,5.719-5.719A5.725,5.725,0,0,1,11.438,58.871Zm7.625-8.578a.953.953,0,1,1,.953-.953A.954.954,0,0,1,19.063,50.292Z" transform="translate(0 -42.667)"/></g></g></g></svg>