<svg xmlns="http://www.w3.org/2000/svg" width="17.591" height="14.935" viewBox="0 0 17.591 14.935">
  <g id="Group_9645" data-name="Group 9645" transform="translate(-5.31 -6.641)">
    <path id="Path_10714" data-name="Path 10714" d="M105.865,127.134a.8.8,0,0,0-.09.078.83.83,0,0,1-1.174,0c-.016-.016-.033-.031-.05-.045a4.846,4.846,0,0,0-.91-.693,3.482,3.482,0,1,0-5.915-2.491.827.827,0,0,0,1.653,0,1.829,1.829,0,1,1,1.829,1.829.827.827,0,1,0,0,1.653,3.158,3.158,0,1,1-3.158,3.158.827.827,0,1,0-1.653,0,4.811,4.811,0,1,0,9.356-1.579,2.461,2.461,0,0,0,1.09-.568.792.792,0,0,0,.1-.086,3.158,3.158,0,1,1,1.044,5.159.827.827,0,1,0-.621,1.532,4.811,4.811,0,1,0-1.5-7.948Zm0,0" transform="translate(-91.086 -113.86)" fill="#8c939c"/>
    <path id="Path_10715" data-name="Path 10715" d="M269.533,124.81a3.487,3.487,0,0,0,3.483-3.483.827.827,0,0,0-1.653,0,1.829,1.829,0,1,1-3.659,0,.827.827,0,0,0-1.653,0A3.487,3.487,0,0,0,269.533,124.81Zm0,0" transform="translate(-251.39 -113.86)" fill="#8c939c"/>
    <path id="Path_10716" data-name="Path 10716" d="M315.077,122.153a.826.826,0,1,0-.585-.242.826.826,0,0,0,.585.242Zm0,0" transform="translate(-296.933 -113.86)" fill="#8c939c"/>
  </g>
</svg>
