<svg xmlns="http://www.w3.org/2000/svg" xmlns:xlink="http://www.w3.org/1999/xlink" width="52" height="52" viewBox="0 0 52 52">
  <defs>
    <filter id="Ellipse_380" x="0" y="0" width="52" height="52" filterUnits="userSpaceOnUse">
      <feOffset dy="3" input="SourceAlpha"/>
      <feGaussianBlur stdDeviation="3" result="blur"/>
      <feFlood flood-color="#d8dadb"/>
      <feComposite operator="in" in2="blur"/>
      <feComposite in="SourceGraphic"/>
    </filter>
  </defs>
  <g id="castIcon" transform="translate(17 14)">
    <g transform="matrix(1, 0, 0, 1, -17, -14)" filter="url(#Ellipse_380)">
      <g id="Ellipse_380-2" data-name="Ellipse 380" transform="translate(10 7)" fill="#fff" stroke="#fe5e5f" stroke-width="1">
        <circle cx="16" cy="16" r="16" stroke="none"/>
        <circle cx="16" cy="16" r="16.5" fill="none"/>
      </g>
    </g>
    <g id="Group_9645" data-name="Group 9645" transform="translate(-5.313 -4.64)">
      <path id="Path_10714" data-name="Path 10714" d="M105.865,127.134a.8.8,0,0,0-.09.078.83.83,0,0,1-1.174,0c-.016-.016-.033-.031-.05-.045a4.845,4.845,0,0,0-.91-.693,3.482,3.482,0,1,0-5.915-2.491.827.827,0,0,0,1.653,0,1.829,1.829,0,1,1,1.829,1.829.827.827,0,1,0,0,1.653,3.158,3.158,0,1,1-3.158,3.158.827.827,0,1,0-1.653,0,4.811,4.811,0,1,0,9.356-1.579,2.461,2.461,0,0,0,1.09-.568.793.793,0,0,0,.1-.086,3.158,3.158,0,1,1,1.044,5.159.827.827,0,1,0-.621,1.532,4.811,4.811,0,1,0-1.5-7.948Zm0,0" transform="translate(-91.086 -113.86)" fill="#fe5e5f"/>
      <path id="Path_10715" data-name="Path 10715" d="M269.533,124.81a3.487,3.487,0,0,0,3.483-3.483.827.827,0,0,0-1.653,0,1.829,1.829,0,1,1-3.659,0,.827.827,0,0,0-1.653,0A3.487,3.487,0,0,0,269.533,124.81Zm0,0" transform="translate(-251.39 -113.86)" fill="#fe5e5f"/>
      <path id="Path_10716" data-name="Path 10716" d="M315.077,122.153a.826.826,0,1,0-.585-.242A.832.832,0,0,0,315.077,122.153Zm0,0" transform="translate(-296.933 -113.86)" fill="#fe5e5f"/>
    </g>
  </g>
</svg>
