<svg id="Group_9530" data-name="Group 9530" xmlns="http://www.w3.org/2000/svg" width="22" height="22" viewBox="0 0 22 22">
  <path id="Path_9321" data-name="Path 9321" d="M11,0A11,11,0,1,0,22,11,11.013,11.013,0,0,0,11,0Zm0,20.227A9.227,9.227,0,1,1,20.227,11,9.237,9.237,0,0,1,11,20.227Z" transform="translate(0 0)" fill="#f26a6b"/>
  <path id="Path_9322" data-name="Path 9322" d="M23.7,18.574l-5.157,5.157-1.887-1.887A.89.89,0,0,0,15.4,23.1l2.516,2.516a.889.889,0,0,0,1.259,0l5.786-5.786A.89.89,0,0,0,23.7,18.574Z" transform="translate(-9.183 -11.096)" fill="#f26a6b"/>
</svg>
