<svg xmlns="http://www.w3.org/2000/svg" xmlns:xlink="http://www.w3.org/1999/xlink" width="52" height="52" viewBox="0 0 52 52">
  <defs>
    <filter id="Ellipse_338" x="0" y="0" width="52" height="52" filterUnits="userSpaceOnUse">
      <feOffset dy="3" input="SourceAlpha"/>
      <feGaussianBlur stdDeviation="3" result="blur"/>
      <feFlood flood-color="#d8dadb"/>
      <feComposite operator="in" in2="blur"/>
      <feComposite in="SourceGraphic"/>
    </filter>
  </defs>
  <g id="Children-icon" transform="translate(1.587 14.675)">
    <g transform="matrix(1, 0, 0, 1, -1.59, -14.67)" filter="url(#Ellipse_338)">
      <g id="Ellipse_338-2" data-name="Ellipse 338" transform="translate(10 7)" fill="#fff" stroke="#f26a6b" stroke-width="1">
        <circle cx="16" cy="16" r="16" stroke="none"/>
        <circle cx="16" cy="16" r="16.5" fill="none"/>
      </g>
    </g>
    <g id="baby" transform="translate(15.413 -22.318)">
      <g id="Group_9512" data-name="Group 9512" transform="translate(0 21.643)">
        <path id="Path_9302" data-name="Path 9302" d="M122.694,233.525a1.8,1.8,0,0,0-3.607,0h1.095a.709.709,0,0,1,1.418,0Z" transform="translate(-114.691 -223.966)" fill="#f26a6b"/>
        <path id="Path_9303" data-name="Path 9303" d="M291.013,231.721a1.805,1.805,0,0,0-1.8,1.8H290.3a.709.709,0,0,1,1.418,0h1.095A1.805,1.805,0,0,0,291.013,231.721Z" transform="translate(-278.533 -223.965)" fill="#f26a6b"/>
        <path id="Path_9304" data-name="Path 9304" d="M184.23,342.054a1.975,1.975,0,0,1-1.693-.969l-.943.556a3.059,3.059,0,0,0,5.272,0l-.943-.556A1.975,1.975,0,0,1,184.23,342.054Z" transform="translate(-174.89 -329.292)" fill="#f26a6b"/>
        <path id="Path_9305" data-name="Path 9305" d="M17.968,29.263a2.419,2.419,0,0,0-1.261-.669A7.756,7.756,0,0,0,9.34,23.241H8.973a1.6,1.6,0,0,1-1.6-1.6H6.281a2.678,2.678,0,0,0,.527,1.6H6.461a1.6,1.6,0,0,1-1.6-1.6H3.768A2.7,2.7,0,0,0,5.615,24.2a7.743,7.743,0,0,0-3.641,4.4,2.432,2.432,0,0,0,0,4.776,7.745,7.745,0,0,0,14.733,0,2.432,2.432,0,0,0,1.261-4.108Zm-1.693,3.056-.411.008-.107.4a6.65,6.65,0,0,1-12.835,0l-.107-.4L2.4,32.319a1.343,1.343,0,0,1-1.31-1.336A1.335,1.335,0,0,1,2.4,29.647l.411-.008.107-.4A6.657,6.657,0,0,1,9.34,24.336,1.794,1.794,0,1,1,7.546,26.13H6.452a2.889,2.889,0,1,0,5.485-1.264,6.651,6.651,0,0,1,3.821,4.377l.107.4.411.008a1.336,1.336,0,0,1,0,2.672Z" transform="translate(0 -21.643)" fill="#f26a6b"/>
      </g>
    </g>
  </g>
</svg>
