<svg xmlns="http://www.w3.org/2000/svg" width="15" height="15" viewBox="0 0 15 15"><defs><style>.a{fill:#a7b3b8;}</style></defs><path class="a" d="M7.5,0A7.5,7.5,0,1,0,15,7.5,7.5,7.5,0,0,0,7.5,0Zm4.61,12.11A6.52,6.52,0,0,1,2.89,2.89a6.52,6.52,0,0,1,9.22,9.22Z"/><path class="a" d="M183.153,64.093h-1.741a1.681,1.681,0,0,0-1.075-1.033V59.491a.491.491,0,0,0-.983,0v3.563a1.673,1.673,0,1,0,2.1,2.021h1.7a.491.491,0,1,0,0-.983Zm-3.316,1.286a.723.723,0,1,1,.723-.723A.724.724,0,0,1,179.837,65.379Z" transform="translate(-172.349 -57.068)"/></svg>