<svg xmlns="http://www.w3.org/2000/svg" width="11.601" height="5.993" viewBox="0 0 11.601 5.993">
  <g id="dubble-tick" transform="translate(-191.394 -65.633)">
    <path id="Path_9333" data-name="Path 9333" d="M21.362,18.5l-3.746,3.746-.506-.471a.646.646,0,0,0-.914.914l.963.929a.646.646,0,0,0,.914,0l4.2-4.2a.647.647,0,0,0-.915-.914Z" transform="matrix(0.999, -0.035, 0.035, 0.999, 179.712, 48.159)" fill="#F26A6B"/>
    <path id="Path_9334" data-name="Path 9334" d="M21.362,18.5l-3.746,3.746-1.371-1.371a.646.646,0,0,0-.914.914l1.828,1.828a.646.646,0,0,0,.914,0l4.2-4.2a.647.647,0,0,0-.915-.914Z" transform="matrix(0.998, -0.07, 0.07, 0.998, 175.012, 48.932)" fill="#F26A6B"/>
  </g>
</svg>
