<?xml version="1.0" encoding="utf-8"?>
<!-- Generator: Adobe Illustrator 23.0.5, SVG Export Plug-In . SVG Version: 6.00 Build 0)  -->
<svg version="1.1" id="Layer_1" xmlns="http://www.w3.org/2000/svg" xmlns:xlink="http://www.w3.org/1999/xlink" x="0px" y="0px"
	 viewBox="0 0 34 34" style="enable-background:new 0 0 34 34;" xml:space="preserve">
<style type="text/css">
	.st0{fill:#FFFFFF;}
	.st1{fill:#F26A6B;}
</style>
<g id="country-icon" transform="translate(17 14)">
	<g transform="matrix(1, 0, 0, 1, -17, -14)">
		<g id="Ellipse_339-2" transform="translate(10 7)">
			<circle class="st0" cx="7" cy="10" r="16"/>
			<g>
				<path class="st1" d="M7,27c-9.4,0-17-7.6-17-17S-2.4-7,7-7s17,7.6,17,17S16.4,27,7,27z M7-6C-1.8-6-9,1.2-9,10s7.2,16,16,16
					s16-7.2,16-16S15.8-6,7-6z"/>
			</g>
		</g>
	</g>
	<g id="Group_9509">
		<path id="Path_9297" class="st1" d="M0.2-6C-4.9-6-9-1.9-9,3.2s4.1,9.2,9.2,9.2s9.2-4.1,9.2-9.2C9.4-1.9,5.3-6,0.2-6z M0.2,10.8
			c-2,0-3.9-0.8-5.4-2.2V7.4c0-0.3,0.1-0.6,0.4-0.9c0.2-0.3,0.4-0.7,0.4-1c0-0.7-0.7-0.8-1-0.8c-0.2,0-0.4-0.1-0.6-0.2
			C-6.2,4.3-6.3,4.1-6.4,4C-6.6,3.4-7,3-7.4,2.7c0.3-4,3.6-7.2,7.6-7.2c0.2,0,0.4,0,0.6,0c0,0-0.1,0-0.1,0.1C0.5-4.2,0.5-4,0.7-3.8
			c0,0,0,0,0,0c0.1,0.1,0.1,0.1,0.2,0.2c0,0-0.1,0.1-0.5,0.3C-0.3-3-0.9-2.3-1.1-1.6c-0.1,0.3,0,0.6,0.3,0.8
			c0.1,0.1,0.2,0.1,0.3,0.1c0.5,0,0.9-0.2,1.3-0.4c0.4-0.2,0.9-0.4,1.3-0.4c1.5,0,2.7,0.3,2.7,0.8c0,0.2,0,0.2-0.1,0.2
			C4.5-0.2,3.9-0.2,3.3-0.3c-0.1,0-0.3,0-0.5,0c-0.3,0-0.6,0-0.9-0.2C1.7-0.6,1.3-0.7,1-0.6C0-0.7-0.9-0.4-1.6,0.2
			c-0.5,0.5-0.7,1.2-0.5,1.9c0,0.1,0,0.2,0,0.3c0,0.8,0.8,1.1,1.5,1.1C0.2,3.5,1,3.6,1.7,4c0,0.3,0.1,0.7,0.2,1
			C2,5.1,2.1,5.3,2.1,5.5c0,0.1,0,0.2-0.1,0.3C1.8,6,1.7,6.3,1.7,6.6c0.1,0.7,0.4,1.3,0.9,1.8c0.1,0.1,0.2,0.1,0.3,0.1
			c0,0,0.1,0,0.1,0c0.2-0.1,2.2-0.6,2.2-1.9c0-0.3,0.1-0.5,0.3-0.7c0.3-0.2,0.4-0.5,0.4-0.8c0.2-0.6,0.6-1.2,1-1.7
			C7.1,3.3,7.1,3,7,2.9c0,0,0,0,0,0c-0.6-0.5-1.1-1-1.4-1.7C5.7,1.3,5.9,1.4,6,1.5c0.1,0.1,0.3,0.2,0.5,0.2c0.4-0.1,0.7-0.3,1-0.6
			c1.1,4.1-1.2,8.3-5.3,9.4C1.6,10.8,0.9,10.8,0.2,10.8L0.2,10.8z"/>
	</g>
</g>
</svg>
