<svg xmlns="http://www.w3.org/2000/svg" width="20.319" height="15.964" viewBox="0 0 20.319 15.964"><defs><style>.a{fill:#c2c8cf;}</style></defs><path class="a" d="M1.95,59.741q.386.272,2.324,1.616t2.971,2.069q.113.08.482.346t.612.431q.244.164.59.368a3.42,3.42,0,0,0,.652.306,1.8,1.8,0,0,0,.567.1h.023a1.8,1.8,0,0,0,.567-.1,3.424,3.424,0,0,0,.652-.306q.346-.2.59-.368t.612-.431q.368-.267.482-.346l5.306-3.685a5.386,5.386,0,0,0,1.383-1.395,2.994,2.994,0,0,0,.556-1.712A1.83,1.83,0,0,0,18.5,54.82H1.814a1.619,1.619,0,0,0-1.344.59A2.289,2.289,0,0,0,0,56.883a2.648,2.648,0,0,0,.624,1.548A5.628,5.628,0,0,0,1.95,59.741Z" transform="translate(0 -54.82)"/><path class="a" d="M19.185,185.423q-3.719,2.517-5.646,3.912-.646.476-1.049.743a6.477,6.477,0,0,1-1.071.544,3.263,3.263,0,0,1-1.247.278h-.023a3.264,3.264,0,0,1-1.247-.278,6.48,6.48,0,0,1-1.071-.544q-.4-.266-1.049-.743-1.531-1.122-5.635-3.912A6.006,6.006,0,0,1,0,184.437v9a1.746,1.746,0,0,0,.533,1.281,1.747,1.747,0,0,0,1.281.533H18.5a1.82,1.82,0,0,0,1.814-1.814v-9A6.253,6.253,0,0,1,19.185,185.423Z" transform="translate(0 -179.289)"/></svg>