<svg xmlns="http://www.w3.org/2000/svg" width="16.5" height="12.964" viewBox="0 0 16.5 12.964"><defs><style>.a{fill:#fff;}</style></defs><path class="a" d="M1.584,58.816q.313.221,1.888,1.312t2.412,1.68q.092.065.391.281t.5.35q.2.133.479.3a2.778,2.778,0,0,0,.529.248,1.459,1.459,0,0,0,.46.083h.019a1.46,1.46,0,0,0,.46-.083,2.781,2.781,0,0,0,.529-.248q.281-.166.479-.3t.5-.35q.3-.217.391-.281l4.309-2.993a4.374,4.374,0,0,0,1.123-1.133,2.432,2.432,0,0,0,.451-1.39,1.486,1.486,0,0,0-1.473-1.473H1.473A1.315,1.315,0,0,0,.382,55.3,1.859,1.859,0,0,0,0,56.5a2.151,2.151,0,0,0,.506,1.257A4.57,4.57,0,0,0,1.584,58.816Z" transform="translate(0 -54.82)"/><path class="a" d="M15.579,185.238q-3.02,2.044-4.585,3.177-.525.387-.852.6a5.259,5.259,0,0,1-.87.442,2.65,2.65,0,0,1-1.013.226H8.241a2.65,2.65,0,0,1-1.013-.226,5.262,5.262,0,0,1-.87-.442q-.327-.216-.852-.6Q4.263,187.5.93,185.238a4.877,4.877,0,0,1-.93-.8v7.311a1.418,1.418,0,0,0,.433,1.041,1.418,1.418,0,0,0,1.041.433H15.027a1.478,1.478,0,0,0,1.473-1.473v-7.311A5.078,5.078,0,0,1,15.579,185.238Z" transform="translate(0 -180.257)"/></svg>