<svg xmlns="http://www.w3.org/2000/svg" xmlns:xlink="http://www.w3.org/1999/xlink" width="104" height="104" viewBox="0 0 104 104">
  <defs>
    <filter id="Ellipse_1" x="0" y="0" width="104" height="104" filterUnits="userSpaceOnUse">
      <feOffset dy="3" input="SourceAlpha"/>
      <feGaussianBlur stdDeviation="10" result="blur"/>
      <feFlood flood-opacity="0.102"/>
      <feComposite operator="in" in2="blur"/>
      <feComposite in="SourceGraphic"/>
    </filter>
  </defs>
  <g id="fb" transform="translate(-25 -759)">
    <g transform="matrix(1, 0, 0, 1, 25, 759)" filter="url(#Ellipse_1)">
      <circle id="Ellipse_1-2" data-name="Ellipse 1" cx="22" cy="22" r="22" transform="translate(30 27)" fill="#fff"/>
    </g>
    <g id="facebook_1_" data-name="facebook (1)" transform="translate(49.923 799)">
      <path id="Path_7" data-name="Path 7" d="M31.7,0,29.3,0a4.212,4.212,0,0,0-4.436,4.552v2.1H22.454a.377.377,0,0,0-.377.377v3.041a.377.377,0,0,0,.377.377h2.412v7.673a.377.377,0,0,0,.377.377h3.146a.377.377,0,0,0,.377-.377V10.446h2.82a.377.377,0,0,0,.377-.377V7.028a.377.377,0,0,0-.377-.377H28.767V4.872c0-.855.2-1.289,1.318-1.289H31.7a.377.377,0,0,0,.377-.377V.381A.377.377,0,0,0,31.7,0Z" transform="translate(0 -1)" fill="#0691ce"/>
    </g>
  </g>
</svg>
