<svg xmlns="http://www.w3.org/2000/svg" width="10" height="18.496" viewBox="0 0 10 18.496"><defs><style>.a{fill:#fff;}</style></defs><g transform="translate(-22.077 1)"><path class="a" d="M31.7,0,29.3,0a4.212,4.212,0,0,0-4.436,4.552v2.1H22.454a.377.377,0,0,0-.377.377v3.041a.377.377,0,0,0,.377.377h2.412v7.673a.377.377,0,0,0,.377.377h3.146a.377.377,0,0,0,.377-.377V10.446h2.82a.377.377,0,0,0,.377-.377V7.028a.377.377,0,0,0-.377-.377H28.767V4.872c0-.855.2-1.289,1.318-1.289H31.7a.377.377,0,0,0,.377-.377V.381A.377.377,0,0,0,31.7,0Z" transform="translate(0 -1)"/></g></svg>