<svg xmlns="http://www.w3.org/2000/svg" width="22.487" height="20.602" viewBox="0 0 22.487 20.602"><defs><style>.a{fill:#8c939c;}</style></defs><g transform="translate(-64.267 -80.334)"><path class="a" d="M85.874,82.218h-13.4a2.763,2.763,0,0,0-5.239,0H65.147a.88.88,0,1,0,0,1.759h2.091a2.763,2.763,0,0,0,5.239,0h13.4a.88.88,0,1,0,0-1.759ZM69.857,84.1a1,1,0,1,1,1-1A1.006,1.006,0,0,1,69.857,84.1Z" transform="translate(0)"/><path class="a" d="M85.874,210.751H83.783a2.763,2.763,0,0,0-5.239,0h-13.4a.88.88,0,1,0,0,1.759h13.4a2.763,2.763,0,0,0,5.239,0h2.091a.88.88,0,1,0,0-1.759Zm-4.711,1.884a1,1,0,1,1,1-1A1.006,1.006,0,0,1,81.163,212.636Z" transform="translate(0 -120.996)"/><path class="a" d="M85.874,339.284H76.246a2.763,2.763,0,0,0-5.239,0h-5.86a.88.88,0,0,0,0,1.759h5.86a2.763,2.763,0,0,0,5.239,0h9.628a.88.88,0,1,0,0-1.759Zm-12.248,1.884a1,1,0,1,1,1-1A1.006,1.006,0,0,1,73.626,341.169Z" transform="translate(0 -241.992)"/></g></svg>