<svg xmlns="http://www.w3.org/2000/svg" xmlns:xlink="http://www.w3.org/1999/xlink" width="104" height="104" viewBox="0 0 104 104">
  <defs>
    <filter id="Ellipse_2" x="0" y="0" width="104" height="104" filterUnits="userSpaceOnUse">
      <feOffset dy="3" input="SourceAlpha"/>
      <feGaussianBlur stdDeviation="10" result="blur"/>
      <feFlood flood-opacity="0.102"/>
      <feComposite operator="in" in2="blur"/>
      <feComposite in="SourceGraphic"/>
    </filter>
  </defs>
  <g id="G_" data-name="G+" transform="translate(-280 -759)">
    <g transform="matrix(1, 0, 0, 1, 280, 759)" filter="url(#Ellipse_2)">
      <circle id="Ellipse_2-2" data-name="Ellipse 2" cx="22" cy="22" r="22" transform="translate(30 27)" fill="#fff"/>
    </g>
    <g id="google-hangouts" transform="translate(323 798)">
      <path id="Path_1" data-name="Path 1" d="M4.1,144.458l-.645,2.407-2.356.05a9.276,9.276,0,0,1-.068-8.647h0l2.1.385.919,2.085a5.526,5.526,0,0,0,.052,3.721Z" transform="translate(0 -133.267)" fill="#fbbb00"/>
      <path id="Path_2" data-name="Path 2" d="M270.523,208.176a9.257,9.257,0,0,1-3.3,8.951h0l-2.642-.135-.374-2.334a5.519,5.519,0,0,0,2.375-2.818h-4.952v-3.663h8.895Z" transform="translate(-252.164 -200.646)" fill="#518ef8"/>
      <path id="Path_3" data-name="Path 3" d="M44.462,314.7h0a9.263,9.263,0,0,1-13.954-2.833l3-2.456a5.507,5.507,0,0,0,7.936,2.82Z" transform="translate(-29.405 -298.217)" fill="#28b446"/>
      <path id="Path_4" data-name="Path 4" d="M42.759,2.132l-3,2.456a5.507,5.507,0,0,0-8.118,2.883L28.625,5h0a9.262,9.262,0,0,1,14.135-2.87Z" transform="translate(-27.589)" fill="#f14336"/>
    </g>
  </g>
</svg>
