<svg xmlns="http://www.w3.org/2000/svg" width="18.52" height="18.52" viewBox="0 0 18.52 18.52"><defs><style>.a{fill:#fff;}</style></defs><path class="a" d="M4.1,144.458l-.645,2.407-2.356.05a9.276,9.276,0,0,1-.068-8.647h0l2.1.385.919,2.085a5.526,5.526,0,0,0,.052,3.721Z" transform="translate(0 -133.267)"/><path class="a" d="M270.523,208.176a9.257,9.257,0,0,1-3.3,8.951h0l-2.642-.135-.374-2.334a5.519,5.519,0,0,0,2.375-2.818h-4.952v-3.663h8.895Z" transform="translate(-252.164 -200.646)"/><path class="a" d="M44.462,314.7h0a9.263,9.263,0,0,1-13.954-2.833l3-2.456a5.507,5.507,0,0,0,7.936,2.82Z" transform="translate(-29.405 -298.217)"/><path class="a" d="M42.759,2.132l-3,2.456a5.507,5.507,0,0,0-8.118,2.883L28.625,5h0a9.262,9.262,0,0,1,14.135-2.87Z" transform="translate(-27.589)"/></svg>