<svg xmlns="http://www.w3.org/2000/svg" xmlns:xlink="http://www.w3.org/1999/xlink" width="28.567" height="28.567" viewBox="0 0 28.567 28.567"><defs><style>.a{fill:#8c939c;}.b{filter:url(#a);}</style><filter id="a" x="0" y="0" width="28.567" height="28.567" filterUnits="userSpaceOnUse"><feOffset dy="2" input="SourceAlpha"/><feGaussianBlur stdDeviation="1" result="b"/><feFlood flood-color="#fff"/><feComposite operator="in" in2="b"/><feComposite in="SourceGraphic"/></filter></defs><g transform="translate(-14.65 -17.071)"><g class="b" transform="matrix(1, 0, 0, 1, 14.65, 17.07)"><path class="a" d="M39.617,39.676a2.048,2.048,0,0,1-2.9,0L29.114,32.07l-7.968,7.968a2.048,2.048,0,0,1-2.9-2.9l7.968-7.968-7.606-7.606a2.048,2.048,0,0,1,2.9-2.9l7.606,7.606,7.243-7.243a2.048,2.048,0,0,1,2.9,2.9l-7.243,7.243,7.606,7.606A2.048,2.048,0,0,1,39.617,39.676Z" transform="translate(-14.65 -17.07)"/></g></g></svg>