<svg xmlns="http://www.w3.org/2000/svg" xmlns:xlink="http://www.w3.org/1999/xlink" width="52" height="52" viewBox="0 0 52 52">
  <defs>
    <filter id="Ellipse_339" x="0" y="0" width="52" height="52" filterUnits="userSpaceOnUse">
      <feOffset dy="3" input="SourceAlpha"/>
      <feGaussianBlur stdDeviation="3" result="blur"/>
      <feFlood flood-color="#d8dadb"/>
      <feComposite operator="in" in2="blur"/>
      <feComposite in="SourceGraphic"/>
    </filter>
  </defs>
  <g id="Height-icon" transform="translate(23 14)">
    <g transform="matrix(1, 0, 0, 1, -23, -14)" filter="url(#Ellipse_339)">
      <g id="Ellipse_339-2" data-name="Ellipse 339" transform="translate(10 7)" fill="#fff" stroke="#f26a6b" stroke-width="1">
        <circle cx="16" cy="16" r="16" stroke="none"/>
        <circle cx="16" cy="16" r="16.5" fill="none"/>
      </g>
    </g>
    <g id="standing-human-body-silhouette" transform="translate(-61.768 -1)">
      <g id="Group_9511" data-name="Group 9511" transform="translate(59.768 0)">
        <path id="Path_9299" data-name="Path 9299" d="M64.068,11.4a25.983,25.983,0,0,0,.327,2.9,4.472,4.472,0,0,1,.159,1.189,4.318,4.318,0,0,0-.06,1.25,4.061,4.061,0,0,1-.01,1.37,9.989,9.989,0,0,0-.188,1.017c-.317.8-.138.762-.138.762.1.121.267.009.267.009a.165.165,0,0,0,.217-.019.2.2,0,0,0,.238-.011.244.244,0,0,0,.267-.061c.079.04.1-.011.1-.011.238-.015-.133-.778-.133-.778a2.083,2.083,0,0,1,.088-1.066c.58-1.721.61-2.177.378-2.826-.065-.187-.082-.261-.052-.343.069-.188.019-.942.1-1.242a26.887,26.887,0,0,0,.409-2.727,5.278,5.278,0,0,0-.4-2.156A13.805,13.805,0,0,1,65.69,6.36a2.171,2.171,0,0,1,.221.99,4.108,4.108,0,0,0,.535,1.676,2.7,2.7,0,0,1,.379.845c0,.121-.026.413-.026.413l.011.254a3.627,3.627,0,0,1,.035.4c-.043.663.062.538.062.538.089,0,.187-.534.187-.534a2.287,2.287,0,0,0,.041.7c.089.185.154-.032.155-.075.023-.844.074-.623.074-.623.049.685.11.84.219.786.082-.039.007-.822.007-.822.141.465.248.539.248.539.233.164.089-.288.057-.378a2.569,2.569,0,0,1-.178-.64c.215.427.378.411.378.411.21-.067-.184-.672-.414-.962a2.358,2.358,0,0,1-.314-.463,5.594,5.594,0,0,1-.126-.838A2.519,2.519,0,0,0,67.033,7.5a3.909,3.909,0,0,1-.379-1.463L66.64,4.426c-.112-1.1-.92-1.1-.92-1.1-.817-.122-.93-.385-.93-.385a1.152,1.152,0,0,1-.074-.726.868.868,0,0,0,.2-.427c.238-.183.227-.45.117-.447-.088,0-.068-.071-.068-.071A1.018,1.018,0,0,0,64.043,0H63.88a1.018,1.018,0,0,0-.92,1.265s.02.073-.069.071c-.11,0-.12.264.117.447a.867.867,0,0,0,.2.427,1.152,1.152,0,0,1-.074.726s-.113.264-.93.385c0,0-.809.008-.919,1.1l-.015,1.608A3.884,3.884,0,0,1,60.889,7.5a2.528,2.528,0,0,0-.207,1.082,5.629,5.629,0,0,1-.126.838,2.331,2.331,0,0,1-.314.463c-.233.289-.624.893-.415.962,0,0,.163.016.378-.411a2.543,2.543,0,0,1-.177.64c-.034.088-.178.54.055.378,0,0,.108-.074.248-.539,0,0-.075.783.009.822.109.054.169-.1.219-.786,0,0,.051-.221.074.623,0,.044.065.261.154.075a2.255,2.255,0,0,0,.041-.7s.1.534.187.534c0,0,.106.125.063-.538a3.337,3.337,0,0,1,.036-.4l.01-.254s-.026-.291-.026-.413a2.7,2.7,0,0,1,.379-.845,4.11,4.11,0,0,0,.535-1.676,2.176,2.176,0,0,1,.222-.99,13.994,13.994,0,0,1,.053,2.293,5.267,5.267,0,0,0-.4,2.156,26.546,26.546,0,0,0,.408,2.727c.086.3.035,1.053.1,1.242.031.082.015.157-.052.343-.231.648-.2,1.105.379,2.826a2.064,2.064,0,0,1,.088,1.066s-.371.763-.133.778c0,0,.019.051.1.011a.244.244,0,0,0,.267.061.2.2,0,0,0,.238.011.164.164,0,0,0,.216.019s.168.114.268-.009c0,0,.178.039-.139-.762a9.94,9.94,0,0,0-.188-1.017,4.082,4.082,0,0,1-.01-1.37,4.394,4.394,0,0,0-.06-1.25,4.377,4.377,0,0,1,.159-1.189,26.138,26.138,0,0,0,.327-2.9l.1.034A.2.2,0,0,0,64.068,11.4Z" transform="translate(-58.768 0)" fill="#f26a6b"/>
      </g>
    </g>
  </g>
</svg>
