<svg xmlns="http://www.w3.org/2000/svg" width="9.883" height="23.495" viewBox="0 0 9.883 23.495"><defs><style>.a{fill:#8c939c;}</style></defs><g transform="translate(-59.768 0)"><g transform="translate(59.768 0)"><path class="a" d="M64.835,13.432a30.618,30.618,0,0,0,.385,3.411,5.27,5.27,0,0,1,.187,1.4,5.089,5.089,0,0,0-.071,1.473,4.786,4.786,0,0,1-.012,1.614,11.771,11.771,0,0,0-.222,1.2c-.374.944-.163.9-.163.9.116.142.314.011.314.011a.194.194,0,0,0,.256-.023.233.233,0,0,0,.281-.013.288.288,0,0,0,.314-.071c.094.047.116-.012.116-.012.281-.018-.157-.917-.157-.917a2.454,2.454,0,0,1,.1-1.256c.684-2.027.718-2.566.445-3.33-.077-.221-.1-.308-.061-.4.082-.221.022-1.11.122-1.463a31.683,31.683,0,0,0,.482-3.213,6.219,6.219,0,0,0-.472-2.54,16.267,16.267,0,0,1,.062-2.7,2.558,2.558,0,0,1,.261,1.167,4.841,4.841,0,0,0,.631,1.975,3.179,3.179,0,0,1,.446,1c0,.142-.031.486-.031.486l.012.3a4.272,4.272,0,0,1,.042.466c-.051.781.074.634.074.634.1,0,.22-.629.22-.629a2.7,2.7,0,0,0,.048.831c.1.218.182-.037.183-.089.028-.995.087-.734.087-.734.058.807.13.989.258.926.1-.046.008-.969.008-.969.166.548.293.635.293.635.275.193.1-.34.067-.445a3.027,3.027,0,0,1-.209-.754c.254.5.445.485.445.485.248-.079-.216-.792-.488-1.133a2.778,2.778,0,0,1-.37-.545,6.591,6.591,0,0,1-.148-.988,2.968,2.968,0,0,0-.245-1.275,4.606,4.606,0,0,1-.446-1.723l-.017-1.894c-.132-1.292-1.084-1.3-1.084-1.3-.962-.143-1.1-.454-1.1-.454A1.357,1.357,0,0,1,65.6,2.6a1.023,1.023,0,0,0,.234-.5c.281-.215.267-.53.137-.527-.1,0-.081-.083-.081-.083A1.2,1.2,0,0,0,64.806,0h-.192a1.2,1.2,0,0,0-1.084,1.49s.024.086-.081.083c-.129,0-.141.312.138.527a1.022,1.022,0,0,0,.234.5,1.357,1.357,0,0,1-.087.856s-.133.311-1.1.454c0,0-.954.009-1.083,1.3l-.018,1.894a4.576,4.576,0,0,1-.447,1.723,2.979,2.979,0,0,0-.244,1.275,6.633,6.633,0,0,1-.148.988,2.747,2.747,0,0,1-.37.545c-.274.341-.735,1.052-.489,1.133,0,0,.192.019.445-.485a3,3,0,0,1-.208.754c-.04.1-.209.637.065.445,0,0,.127-.087.293-.635,0,0-.089.922.01.969.129.063.2-.119.258-.926,0,0,.06-.261.087.734,0,.051.077.307.182.089a2.657,2.657,0,0,0,.049-.831s.114.629.22.629c0,0,.125.147.074-.634a3.931,3.931,0,0,1,.042-.466l.012-.3s-.031-.343-.031-.486a3.175,3.175,0,0,1,.446-1,4.843,4.843,0,0,0,.63-1.975,2.564,2.564,0,0,1,.262-1.167,16.49,16.49,0,0,1,.062,2.7,6.207,6.207,0,0,0-.472,2.54,31.281,31.281,0,0,0,.481,3.213c.1.352.041,1.241.122,1.463.036.1.017.185-.061.4-.272.764-.237,1.3.446,3.33a2.432,2.432,0,0,1,.1,1.256s-.437.9-.157.917c0,0,.022.06.116.012a.288.288,0,0,0,.314.071.232.232,0,0,0,.28.013.193.193,0,0,0,.255.023s.2.134.316-.011c0,0,.209.046-.163-.9a11.712,11.712,0,0,0-.221-1.2,4.81,4.81,0,0,1-.012-1.614,5.177,5.177,0,0,0-.07-1.473,5.158,5.158,0,0,1,.187-1.4,30.8,30.8,0,0,0,.385-3.411l.115.04A.233.233,0,0,0,64.835,13.432Z" transform="translate(-59.768 0)"/></g></g></svg>