<svg xmlns="http://www.w3.org/2000/svg" width="13.712" height="20.338" viewBox="0 0 13.712 20.338"><defs><style>.a{fill:#8c939c;}</style></defs><g transform="translate(0 0)"><path class="a" d="M273.378,6.76A2.38,2.38,0,1,0,271,4.378,2.385,2.385,0,0,0,273.378,6.76Zm0-3.631a1.249,1.249,0,1,1-1.249,1.249A1.251,1.251,0,0,1,273.378,3.129Z" transform="translate(-263.541 -2)"/><path class="a" d="M239.453,134.8h-.661a.574.574,0,0,0-.524.348l-.793,1.93-.8-1.93a.562.562,0,0,0-.52-.348H235.5a1.9,1.9,0,0,0-1.9,1.9v6.738a.564.564,0,0,0,.565.565h.316v5.253a.564.564,0,0,0,.565.565h4.864a.564.564,0,0,0,.564-.565V144h.312a.564.564,0,0,0,.564-.564V136.7A1.9,1.9,0,0,0,239.453,134.8Zm-.108,13.893h-1.3v-2.626a.564.564,0,1,0-1.129,0v2.626h-1.3V144h3.735v4.688Zm.877-5.817h-5.493V136.7a.769.769,0,0,1,.769-.769h.284l1.173,2.851a.566.566,0,0,0,1.045,0l1.173-2.847h.284a.769.769,0,0,1,.769.769v6.17Z" transform="translate(-227.639 -129.483)"/><path class="a" d="M88.275,3.129a.565.565,0,1,0,0-1.129H85.265a.564.564,0,0,0-.565.565V21.774a.564.564,0,0,0,.565.565h3.011a.565.565,0,1,0,0-1.129H85.833V19.624h2.442a.565.565,0,1,0,0-1.129H85.833V16.833H87A.565.565,0,1,0,87,15.7H85.833V14.131h2.442a.565.565,0,1,0,0-1.129H85.833V11.34H87a.565.565,0,1,0,0-1.129H85.833V8.642h2.442a.565.565,0,1,0,0-1.129H85.833V5.847H87a.565.565,0,1,0,0-1.129H85.833V3.129Z" transform="translate(-84.7 -2)"/></g></svg>