<svg id="information" xmlns="http://www.w3.org/2000/svg" width="51.051" height="51.051" viewBox="0 0 51.051 51.051">
  <path id="Path_1" data-name="Path 1" d="M25.525,0A25.525,25.525,0,1,0,51.051,25.526,25.554,25.554,0,0,0,25.525,0Zm0,46.41A20.884,20.884,0,1,1,46.41,25.526,20.908,20.908,0,0,1,25.525,46.41Z" fill="#ffffff"/>
  <path id="Path_2" data-name="Path 2" d="M148.1,70a3.094,3.094,0,1,0,3.093,3.1A3.1,3.1,0,0,0,148.1,70Z" transform="translate(-122.57 -59.171)" fill="#ffffff"/>
  <path id="Path_3" data-name="Path 3" d="M152.32,140a2.321,2.321,0,0,0-2.32,2.32v13.923a2.32,2.32,0,0,0,4.641,0V142.32A2.321,2.321,0,0,0,152.32,140Z" transform="translate(-126.795 -118.342)" fill="#ffffff"/>
</svg>
