<svg xmlns="http://www.w3.org/2000/svg" width="12.482" height="12.482" viewBox="0 0 12.482 12.482"><defs><style>.a{fill:#8c939c;}</style></defs><path class="a" d="M2.925,4.388c0-2.372,1.6-3.5,2.207-4.388C4.731.294,0,1.445,0,6.241a6.265,6.265,0,0,0,6.241,6.241c4.795,0,5.941-4.723,6.241-5.131-.825.571-2.018,2.206-4.412,2.206A5.188,5.188,0,0,1,2.925,4.388Zm0,0"/><path class="a" d="M249.668,1.928,248.662,0l-.985,1.931-2.2.323L247.073,3.8,246.7,6.016l1.961-1.037,2,1.03L250.279,3.8l1.588-1.553Zm0,0" transform="translate(-239.496)"/></svg>