<svg xmlns="http://www.w3.org/2000/svg" xmlns:xlink="http://www.w3.org/1999/xlink" width="52" height="52" viewBox="0 0 52 52">
  <defs>
    <filter id="Ellipse_339" x="0" y="0" width="52" height="52" filterUnits="userSpaceOnUse">
      <feOffset dy="3" input="SourceAlpha"/>
      <feGaussianBlur stdDeviation="3" result="blur"/>
      <feFlood flood-color="#d8dadb"/>
      <feComposite operator="in" in2="blur"/>
      <feComposite in="SourceGraphic"/>
    </filter>
  </defs>
  <g id="Education-icon" transform="translate(17 14)">
    <g transform="matrix(1, 0, 0, 1, -17, -14)" filter="url(#Ellipse_339)">
      <g id="Ellipse_339-2" data-name="Ellipse 339" transform="translate(10 7)" fill="#fff" stroke="#f26a6b" stroke-width="1">
        <circle cx="16" cy="16" r="16" stroke="none"/>
        <circle cx="16" cy="16" r="16.5" fill="none"/>
      </g>
    </g>
    <g id="graduate-cap" transform="translate(-0.271 -59.678)">
      <g id="Group_9523" data-name="Group 9523" transform="translate(0 62.561)">
        <path id="Path_9315" data-name="Path 9315" d="M19.035,67.567v-.419L9.513,62.561,0,67.144v.427l9.513,4.583Z" transform="translate(0 -62.561)" fill="#f26a6b"/>
        <path id="Path_9316" data-name="Path 9316" d="M83.808,251.57v2.741l5.736,2.763h.964l5.72-2.755.016-.036V251.57l-6.217,2.995Z" transform="translate(-80.512 -244.137)" fill="#f26a6b"/>
        <path id="Path_9317" data-name="Path 9317" d="M428.127,227.932V222.6l-.753.38v4.953l-.491,1.495.742.993h.251l.742-.993Z" transform="translate(-410.094 -216.305)" fill="#f26a6b"/>
      </g>
    </g>
  </g>
</svg>
