<svg xmlns="http://www.w3.org/2000/svg" width="16.83" height="20.396" viewBox="0 0 16.83 20.396"><defs><style>.a{fill:none;stroke:#8c939c;stroke-width:1.5px;}</style></defs><g transform="translate(0.75 0.75)"><path class="a" d="M92.235,64.611,97.479,70.2a.277.277,0,0,0,.4,0l5.244-5.585a8.138,8.138,0,0,0,1.747-2.773,7.555,7.555,0,0,0,.456-3.11,8.017,8.017,0,0,0-2.315-5.127,7.532,7.532,0,0,0-10.669,0,8.017,8.017,0,0,0-2.315,5.127,7.555,7.555,0,0,0,.456,3.11A8.138,8.138,0,0,0,92.235,64.611Zm5.446-9.453a3.5,3.5,0,1,1-3.416,3.5A3.463,3.463,0,0,1,97.681,55.158Z" transform="translate(-90.016 -51.387)"/></g></svg>