<svg id="svg" version="1.1" xmlns="http://www.w3.org/2000/svg" xmlns:xlink="http://www.w3.org/1999/xlink" width="400" height="542.8571428571429" viewBox="0, 0, 400,542.8571428571429"><g id="svgg"><path id="path0" d="M129.200 2.600 L 129.200 5.200 124.233 5.200 C 120.651 5.200,119.202 5.339,119.033 5.700 C 118.847 6.100,118.753 6.100,118.567 5.700 C 118.279 5.084,112.000 4.988,112.000 5.600 C 112.000 5.820,111.730 6.000,111.400 6.000 C 111.070 6.000,110.800 6.270,110.800 6.600 C 110.800 6.930,110.620 7.200,110.400 7.200 C 110.167 7.200,110.000 8.533,110.000 10.400 C 110.000 12.267,110.167 13.600,110.400 13.600 C 111.213 13.600,110.768 14.393,109.822 14.630 C 109.284 14.765,108.765 15.174,108.668 15.538 C 108.513 16.122,108.487 16.118,108.446 15.500 C 108.387 14.611,100.220 14.420,99.865 15.300 C 99.704 15.700,99.657 15.700,99.632 15.300 C 99.592 14.677,92.800 14.578,92.800 15.200 C 92.800 15.420,92.544 15.600,92.232 15.600 C 91.449 15.600,91.108 17.480,91.254 20.991 C 91.408 24.682,91.853 24.398,85.865 24.428 C 81.407 24.450,80.796 24.534,80.768 25.126 C 80.749 25.543,80.660 25.609,80.535 25.300 C 80.293 24.701,76.000 24.599,76.000 25.192 C 76.000 25.408,75.550 25.698,75.000 25.836 C 74.450 25.974,74.000 26.322,74.000 26.610 C 74.000 26.898,73.775 27.208,73.500 27.300 C 73.162 27.412,73.000 28.395,73.000 30.332 C 73.000 32.358,72.853 33.198,72.500 33.199 C 72.225 33.200,72.000 33.380,72.000 33.600 C 72.000 33.820,71.203 34.000,70.229 34.000 C 68.879 34.000,68.415 34.166,68.276 34.700 C 68.102 35.367,68.091 35.367,68.046 34.700 C 67.986 33.786,65.600 33.688,65.600 34.600 C 65.600 34.930,65.420 35.200,65.200 35.200 C 64.980 35.200,64.800 35.020,64.800 34.800 C 64.800 34.580,64.542 34.400,64.227 34.400 C 63.585 34.400,63.014 35.775,63.398 36.396 C 63.535 36.618,63.367 36.800,63.024 36.800 C 62.597 36.800,62.400 37.180,62.400 38.000 C 62.400 38.800,62.600 39.200,63.000 39.200 C 63.330 39.200,63.600 39.380,63.600 39.600 C 63.600 39.820,63.330 40.000,63.000 40.000 C 62.556 40.000,62.400 40.467,62.400 41.800 C 62.400 43.797,62.446 43.778,58.135 43.609 C 56.827 43.558,56.429 43.700,56.281 44.272 C 56.110 44.935,56.089 44.937,56.046 44.300 C 56.021 43.915,55.709 43.600,55.353 43.600 C 54.916 43.600,54.771 43.845,54.904 44.356 C 55.135 45.239,54.585 46.318,54.133 45.867 C 53.963 45.696,54.023 45.431,54.267 45.278 C 54.574 45.086,54.516 44.818,54.080 44.413 C 53.520 43.893,53.478 43.904,53.711 44.513 C 53.887 44.970,53.778 45.200,53.387 45.200 C 53.064 45.200,52.800 45.470,52.800 45.800 C 52.800 46.130,53.070 46.400,53.400 46.400 C 53.730 46.400,54.000 46.580,54.000 46.800 C 54.000 47.020,53.730 47.200,53.400 47.200 C 52.649 47.200,52.559 49.836,53.300 50.135 C 53.700 50.296,53.700 50.343,53.300 50.368 C 53.018 50.386,52.800 50.924,52.800 51.600 C 52.800 52.659,52.663 52.800,51.633 52.800 C 50.992 52.800,50.376 53.025,50.265 53.300 C 50.104 53.700,50.057 53.700,50.032 53.300 C 49.984 52.543,47.200 52.641,47.200 53.400 C 47.200 53.730,47.020 54.000,46.800 54.000 C 46.580 54.000,46.400 53.730,46.400 53.400 C 46.400 53.070,46.130 52.800,45.800 52.800 C 45.470 52.800,45.200 53.064,45.200 53.387 C 45.200 53.778,44.970 53.887,44.513 53.711 C 43.904 53.478,43.893 53.520,44.413 54.080 C 44.818 54.516,45.086 54.574,45.278 54.267 C 45.431 54.023,45.696 53.963,45.867 54.133 C 46.318 54.585,45.239 55.135,44.356 54.904 C 43.856 54.774,43.600 54.916,43.600 55.324 C 43.600 55.664,43.915 56.024,44.300 56.124 C 44.942 56.292,44.939 56.311,44.270 56.354 C 43.673 56.392,43.552 56.711,43.607 58.100 C 43.779 62.448,43.799 62.400,41.800 62.400 C 40.467 62.400,40.000 62.556,40.000 63.000 C 40.000 63.330,39.820 63.600,39.600 63.600 C 39.380 63.600,39.200 63.330,39.200 63.000 C 39.200 62.600,38.800 62.400,38.000 62.400 C 37.180 62.400,36.800 62.597,36.800 63.024 C 36.800 63.367,36.618 63.535,36.396 63.398 C 35.775 63.014,34.400 63.585,34.400 64.227 C 34.400 64.542,34.580 64.800,34.800 64.800 C 35.020 64.800,35.200 64.980,35.200 65.200 C 35.200 65.420,34.930 65.600,34.600 65.600 C 33.707 65.600,33.798 67.888,34.700 68.124 C 35.367 68.298,35.367 68.309,34.700 68.354 C 34.144 68.390,34.000 68.770,34.000 70.200 C 34.000 71.190,33.820 72.000,33.600 72.000 C 33.380 72.000,33.200 72.225,33.199 72.500 C 33.198 72.853,32.358 73.000,30.332 73.000 C 28.395 73.000,27.412 73.162,27.300 73.500 C 27.208 73.775,26.892 74.000,26.598 74.000 C 25.810 74.000,25.105 76.546,25.263 78.819 C 25.359 80.211,25.251 80.800,24.900 80.800 C 24.583 80.800,24.400 81.387,24.400 82.400 C 24.400 83.410,24.584 84.002,24.900 84.006 C 25.285 84.011,25.289 84.083,24.918 84.319 C 24.620 84.508,24.390 85.922,24.318 88.008 L 24.200 91.390 21.113 91.260 C 17.489 91.108,15.600 91.441,15.600 92.232 C 15.600 92.544,15.420 92.800,15.200 92.800 C 14.588 92.800,14.684 99.079,15.300 99.367 C 15.700 99.553,15.700 99.647,15.300 99.833 C 14.427 100.241,14.613 108.292,15.500 108.524 C 16.100 108.681,16.106 108.714,15.543 108.754 C 15.182 108.779,14.774 109.250,14.636 109.800 C 14.394 110.762,13.600 111.222,13.600 110.400 C 13.600 110.167,12.267 110.000,10.400 110.000 C 8.533 110.000,7.200 110.167,7.200 110.400 C 7.200 110.620,6.930 110.800,6.600 110.800 C 6.270 110.800,6.000 111.070,6.000 111.400 C 6.000 111.730,5.820 112.000,5.600 112.000 C 4.988 112.000,5.084 118.279,5.700 118.567 C 6.100 118.753,6.100 118.847,5.700 119.033 C 5.339 119.202,5.200 120.651,5.200 124.233 L 5.200 129.200 2.600 129.200 L 0.000 129.200 0.000 195.600 L 0.000 262.000 2.600 262.000 C 4.896 262.000,5.200 262.090,5.200 262.767 C 5.200 263.188,5.425 263.638,5.700 263.767 C 6.100 263.953,6.100 264.047,5.700 264.233 C 5.329 264.406,5.200 266.204,5.200 271.200 C 5.200 276.212,5.328 277.985,5.700 278.135 C 6.100 278.296,6.100 278.343,5.700 278.368 C 4.870 278.421,5.054 281.503,5.900 281.724 C 6.567 281.898,6.567 281.909,5.900 281.954 C 5.117 282.006,4.820 286.400,5.600 286.400 C 5.820 286.400,6.000 286.900,6.000 287.511 C 6.000 289.248,7.222 289.978,10.612 290.265 C 13.222 290.485,13.600 290.434,13.600 289.859 C 13.600 288.888,14.269 289.058,14.548 290.100 C 14.681 290.595,14.792 293.115,14.795 295.700 C 14.799 299.609,14.901 300.400,15.400 300.400 C 15.730 300.400,16.000 300.580,16.000 300.800 C 16.000 301.020,15.730 301.200,15.400 301.200 C 14.947 301.200,14.800 301.689,14.800 303.200 C 14.800 304.300,14.980 305.200,15.200 305.200 C 15.420 305.200,15.600 305.727,15.600 306.371 C 15.600 307.865,16.535 308.800,18.029 308.800 C 18.673 308.800,19.200 308.980,19.200 309.200 C 19.200 309.420,20.100 309.600,21.200 309.600 C 22.711 309.600,23.200 309.453,23.200 309.000 C 23.200 308.076,23.877 308.290,24.148 309.300 C 24.281 309.795,24.392 312.315,24.395 314.900 C 24.399 318.809,24.501 319.600,25.000 319.600 C 25.330 319.600,25.600 319.780,25.600 320.000 C 25.600 320.220,25.330 320.400,25.000 320.400 C 24.547 320.400,24.400 320.889,24.400 322.400 C 24.400 323.500,24.580 324.400,24.800 324.400 C 25.020 324.400,25.206 324.895,25.213 325.500 C 25.241 327.918,32.339 329.997,32.913 327.756 C 33.082 327.098,33.113 327.091,33.154 327.700 C 33.179 328.085,33.380 328.400,33.600 328.400 C 33.841 328.400,34.000 330.067,34.000 332.600 C 34.000 336.067,34.105 336.800,34.600 336.800 C 34.930 336.800,35.200 336.980,35.200 337.200 C 35.200 337.420,34.930 337.600,34.600 337.600 C 33.752 337.600,33.849 338.793,34.700 338.832 C 35.118 338.850,35.199 338.944,34.900 339.065 C 34.324 339.297,34.188 343.600,34.757 343.600 C 34.953 343.600,35.226 344.050,35.364 344.600 C 35.502 345.150,35.867 345.600,36.174 345.600 C 36.482 345.600,36.808 345.825,36.900 346.100 C 37.012 346.438,37.995 346.600,39.932 346.600 C 41.848 346.600,42.798 346.755,42.799 347.067 C 42.800 347.323,42.997 347.599,43.237 347.679 C 43.502 347.767,43.664 348.949,43.647 350.685 C 43.625 353.070,43.735 353.575,44.310 353.726 C 44.954 353.895,44.954 353.910,44.300 353.954 C 43.915 353.979,43.600 354.291,43.600 354.647 C 43.600 355.084,43.845 355.229,44.356 355.096 C 45.239 354.865,46.318 355.415,45.867 355.867 C 45.696 356.037,45.431 355.977,45.278 355.733 C 45.086 355.426,44.818 355.484,44.413 355.920 C 43.893 356.480,43.904 356.522,44.513 356.289 C 44.970 356.113,45.200 356.222,45.200 356.613 C 45.200 356.936,45.470 357.200,45.800 357.200 C 46.130 357.200,46.400 356.930,46.400 356.600 C 46.400 356.270,46.580 356.000,46.800 356.000 C 47.020 356.000,47.200 356.270,47.200 356.600 C 47.200 357.351,49.836 357.441,50.135 356.700 C 50.296 356.300,50.343 356.300,50.368 356.700 C 50.386 356.982,50.924 357.200,51.600 357.200 L 52.800 357.200 52.800 360.967 C 52.800 363.589,52.952 364.804,53.300 364.967 C 53.700 365.153,53.700 365.247,53.300 365.433 C 52.595 365.763,52.676 367.200,53.400 367.200 C 53.730 367.200,54.000 367.380,54.000 367.600 C 54.000 367.820,53.730 368.000,53.400 368.000 C 52.947 368.000,52.800 368.489,52.800 370.000 C 52.800 371.100,52.980 372.000,53.200 372.000 C 53.420 372.000,53.600 372.500,53.600 373.111 C 53.600 374.848,54.822 375.578,58.212 375.865 C 60.822 376.085,61.200 376.034,61.200 375.459 C 61.200 374.488,61.869 374.658,62.148 375.700 C 62.281 376.195,62.392 378.516,62.395 380.857 C 62.401 385.901,62.056 385.600,67.833 385.600 L 72.000 385.600 72.000 392.171 C 72.000 398.092,72.069 398.759,72.700 398.924 C 73.367 399.098,73.367 399.109,72.700 399.154 C 71.806 399.213,71.685 401.600,72.575 401.600 C 72.955 401.600,73.125 401.975,73.075 402.700 C 73.009 403.668,73.132 403.791,74.100 403.725 C 74.825 403.675,75.200 403.845,75.200 404.225 C 75.200 404.572,75.597 404.800,76.200 404.800 C 76.822 404.800,77.200 404.573,77.200 404.200 C 77.200 403.870,77.380 403.600,77.600 403.600 C 77.820 403.600,78.000 403.870,78.000 404.200 C 78.000 404.644,78.467 404.800,79.800 404.800 L 81.600 404.800 81.600 408.967 C 81.600 414.771,81.256 414.400,86.643 414.400 L 91.200 414.400 91.200 420.800 C 91.200 426.222,91.292 427.200,91.800 427.200 C 92.130 427.200,92.400 427.380,92.400 427.600 C 92.400 427.820,92.130 428.000,91.800 428.000 C 90.887 428.000,90.985 430.390,91.900 430.432 C 92.318 430.450,92.399 430.544,92.100 430.665 C 91.440 430.931,91.467 431.524,92.171 432.229 C 92.876 432.933,93.469 432.960,93.735 432.300 C 93.856 432.001,93.950 432.082,93.968 432.500 C 94.010 433.415,96.400 433.513,96.400 432.600 C 96.400 432.270,96.580 432.000,96.800 432.000 C 97.020 432.000,97.200 432.270,97.200 432.600 C 97.200 433.033,97.644 433.200,98.800 433.200 L 100.400 433.200 100.400 435.367 C 100.400 436.726,100.586 437.609,100.900 437.735 C 101.300 437.896,101.300 437.943,100.900 437.968 C 100.079 438.020,100.280 441.104,101.166 442.056 C 101.766 442.699,102.354 442.859,103.866 442.788 C 104.930 442.738,106.745 442.720,107.900 442.748 L 110.000 442.800 110.000 447.800 C 110.000 451.533,110.127 452.800,110.500 452.800 C 110.853 452.800,111.000 453.640,111.000 455.667 C 111.000 457.604,111.162 458.587,111.500 458.700 C 111.775 458.792,112.000 459.122,112.000 459.433 C 112.000 459.745,112.255 460.000,112.567 460.000 C 112.878 460.000,113.208 460.225,113.300 460.500 C 113.413 460.838,114.391 461.000,116.313 461.000 C 119.472 461.000,119.584 461.104,119.595 464.071 C 119.598 465.132,119.795 465.592,120.300 465.724 C 120.967 465.898,120.967 465.909,120.300 465.954 C 119.366 466.015,119.292 468.400,120.224 468.400 C 120.567 468.400,120.735 468.582,120.598 468.804 C 120.214 469.425,120.785 470.800,121.427 470.800 C 121.742 470.800,122.000 470.620,122.000 470.400 C 122.000 470.180,122.180 470.000,122.400 470.000 C 122.620 470.000,122.800 470.270,122.800 470.600 C 122.800 470.973,123.178 471.200,123.800 471.200 C 124.422 471.200,124.800 470.973,124.800 470.600 C 124.800 470.270,124.980 470.000,125.200 470.000 C 125.420 470.000,125.600 470.270,125.600 470.600 C 125.600 471.044,126.067 471.200,127.400 471.200 L 129.200 471.200 129.236 473.500 C 129.255 474.765,129.243 476.630,129.209 477.645 C 129.114 480.451,129.634 480.760,134.461 480.765 C 139.350 480.771,138.798 480.092,138.828 486.135 C 138.850 490.593,138.934 491.204,139.526 491.232 C 139.943 491.251,140.009 491.340,139.700 491.465 C 139.119 491.699,138.995 495.600,139.568 495.600 C 139.771 495.600,140.055 496.140,140.200 496.800 C 140.345 497.460,140.704 498.000,140.998 498.000 C 141.293 498.000,141.608 498.225,141.700 498.500 C 141.812 498.838,142.795 499.000,144.732 499.000 C 146.758 499.000,147.598 499.147,147.599 499.500 C 147.600 499.775,147.780 500.000,148.000 500.000 C 148.220 500.000,148.400 500.797,148.400 501.771 C 148.400 503.121,148.566 503.585,149.100 503.724 C 149.767 503.898,149.767 503.909,149.100 503.954 C 148.186 504.014,148.088 506.400,149.000 506.400 C 149.330 506.400,149.600 506.580,149.600 506.800 C 149.600 507.020,149.420 507.200,149.200 507.200 C 148.571 507.200,148.733 508.289,149.400 508.545 C 149.730 508.671,150.270 508.671,150.600 508.545 C 150.980 508.399,151.200 508.550,151.200 508.957 C 151.200 509.888,153.480 509.836,153.724 508.900 C 153.898 508.233,153.909 508.233,153.954 508.900 C 153.990 509.449,154.368 509.601,155.700 509.606 C 157.493 509.613,159.026 510.288,158.100 510.664 C 157.483 510.914,157.387 517.200,158.000 517.200 C 158.220 517.200,158.400 517.456,158.400 517.768 C 158.400 518.560,160.290 518.892,163.913 518.739 L 167.000 518.608 167.128 520.397 C 167.198 521.382,167.468 522.339,167.728 522.524 C 168.087 522.780,168.080 522.909,167.700 523.064 C 166.917 523.381,167.077 525.509,167.900 525.724 C 168.567 525.898,168.567 525.909,167.900 525.954 C 167.014 526.012,167.010 526.569,167.889 527.595 C 168.700 528.543,169.600 528.651,169.600 527.800 C 169.600 527.470,169.780 527.200,170.000 527.200 C 170.220 527.200,170.400 527.457,170.400 527.770 C 170.400 528.212,171.085 528.344,173.453 528.356 C 177.155 528.375,176.752 527.882,176.849 532.517 C 176.913 535.582,177.050 536.400,177.502 536.400 C 177.817 536.400,178.170 536.763,178.286 537.208 C 178.423 537.732,178.796 537.991,179.349 537.945 C 179.817 537.907,181.595 537.904,183.300 537.938 L 186.400 538.000 186.400 540.400 L 186.400 542.800 200.400 542.800 L 214.400 542.800 214.400 540.400 L 214.400 538.000 216.171 538.000 C 217.521 538.000,217.985 537.834,218.124 537.300 C 218.298 536.633,218.309 536.633,218.354 537.300 C 218.414 538.214,220.800 538.312,220.800 537.400 C 220.800 537.070,220.980 536.800,221.200 536.800 C 221.420 536.800,221.600 536.980,221.600 537.200 C 221.600 537.420,221.858 537.600,222.173 537.600 C 222.815 537.600,223.386 536.225,223.002 535.604 C 222.865 535.382,223.033 535.200,223.376 535.200 C 223.803 535.200,224.000 534.820,224.000 534.000 C 224.000 533.200,223.800 532.800,223.400 532.800 C 223.070 532.800,222.800 532.620,222.800 532.400 C 222.800 532.180,223.070 532.000,223.400 532.000 C 223.835 532.000,224.008 531.532,224.028 530.300 C 224.058 528.490,224.716 526.243,224.772 527.759 C 224.814 528.890,230.771 528.429,232.000 527.200 C 233.230 525.970,233.671 520.172,232.556 519.887 C 231.834 519.701,231.833 519.691,232.543 519.646 C 233.018 519.617,233.205 519.391,233.063 519.020 C 232.915 518.633,233.033 518.515,233.420 518.663 C 233.739 518.786,234.000 518.731,234.001 518.543 C 234.002 518.354,235.292 518.200,236.868 518.200 C 238.805 518.200,239.788 518.038,239.900 517.700 C 239.992 517.425,240.307 517.200,240.602 517.200 C 240.896 517.200,241.255 516.660,241.400 516.000 C 241.545 515.340,241.829 514.800,242.032 514.800 C 242.234 514.800,242.400 513.900,242.400 512.800 C 242.400 511.700,242.220 510.800,242.000 510.800 C 241.780 510.800,241.600 510.620,241.600 510.400 C 241.600 510.180,241.870 510.000,242.200 510.000 C 242.701 510.000,242.800 509.178,242.800 505.000 L 242.800 500.000 247.029 500.000 C 252.435 500.000,252.340 500.094,252.486 494.548 L 252.600 490.210 255.687 490.340 C 259.312 490.492,261.200 490.159,261.200 489.368 C 261.200 489.056,261.380 488.800,261.600 488.800 C 261.835 488.800,262.000 487.400,262.000 485.400 C 262.000 483.249,261.843 482.000,261.571 482.000 C 261.336 482.000,261.426 481.717,261.771 481.371 C 262.117 481.026,262.400 480.486,262.400 480.171 C 262.400 479.857,262.580 479.600,262.800 479.600 C 263.020 479.600,263.200 479.896,263.200 480.259 C 263.200 480.834,263.578 480.885,266.188 480.665 C 269.578 480.378,270.800 479.648,270.800 477.911 C 270.800 477.300,270.980 476.800,271.200 476.800 C 271.967 476.800,271.681 472.480,270.900 472.276 C 270.233 472.102,270.233 472.091,270.900 472.046 C 271.877 471.982,271.976 464.400,271.000 464.400 C 270.670 464.400,270.400 464.220,270.400 464.000 C 270.400 463.780,270.670 463.600,271.000 463.600 C 271.333 463.600,271.600 463.244,271.600 462.800 C 271.600 462.083,271.867 462.000,274.167 462.000 C 275.846 462.000,276.803 461.827,276.935 461.500 C 277.096 461.100,277.143 461.100,277.168 461.500 C 277.188 461.811,277.802 462.000,278.792 462.000 C 280.531 462.000,280.963 461.333,280.771 458.946 C 280.721 458.316,280.707 456.585,280.740 455.100 L 280.800 452.400 281.967 452.400 C 282.608 452.400,283.238 452.175,283.367 451.900 C 283.553 451.500,283.647 451.500,283.833 451.900 C 284.178 452.640,286.800 452.551,286.800 451.800 C 286.800 451.470,286.980 451.200,287.200 451.200 C 287.420 451.200,287.600 451.470,287.600 451.800 C 287.600 452.130,287.870 452.400,288.200 452.400 C 288.530 452.400,288.800 452.136,288.800 451.813 C 288.800 451.422,289.030 451.313,289.487 451.489 C 290.096 451.722,290.107 451.680,289.587 451.120 C 289.182 450.684,288.914 450.626,288.722 450.933 C 288.569 451.177,288.304 451.237,288.133 451.067 C 287.682 450.615,288.761 450.065,289.644 450.296 C 290.144 450.426,290.400 450.284,290.400 449.876 C 290.400 449.536,290.085 449.176,289.700 449.076 C 289.048 448.905,289.048 448.890,289.690 448.846 C 290.278 448.807,290.376 448.373,290.353 445.912 C 290.336 444.156,290.497 442.968,290.763 442.879 C 291.003 442.799,291.214 442.433,291.232 442.067 C 291.251 441.651,291.339 441.588,291.465 441.900 C 291.700 442.483,296.000 442.608,296.000 442.032 C 296.000 441.829,296.528 441.548,297.174 441.406 C 298.056 441.212,298.412 440.856,298.606 439.974 C 298.748 439.328,299.029 438.800,299.232 438.800 C 299.808 438.800,299.683 434.500,299.100 434.265 C 298.783 434.137,298.839 434.052,299.254 434.032 C 299.821 434.004,299.915 433.321,299.959 428.928 C 300.020 422.881,299.482 423.555,304.256 423.545 C 307.593 423.539,308.307 423.422,308.899 422.785 C 309.706 421.919,309.842 419.380,309.100 419.033 C 308.700 418.847,308.700 418.753,309.100 418.567 C 309.401 418.426,309.600 417.549,309.600 416.367 L 309.600 414.400 311.371 414.400 C 312.721 414.400,313.185 414.234,313.324 413.700 C 313.498 413.033,313.509 413.033,313.554 413.700 C 313.613 414.594,316.000 414.715,316.000 413.825 C 316.000 413.445,316.375 413.275,317.100 413.325 C 318.068 413.391,318.191 413.268,318.125 412.300 C 318.075 411.575,318.245 411.200,318.625 411.200 C 319.496 411.200,319.383 408.906,318.500 408.676 C 317.833 408.502,317.833 408.491,318.500 408.446 C 319.137 408.404,319.200 407.801,319.200 401.800 L 319.200 395.200 321.300 395.148 C 322.455 395.120,324.228 395.135,325.239 395.181 C 328.046 395.309,328.360 394.781,328.365 389.924 C 328.368 387.692,328.530 385.761,328.725 385.633 C 328.920 385.505,329.183 385.130,329.308 384.800 C 329.480 384.349,329.545 384.388,329.568 384.959 C 329.615 386.090,335.571 385.629,336.800 384.400 C 338.030 383.170,338.471 377.372,337.356 377.087 C 336.652 376.906,336.650 376.890,337.330 376.846 C 337.868 376.812,338.041 376.511,337.988 375.700 C 337.948 375.095,337.934 372.845,337.958 370.700 L 338.000 366.800 339.767 366.800 C 340.789 366.800,341.632 366.589,341.767 366.300 C 341.953 365.900,342.047 365.900,342.233 366.300 C 342.598 367.081,344.709 366.924,344.924 366.100 C 345.098 365.433,345.109 365.433,345.154 366.100 C 345.212 366.986,345.769 366.990,346.795 366.111 C 347.743 365.300,347.851 364.400,347.000 364.400 C 346.670 364.400,346.400 364.220,346.400 364.000 C 346.400 363.780,346.657 363.600,346.970 363.600 C 347.413 363.600,347.544 362.910,347.556 360.505 C 347.565 358.742,347.751 357.350,347.986 357.271 C 348.214 357.195,348.400 356.923,348.401 356.667 C 348.402 356.358,349.304 356.200,351.068 356.200 C 352.845 356.200,353.789 356.033,353.900 355.700 C 353.992 355.425,354.322 355.200,354.633 355.200 C 354.945 355.200,355.200 354.945,355.200 354.633 C 355.200 354.322,355.425 353.992,355.700 353.900 C 356.038 353.787,356.200 352.804,356.200 350.867 C 356.200 348.840,356.347 348.000,356.700 348.000 C 357.464 348.000,357.295 346.884,356.500 346.676 C 355.833 346.502,355.833 346.491,356.500 346.446 C 357.115 346.406,357.201 345.928,357.205 342.500 C 357.208 340.355,357.319 338.195,357.452 337.700 C 357.731 336.658,358.400 336.488,358.400 337.459 C 358.400 338.034,358.778 338.085,361.388 337.865 C 364.778 337.578,366.000 336.848,366.000 335.111 C 366.000 334.500,366.180 334.000,366.400 334.000 C 367.167 334.000,366.881 329.680,366.100 329.476 C 365.433 329.302,365.433 329.291,366.100 329.246 C 366.727 329.205,366.800 328.678,366.800 324.200 L 366.800 319.200 368.571 319.200 C 369.921 319.200,370.385 319.034,370.524 318.500 C 370.698 317.833,370.709 317.833,370.754 318.500 C 370.817 319.450,373.200 319.505,373.200 318.557 C 373.200 318.150,373.420 317.999,373.800 318.145 C 374.130 318.271,374.670 318.271,375.000 318.145 C 375.667 317.889,375.829 316.800,375.200 316.800 C 374.980 316.800,374.800 316.620,374.800 316.400 C 374.800 316.180,375.070 316.000,375.400 316.000 C 376.293 316.000,376.202 313.712,375.300 313.476 C 374.633 313.302,374.633 313.291,375.300 313.246 C 375.936 313.204,376.000 312.610,376.000 306.771 C 376.000 301.590,376.116 300.226,376.600 299.743 C 376.930 299.413,377.200 299.336,377.200 299.571 C 377.200 299.843,378.449 300.000,380.600 300.000 C 382.600 300.000,384.000 299.835,384.000 299.600 C 384.000 299.380,384.250 299.200,384.557 299.200 C 385.435 299.200,385.566 297.928,385.582 289.221 C 385.590 284.727,385.750 280.948,385.938 280.825 C 386.126 280.701,386.383 280.330,386.508 280.000 C 386.680 279.549,386.745 279.588,386.768 280.159 C 386.815 281.290,392.771 280.829,394.000 279.600 C 395.230 278.370,395.671 272.572,394.556 272.287 C 393.843 272.104,393.842 272.090,394.536 272.046 C 395.143 272.008,395.256 271.703,395.182 270.300 C 395.133 269.365,395.117 264.955,395.146 260.500 L 395.200 252.400 397.600 252.400 L 400.000 252.400 400.000 200.200 L 400.000 148.000 397.600 148.000 C 394.879 148.000,395.014 148.253,395.189 143.500 C 395.258 141.628,395.155 141.200,394.637 141.200 C 394.287 141.200,394.000 141.020,394.000 140.800 C 394.000 140.580,394.274 140.400,394.610 140.400 C 395.577 140.400,395.434 123.326,394.465 123.069 C 393.874 122.912,393.878 122.888,394.500 122.846 C 394.885 122.821,395.200 122.509,395.200 122.153 C 395.200 121.716,394.955 121.571,394.444 121.704 C 393.561 121.935,392.482 121.385,392.933 120.933 C 393.104 120.763,393.369 120.823,393.522 121.067 C 393.714 121.374,393.982 121.316,394.387 120.880 C 394.907 120.320,394.896 120.278,394.287 120.511 C 393.830 120.687,393.600 120.578,393.600 120.187 C 393.600 119.864,393.330 119.600,393.000 119.600 C 392.670 119.600,392.400 119.870,392.400 120.200 C 392.400 120.530,392.220 120.800,392.000 120.800 C 391.780 120.800,391.600 120.530,391.600 120.200 C 391.600 119.449,388.978 119.360,388.633 120.100 C 388.447 120.500,388.353 120.500,388.167 120.100 C 388.038 119.825,387.408 119.600,386.767 119.600 C 385.553 119.600,385.440 119.364,385.584 117.134 C 385.631 116.404,385.425 116.010,384.927 115.881 C 384.253 115.707,384.252 115.689,384.907 115.646 C 385.873 115.583,385.936 103.600,384.970 103.600 C 384.657 103.600,384.400 103.420,384.400 103.200 C 384.400 102.980,384.670 102.800,385.000 102.800 C 385.851 102.800,385.743 101.900,384.795 101.089 C 383.774 100.215,383.306 100.218,383.076 101.100 C 382.902 101.767,382.891 101.767,382.846 101.100 C 382.791 100.268,380.606 100.101,380.233 100.900 C 380.047 101.300,379.953 101.300,379.767 100.900 C 379.632 100.611,378.789 100.400,377.767 100.400 L 376.000 100.400 375.989 95.500 C 375.957 80.591,376.396 81.817,371.067 81.746 L 367.000 81.692 366.880 78.957 C 366.811 77.392,366.554 76.092,366.280 75.917 C 365.913 75.684,365.918 75.611,366.300 75.606 C 366.992 75.598,366.937 73.280,366.229 72.571 C 365.524 71.867,363.351 71.819,363.033 72.500 C 362.847 72.900,362.753 72.900,362.567 72.500 C 362.412 72.168,361.302 71.989,359.267 71.968 C 357.580 71.951,356.425 71.846,356.700 71.735 C 357.044 71.596,357.200 70.492,357.200 68.200 C 357.200 65.908,357.044 64.804,356.700 64.665 C 356.300 64.504,356.300 64.457,356.700 64.432 C 356.982 64.414,357.200 63.876,357.200 63.200 C 357.200 62.507,356.989 62.000,356.700 62.000 C 356.347 62.000,356.200 61.160,356.200 59.133 C 356.200 57.196,356.038 56.213,355.700 56.100 C 355.425 56.008,355.200 55.678,355.200 55.367 C 355.200 55.055,354.945 54.800,354.633 54.800 C 354.322 54.800,353.992 54.575,353.900 54.300 C 353.789 53.967,352.845 53.800,351.068 53.800 C 349.225 53.800,348.402 53.648,348.401 53.308 C 348.400 53.037,347.950 52.702,347.400 52.564 C 346.434 52.322,345.985 51.600,346.800 51.600 C 347.020 51.600,347.200 50.700,347.200 49.600 C 347.200 48.500,347.034 47.600,346.832 47.600 C 346.629 47.600,346.348 47.072,346.206 46.426 C 346.012 45.544,345.656 45.188,344.774 44.994 C 344.128 44.852,343.600 44.571,343.600 44.368 C 343.600 43.792,339.300 43.917,339.065 44.500 C 338.911 44.881,338.856 44.875,338.832 44.471 C 338.795 43.851,338.032 43.025,337.193 42.696 C 336.820 42.550,336.786 42.451,337.100 42.432 C 337.689 42.394,337.820 38.000,337.232 38.000 C 337.029 38.000,336.748 37.472,336.606 36.826 C 336.412 35.944,336.056 35.588,335.174 35.394 C 334.528 35.252,334.000 34.971,334.000 34.768 C 334.000 34.192,329.700 34.317,329.465 34.900 C 329.349 35.188,329.250 35.090,329.232 34.670 C 329.206 34.071,328.894 33.952,327.500 34.007 C 326.565 34.044,324.315 34.057,322.500 34.037 L 319.200 34.000 319.200 32.233 C 319.200 31.211,318.989 30.368,318.700 30.233 C 318.300 30.047,318.300 29.953,318.700 29.767 C 319.481 29.402,319.324 27.291,318.500 27.076 C 317.833 26.902,317.833 26.891,318.500 26.846 C 319.386 26.788,319.390 26.231,318.511 25.205 C 317.700 24.257,316.800 24.149,316.800 25.000 C 316.800 25.330,316.620 25.600,316.400 25.600 C 316.180 25.600,316.000 25.343,316.000 25.028 C 316.000 24.588,315.364 24.454,313.246 24.447 C 308.602 24.432,308.600 24.431,308.600 21.115 C 308.600 19.192,308.438 18.213,308.100 18.100 C 307.825 18.008,307.600 17.678,307.600 17.367 C 307.600 17.055,307.345 16.800,307.033 16.800 C 306.722 16.800,306.392 16.575,306.300 16.300 C 306.187 15.962,305.204 15.800,303.267 15.800 C 301.240 15.800,300.400 15.653,300.400 15.300 C 300.400 14.638,297.732 14.638,297.465 15.300 C 297.304 15.700,297.257 15.700,297.232 15.300 C 297.209 14.946,296.293 14.798,294.100 14.795 C 292.395 14.792,290.595 14.681,290.100 14.548 C 289.058 14.269,288.888 13.600,289.859 13.600 C 290.434 13.600,290.485 13.222,290.265 10.612 C 289.978 7.222,289.248 6.000,287.511 6.000 C 286.900 6.000,286.400 5.820,286.400 5.600 C 286.400 4.833,282.080 5.119,281.876 5.900 C 281.702 6.567,281.691 6.567,281.646 5.900 C 281.590 5.055,278.597 4.878,278.265 5.700 C 278.104 6.100,278.057 6.100,278.032 5.700 C 277.975 4.810,267.310 5.005,267.076 5.900 C 266.902 6.567,266.891 6.567,266.846 5.900 C 266.791 5.068,264.606 4.901,264.233 5.700 C 264.047 6.100,263.953 6.100,263.767 5.700 C 263.638 5.425,263.188 5.200,262.767 5.200 C 262.090 5.200,262.000 4.896,262.000 2.600 L 262.000 0.000 200.600 0.000 L 139.200 0.000 139.194 2.500 C 139.188 5.014,138.719 6.471,138.122 5.834 C 137.945 5.645,138.025 5.410,138.300 5.312 C 138.629 5.194,138.800 4.258,138.800 2.567 L 138.800 0.000 134.000 0.000 L 129.200 0.000 129.200 2.600 M279.508 14.075 C 279.261 14.817,278.400 14.940,278.400 14.233 C 278.400 13.885,278.685 13.600,279.033 13.600 C 279.382 13.600,279.595 13.814,279.508 14.075 M282.806 15.300 C 282.810 15.639,282.932 15.610,283.184 15.212 C 283.389 14.888,283.696 14.763,283.867 14.933 C 284.282 15.349,283.214 15.980,282.536 15.720 C 281.913 15.481,281.812 14.800,282.400 14.800 C 282.620 14.800,282.803 15.025,282.806 15.300 M307.600 25.200 C 307.600 25.420,307.330 25.600,307.000 25.600 C 306.670 25.600,306.400 25.420,306.400 25.200 C 306.400 24.980,306.670 24.800,307.000 24.800 C 307.330 24.800,307.600 24.980,307.600 25.200 M81.600 34.600 C 81.600 34.930,81.420 35.200,81.200 35.200 C 80.980 35.200,80.800 34.930,80.800 34.600 C 80.800 34.270,80.980 34.000,81.200 34.000 C 81.420 34.000,81.600 34.270,81.600 34.600 M35.200 81.200 C 35.200 81.420,34.930 81.600,34.600 81.600 C 34.270 81.600,34.000 81.420,34.000 81.200 C 34.000 80.980,34.270 80.800,34.600 80.800 C 34.930 80.800,35.200 80.980,35.200 81.200 M205.600 100.437 C 206.052 100.756,206.076 100.911,205.700 101.064 C 205.083 101.314,204.987 107.600,205.600 107.600 C 205.820 107.600,206.000 107.870,206.000 108.200 C 206.000 108.530,206.270 108.800,206.600 108.800 C 206.930 108.800,207.200 108.980,207.200 109.200 C 207.200 109.812,213.479 109.716,213.767 109.100 C 213.953 108.700,214.047 108.700,214.233 109.100 C 214.410 109.479,216.755 109.601,223.933 109.605 C 229.140 109.608,233.805 109.719,234.300 109.852 C 235.342 110.131,235.512 110.800,234.541 110.800 C 233.966 110.800,233.915 111.178,234.135 113.788 C 234.422 117.178,235.152 118.400,236.889 118.400 C 237.500 118.400,238.000 118.580,238.000 118.800 C 238.000 119.580,242.394 119.283,242.446 118.500 C 242.491 117.833,242.502 117.833,242.676 118.500 C 242.838 119.119,243.432 119.200,247.829 119.200 L 252.800 119.200 252.800 121.000 C 252.800 122.156,252.979 122.811,253.300 122.832 C 253.700 122.857,253.700 122.904,253.300 123.065 C 252.498 123.389,252.669 125.591,253.500 125.646 C 254.167 125.691,254.167 125.702,253.500 125.876 C 252.618 126.106,252.615 126.574,253.489 127.595 C 254.300 128.543,255.200 128.651,255.200 127.800 C 255.200 127.470,255.380 127.200,255.600 127.200 C 255.820 127.200,256.000 127.484,256.000 127.831 C 256.000 128.290,256.353 128.442,257.300 128.390 C 261.640 128.153,262.400 128.328,262.400 129.567 C 262.400 130.208,262.625 130.838,262.900 130.967 C 263.300 131.153,263.300 131.247,262.900 131.433 C 262.160 131.778,262.249 134.400,263.000 134.400 C 263.330 134.400,263.600 134.580,263.600 134.800 C 263.600 135.020,263.330 135.200,263.000 135.200 C 262.670 135.200,262.400 135.470,262.400 135.800 C 262.400 136.130,262.664 136.400,262.987 136.400 C 263.378 136.400,263.487 136.630,263.311 137.087 C 263.078 137.696,263.120 137.707,263.680 137.187 C 264.116 136.782,264.174 136.514,263.867 136.322 C 263.623 136.169,263.563 135.904,263.733 135.733 C 264.185 135.282,264.735 136.361,264.504 137.244 C 264.371 137.755,264.516 138.000,264.953 138.000 C 265.309 138.000,265.621 137.685,265.646 137.300 C 265.689 136.663,265.710 136.665,265.881 137.328 C 266.029 137.900,266.427 138.042,267.735 137.991 C 268.651 137.955,269.985 137.943,270.700 137.963 L 272.000 138.000 272.000 140.200 C 272.000 141.676,272.164 142.410,272.500 142.432 C 272.900 142.457,272.900 142.504,272.500 142.665 C 271.763 142.962,271.884 145.856,272.672 146.776 C 273.256 147.457,273.868 147.561,277.324 147.565 C 282.201 147.571,281.654 146.557,281.637 155.559 C 281.624 162.510,281.685 163.204,282.311 163.246 C 282.951 163.289,282.950 163.306,282.300 163.476 C 281.915 163.576,281.600 163.936,281.600 164.276 C 281.600 164.684,281.856 164.826,282.356 164.696 C 283.239 164.465,284.318 165.015,283.867 165.467 C 283.696 165.637,283.431 165.577,283.278 165.333 C 283.086 165.026,282.818 165.084,282.413 165.520 C 281.893 166.080,281.904 166.122,282.513 165.889 C 282.970 165.713,283.200 165.822,283.200 166.213 C 283.200 166.536,283.470 166.800,283.800 166.800 C 284.130 166.800,284.400 166.530,284.400 166.200 C 284.400 165.870,284.580 165.600,284.800 165.600 C 285.020 165.600,285.200 165.870,285.200 166.200 C 285.200 166.951,287.822 167.040,288.167 166.300 C 288.353 165.900,288.447 165.900,288.633 166.300 C 288.762 166.575,289.392 166.800,290.033 166.800 C 291.292 166.800,291.480 167.737,291.218 172.700 C 291.144 174.103,291.257 174.408,291.864 174.446 C 292.545 174.489,292.547 174.507,291.891 174.677 C 291.221 174.852,291.188 176.208,291.291 199.631 C 291.377 219.238,291.296 224.400,290.900 224.400 C 290.625 224.400,290.386 224.715,290.368 225.100 C 290.350 225.518,290.256 225.599,290.135 225.300 C 289.900 224.717,285.600 224.592,285.600 225.168 C 285.600 225.371,285.072 225.652,284.426 225.794 C 283.544 225.988,283.188 226.344,282.994 227.226 C 282.852 227.872,282.571 228.400,282.368 228.400 C 281.792 228.400,281.917 232.700,282.500 232.935 C 282.799 233.056,282.718 233.150,282.300 233.168 C 281.449 233.207,281.352 234.400,282.200 234.400 C 282.530 234.400,282.800 234.580,282.800 234.800 C 282.800 235.020,282.530 235.200,282.200 235.200 C 281.705 235.200,281.600 235.933,281.600 239.400 C 281.600 241.933,281.441 243.600,281.200 243.600 C 280.980 243.600,280.786 243.915,280.768 244.300 C 280.750 244.718,280.656 244.799,280.535 244.500 C 280.293 243.901,276.000 243.799,276.000 244.392 C 276.000 244.608,275.550 244.898,275.000 245.036 C 274.450 245.174,274.000 245.522,274.000 245.810 C 274.000 246.098,273.775 246.408,273.500 246.500 C 273.162 246.613,273.000 247.596,273.000 249.533 C 273.000 251.560,272.853 252.400,272.500 252.400 C 272.211 252.400,272.000 252.907,272.000 253.600 C 272.000 254.276,272.218 254.814,272.500 254.832 C 272.900 254.857,272.900 254.904,272.500 255.065 C 272.156 255.204,272.000 256.308,272.000 258.600 C 272.000 260.892,272.156 261.996,272.500 262.135 C 272.775 262.246,271.425 262.351,269.500 262.368 C 267.002 262.391,265.991 262.543,265.968 262.900 C 265.943 263.300,265.896 263.300,265.735 262.900 C 265.451 262.197,264.400 262.275,264.400 263.000 C 264.400 263.758,263.702 263.790,263.529 263.039 C 263.418 262.558,263.327 262.558,262.884 263.039 C 262.460 263.501,262.477 263.600,262.984 263.600 C 263.323 263.600,263.600 263.780,263.600 264.000 C 263.600 264.220,263.330 264.400,263.000 264.400 C 262.280 264.400,262.183 265.586,262.900 265.632 C 263.300 265.657,263.300 265.704,262.900 265.865 C 262.561 266.002,262.400 267.054,262.400 269.133 L 262.401 272.200 257.400 272.109 C 253.217 272.034,252.400 272.115,252.400 272.609 C 252.400 272.934,252.220 273.200,252.000 273.200 C 251.780 273.200,251.600 273.020,251.600 272.800 C 251.600 272.580,250.700 272.400,249.600 272.400 C 248.500 272.400,247.600 272.566,247.600 272.768 C 247.600 272.971,247.072 273.252,246.426 273.394 C 245.544 273.588,245.188 273.944,244.994 274.826 C 244.852 275.472,244.571 276.000,244.368 276.000 C 243.792 276.000,243.917 280.300,244.500 280.535 C 244.799 280.656,244.718 280.750,244.300 280.768 C 243.915 280.786,243.600 280.980,243.600 281.200 C 243.600 281.441,241.933 281.600,239.400 281.600 C 235.933 281.600,235.200 281.705,235.200 282.200 C 235.200 282.530,235.020 282.800,234.800 282.800 C 234.580 282.800,234.400 282.530,234.400 282.200 C 234.400 281.352,233.207 281.449,233.168 282.300 C 233.150 282.718,233.056 282.799,232.935 282.500 C 232.700 281.917,228.400 281.792,228.400 282.368 C 228.400 282.571,227.872 282.852,227.226 282.994 C 226.344 283.188,225.988 283.544,225.794 284.426 C 225.652 285.072,225.371 285.600,225.168 285.600 C 224.592 285.600,224.717 289.900,225.300 290.135 C 225.599 290.256,225.518 290.350,225.100 290.368 C 224.715 290.386,224.400 290.625,224.400 290.900 C 224.400 291.296,218.430 291.378,195.600 291.295 L 166.800 291.190 166.800 290.028 C 166.800 289.389,166.575 288.762,166.300 288.633 C 165.900 288.447,165.900 288.353,166.300 288.167 C 167.040 287.822,166.951 285.200,166.200 285.200 C 165.870 285.200,165.600 285.020,165.600 284.800 C 165.600 284.580,165.870 284.400,166.200 284.400 C 166.530 284.400,166.800 284.130,166.800 283.800 C 166.800 283.470,166.536 283.200,166.213 283.200 C 165.822 283.200,165.713 282.970,165.889 282.513 C 166.122 281.904,166.080 281.893,165.520 282.413 C 165.084 282.818,165.026 283.086,165.333 283.278 C 165.577 283.431,165.637 283.696,165.467 283.867 C 165.015 284.318,164.465 283.239,164.696 282.356 C 164.829 281.845,164.684 281.600,164.247 281.600 C 163.891 281.600,163.579 281.915,163.554 282.300 C 163.510 282.959,163.497 282.960,163.325 282.306 C 163.161 281.676,162.438 281.615,155.546 281.646 C 146.593 281.687,147.571 282.225,147.565 277.261 C 147.559 272.024,147.576 272.041,142.339 272.035 C 137.527 272.029,137.921 272.316,137.953 268.830 C 137.976 266.424,137.876 265.993,137.290 265.954 C 136.648 265.910,136.648 265.895,137.300 265.724 C 137.685 265.624,138.000 265.264,138.000 264.924 C 138.000 264.516,137.744 264.374,137.244 264.504 C 136.361 264.735,135.282 264.185,135.733 263.733 C 135.904 263.563,136.169 263.623,136.322 263.867 C 136.514 264.174,136.782 264.116,137.187 263.680 C 137.707 263.120,137.696 263.078,137.087 263.311 C 136.630 263.487,136.400 263.378,136.400 262.987 C 136.400 262.664,136.130 262.400,135.800 262.400 C 135.470 262.400,135.200 262.670,135.200 263.000 C 135.200 263.330,135.020 263.600,134.800 263.600 C 134.580 263.600,134.400 263.330,134.400 263.000 C 134.400 262.249,131.778 262.160,131.433 262.900 C 131.247 263.300,131.153 263.300,130.967 262.900 C 130.838 262.625,130.208 262.400,129.567 262.400 C 128.328 262.400,128.153 261.640,128.390 257.300 C 128.442 256.353,128.290 256.000,127.831 256.000 C 127.484 256.000,127.200 255.820,127.200 255.600 C 127.200 255.380,127.470 255.200,127.800 255.200 C 128.651 255.200,128.543 254.300,127.595 253.489 C 126.569 252.610,126.012 252.614,125.954 253.500 C 125.909 254.167,125.898 254.167,125.724 253.500 C 125.510 252.680,123.219 252.500,123.168 253.300 C 123.143 253.700,123.096 253.700,122.935 253.300 C 122.816 253.006,122.006 252.800,120.967 252.800 L 119.200 252.800 119.200 247.800 C 119.200 243.322,119.127 242.795,118.500 242.754 C 117.833 242.709,117.833 242.698,118.500 242.524 C 119.281 242.320,119.567 238.000,118.800 238.000 C 118.580 238.000,118.400 237.500,118.400 236.889 C 118.400 235.152,117.178 234.422,113.788 234.135 C 111.178 233.915,110.800 233.966,110.800 234.541 C 110.800 235.512,110.131 235.342,109.852 234.300 C 109.719 233.805,109.608 229.140,109.605 223.933 C 109.601 216.755,109.479 214.410,109.100 214.233 C 108.700 214.047,108.700 213.953,109.100 213.767 C 109.716 213.479,109.812 207.200,109.200 207.200 C 108.980 207.200,108.800 206.930,108.800 206.600 C 108.800 206.270,108.530 206.000,108.200 206.000 C 107.870 206.000,107.600 205.820,107.600 205.600 C 107.600 204.987,101.314 205.083,101.064 205.700 C 100.248 207.710,99.497 197.717,100.252 194.900 C 100.531 193.858,101.200 193.688,101.200 194.659 C 101.200 195.234,101.578 195.285,104.188 195.065 C 107.578 194.778,108.800 194.048,108.800 192.311 C 108.800 191.700,108.980 191.200,109.200 191.200 C 109.980 191.200,109.683 186.806,108.900 186.754 C 108.233 186.709,108.233 186.698,108.900 186.524 C 109.702 186.315,109.994 178.000,109.200 178.000 C 108.980 178.000,108.800 177.730,108.800 177.400 C 108.800 177.070,108.980 176.800,109.200 176.800 C 109.837 176.800,109.737 160.009,109.100 159.968 C 108.700 159.943,108.700 159.896,109.100 159.735 C 109.375 159.624,109.600 159.008,109.600 158.367 C 109.600 157.236,109.661 157.200,111.567 157.200 C 112.749 157.200,113.626 157.001,113.767 156.700 C 113.953 156.300,114.047 156.300,114.233 156.700 C 114.615 157.518,117.489 157.311,118.400 156.400 C 119.311 155.489,119.518 152.615,118.700 152.233 C 118.300 152.047,118.300 151.953,118.700 151.767 C 118.981 151.635,119.202 150.804,119.205 149.867 C 119.212 147.857,119.566 146.400,120.047 146.400 C 120.241 146.400,120.400 146.696,120.400 147.059 C 120.400 148.083,126.072 147.528,127.208 146.392 C 128.430 145.170,128.883 139.222,127.759 139.154 C 127.050 139.110,127.048 139.095,127.729 138.919 C 128.143 138.812,128.368 138.495,128.250 138.185 C 128.115 137.833,128.245 137.719,128.620 137.863 C 128.993 138.006,129.211 137.821,129.232 137.343 C 129.249 136.922,129.351 136.817,129.465 137.100 C 129.700 137.683,134.000 137.808,134.000 137.232 C 134.000 137.029,134.528 136.748,135.174 136.606 C 136.056 136.412,136.412 136.056,136.606 135.174 C 136.748 134.528,137.029 134.000,137.232 134.000 C 137.808 134.000,137.683 129.700,137.100 129.465 C 136.817 129.351,136.922 129.249,137.343 129.232 C 137.821 129.211,138.006 128.993,137.863 128.620 C 137.715 128.233,137.833 128.115,138.220 128.263 C 138.591 128.405,138.817 128.218,138.846 127.743 C 138.891 127.033,138.901 127.034,139.087 127.756 C 139.371 128.866,145.169 128.431,146.392 127.208 C 147.528 126.072,148.083 120.400,147.059 120.400 C 146.088 120.400,146.258 119.731,147.300 119.452 C 147.795 119.319,149.968 119.208,152.129 119.205 C 157.236 119.198,157.200 119.236,157.200 113.829 L 157.200 109.600 158.400 109.600 C 159.076 109.600,159.614 109.382,159.632 109.100 C 159.657 108.700,159.704 108.700,159.865 109.100 C 160.121 109.735,176.800 109.834,176.800 109.200 C 176.800 108.980,177.070 108.800,177.400 108.800 C 177.730 108.800,178.000 108.980,178.000 109.200 C 178.000 110.001,186.393 109.703,186.446 108.900 C 186.491 108.233,186.502 108.233,186.676 108.900 C 186.880 109.681,191.200 109.967,191.200 109.200 C 191.200 108.980,191.700 108.800,192.311 108.800 C 194.048 108.800,194.778 107.578,195.065 104.188 C 195.285 101.578,195.234 101.200,194.659 101.200 C 193.783 101.200,193.814 100.507,194.700 100.276 C 196.163 99.893,205.017 100.024,205.600 100.437 M14.400 279.000 C 14.400 279.330,14.220 279.600,14.000 279.600 C 13.780 279.600,13.600 279.330,13.600 279.000 C 13.600 278.670,13.780 278.400,14.000 278.400 C 14.220 278.400,14.400 278.670,14.400 279.000 M15.720 282.536 C 15.980 283.214,15.349 284.282,14.933 283.867 C 14.763 283.696,14.888 283.389,15.212 283.184 C 15.610 282.932,15.639 282.810,15.300 282.806 C 15.025 282.803,14.800 282.620,14.800 282.400 C 14.800 281.812,15.481 281.913,15.720 282.536 M236.800 283.600 C 236.800 283.820,236.530 284.000,236.200 284.000 C 235.870 284.000,235.600 283.820,235.600 283.600 C 235.600 283.380,235.870 283.200,236.200 283.200 C 236.530 283.200,236.800 283.380,236.800 283.600 M25.400 302.000 C 25.400 302.293,25.130 302.607,24.800 302.697 C 24.267 302.843,24.267 302.813,24.800 302.430 C 25.333 302.048,25.333 301.952,24.800 301.570 C 24.267 301.187,24.267 301.157,24.800 301.303 C 25.130 301.393,25.400 301.707,25.400 302.000 M176.892 537.275 C 177.139 538.017,178.000 538.140,178.000 537.433 C 178.000 537.085,177.715 536.800,177.367 536.800 C 177.018 536.800,176.805 537.014,176.892 537.275 " stroke="none" fill="#8c949c" fill-rule="evenodd"></path><path id="path1" d="M138.800 2.567 C 138.800 4.258,138.629 5.194,138.300 5.312 C 138.025 5.410,137.945 5.645,138.122 5.834 C 138.719 6.471,139.188 5.014,139.194 2.500 C 139.197 1.125,139.110 0.000,139.000 0.000 C 138.890 0.000,138.800 1.155,138.800 2.567 M278.400 14.233 C 278.400 14.940,279.261 14.817,279.508 14.075 C 279.595 13.814,279.382 13.600,279.033 13.600 C 278.685 13.600,278.400 13.885,278.400 14.233 M289.200 14.000 C 289.200 14.220,289.470 14.400,289.800 14.400 C 290.130 14.400,290.400 14.220,290.400 14.000 C 290.400 13.780,290.130 13.600,289.800 13.600 C 289.470 13.600,289.200 13.780,289.200 14.000 M282.000 15.157 C 282.000 15.703,283.005 15.968,283.625 15.585 C 283.928 15.397,284.037 15.104,283.867 14.933 C 283.696 14.763,283.389 14.888,283.184 15.212 C 282.932 15.610,282.810 15.639,282.806 15.300 C 282.803 15.025,282.620 14.800,282.400 14.800 C 282.180 14.800,282.000 14.961,282.000 15.157 M316.000 25.000 C 316.000 25.330,316.180 25.600,316.400 25.600 C 316.620 25.600,316.800 25.330,316.800 25.000 C 316.800 24.670,316.620 24.400,316.400 24.400 C 316.180 24.400,316.000 24.670,316.000 25.000 M306.400 25.200 C 306.400 25.420,306.670 25.600,307.000 25.600 C 307.330 25.600,307.600 25.420,307.600 25.200 C 307.600 24.980,307.330 24.800,307.000 24.800 C 306.670 24.800,306.400 24.980,306.400 25.200 M80.800 34.600 C 80.800 34.930,80.980 35.200,81.200 35.200 C 81.420 35.200,81.600 34.930,81.600 34.600 C 81.600 34.270,81.420 34.000,81.200 34.000 C 80.980 34.000,80.800 34.270,80.800 34.600 M62.400 39.600 C 62.400 39.820,62.670 40.000,63.000 40.000 C 63.330 40.000,63.600 39.820,63.600 39.600 C 63.600 39.380,63.330 39.200,63.000 39.200 C 62.670 39.200,62.400 39.380,62.400 39.600 M53.880 44.536 C 53.548 45.401,54.306 46.346,54.763 45.636 C 55.151 45.034,54.921 44.000,54.400 44.000 C 54.227 44.000,53.993 44.241,53.880 44.536 M52.800 46.800 C 52.800 47.020,53.070 47.200,53.400 47.200 C 53.730 47.200,54.000 47.020,54.000 46.800 C 54.000 46.580,53.730 46.400,53.400 46.400 C 53.070 46.400,52.800 46.580,52.800 46.800 M46.400 53.400 C 46.400 53.730,46.580 54.000,46.800 54.000 C 47.020 54.000,47.200 53.730,47.200 53.400 C 47.200 53.070,47.020 52.800,46.800 52.800 C 46.580 52.800,46.400 53.070,46.400 53.400 M44.364 54.037 C 43.879 54.349,43.879 54.451,44.364 54.763 C 44.966 55.151,46.000 54.921,46.000 54.400 C 46.000 53.879,44.966 53.649,44.364 54.037 M39.200 63.000 C 39.200 63.330,39.380 63.600,39.600 63.600 C 39.820 63.600,40.000 63.330,40.000 63.000 C 40.000 62.670,39.820 62.400,39.600 62.400 C 39.380 62.400,39.200 62.670,39.200 63.000 M34.000 81.200 C 34.000 81.420,34.270 81.600,34.600 81.600 C 34.930 81.600,35.200 81.420,35.200 81.200 C 35.200 80.980,34.930 80.800,34.600 80.800 C 34.270 80.800,34.000 80.980,34.000 81.200 M194.000 100.800 C 194.000 101.020,194.270 101.200,194.600 101.200 C 194.930 101.200,195.200 101.020,195.200 100.800 C 195.200 100.580,194.930 100.400,194.600 100.400 C 194.270 100.400,194.000 100.580,194.000 100.800 M384.400 103.200 C 384.400 103.420,384.670 103.600,385.000 103.600 C 385.330 103.600,385.600 103.420,385.600 103.200 C 385.600 102.980,385.330 102.800,385.000 102.800 C 384.670 102.800,384.400 102.980,384.400 103.200 M176.800 109.200 C 176.800 109.420,177.070 109.600,177.400 109.600 C 177.730 109.600,178.000 109.420,178.000 109.200 C 178.000 108.980,177.730 108.800,177.400 108.800 C 177.070 108.800,176.800 108.980,176.800 109.200 M234.000 110.400 C 234.000 110.620,234.270 110.800,234.600 110.800 C 234.930 110.800,235.200 110.620,235.200 110.400 C 235.200 110.180,234.930 110.000,234.600 110.000 C 234.270 110.000,234.000 110.180,234.000 110.400 M146.400 120.000 C 146.400 120.220,146.670 120.400,147.000 120.400 C 147.330 120.400,147.600 120.220,147.600 120.000 C 147.600 119.780,147.330 119.600,147.000 119.600 C 146.670 119.600,146.400 119.780,146.400 120.000 M391.600 120.200 C 391.600 120.530,391.780 120.800,392.000 120.800 C 392.220 120.800,392.400 120.530,392.400 120.200 C 392.400 119.870,392.220 119.600,392.000 119.600 C 391.780 119.600,391.600 119.870,391.600 120.200 M393.164 120.837 C 392.679 121.149,392.679 121.251,393.164 121.563 C 393.766 121.951,394.800 121.721,394.800 121.200 C 394.800 120.679,393.766 120.449,393.164 120.837 M255.200 127.800 C 255.200 128.130,255.380 128.400,255.600 128.400 C 255.820 128.400,256.000 128.130,256.000 127.800 C 256.000 127.470,255.820 127.200,255.600 127.200 C 255.380 127.200,255.200 127.470,255.200 127.800 M262.400 134.800 C 262.400 135.020,262.670 135.200,263.000 135.200 C 263.330 135.200,263.600 135.020,263.600 134.800 C 263.600 134.580,263.330 134.400,263.000 134.400 C 262.670 134.400,262.400 134.580,262.400 134.800 M263.480 136.136 C 263.148 137.001,263.906 137.946,264.363 137.236 C 264.751 136.634,264.521 135.600,264.000 135.600 C 263.827 135.600,263.593 135.841,263.480 136.136 M394.000 140.800 C 394.000 141.020,394.270 141.200,394.600 141.200 C 394.930 141.200,395.200 141.020,395.200 140.800 C 395.200 140.580,394.930 140.400,394.600 140.400 C 394.270 140.400,394.000 140.580,394.000 140.800 M119.600 147.000 C 119.600 147.330,119.780 147.600,120.000 147.600 C 120.220 147.600,120.400 147.330,120.400 147.000 C 120.400 146.670,120.220 146.400,120.000 146.400 C 119.780 146.400,119.600 146.670,119.600 147.000 M282.364 164.837 C 281.879 165.149,281.879 165.251,282.364 165.563 C 282.966 165.951,284.000 165.721,284.000 165.200 C 284.000 164.679,282.966 164.449,282.364 164.837 M284.400 166.200 C 284.400 166.530,284.580 166.800,284.800 166.800 C 285.020 166.800,285.200 166.530,285.200 166.200 C 285.200 165.870,285.020 165.600,284.800 165.600 C 284.580 165.600,284.400 165.870,284.400 166.200 M108.800 177.400 C 108.800 177.730,108.980 178.000,109.200 178.000 C 109.420 178.000,109.600 177.730,109.600 177.400 C 109.600 177.070,109.420 176.800,109.200 176.800 C 108.980 176.800,108.800 177.070,108.800 177.400 M100.400 194.600 C 100.400 194.930,100.580 195.200,100.800 195.200 C 101.020 195.200,101.200 194.930,101.200 194.600 C 101.200 194.270,101.020 194.000,100.800 194.000 C 100.580 194.000,100.400 194.270,100.400 194.600 M110.000 234.600 C 110.000 234.930,110.180 235.200,110.400 235.200 C 110.620 235.200,110.800 234.930,110.800 234.600 C 110.800 234.270,110.620 234.000,110.400 234.000 C 110.180 234.000,110.000 234.270,110.000 234.600 M281.600 234.800 C 281.600 235.020,281.870 235.200,282.200 235.200 C 282.530 235.200,282.800 235.020,282.800 234.800 C 282.800 234.580,282.530 234.400,282.200 234.400 C 281.870 234.400,281.600 234.580,281.600 234.800 M127.200 255.600 C 127.200 255.820,127.470 256.000,127.800 256.000 C 128.130 256.000,128.400 255.820,128.400 255.600 C 128.400 255.380,128.130 255.200,127.800 255.200 C 127.470 255.200,127.200 255.380,127.200 255.600 M134.400 263.000 C 134.400 263.330,134.580 263.600,134.800 263.600 C 135.020 263.600,135.200 263.330,135.200 263.000 C 135.200 262.670,135.020 262.400,134.800 262.400 C 134.580 262.400,134.400 262.670,134.400 263.000 M263.600 263.000 C 263.600 263.330,263.330 263.600,263.000 263.600 C 262.670 263.600,262.400 263.780,262.400 264.000 C 262.400 264.582,263.168 264.490,263.829 263.829 C 264.490 263.168,264.582 262.400,264.000 262.400 C 263.780 262.400,263.600 262.670,263.600 263.000 M135.964 263.637 C 135.479 263.949,135.479 264.051,135.964 264.363 C 136.566 264.751,137.600 264.521,137.600 264.000 C 137.600 263.479,136.566 263.249,135.964 263.637 M13.600 279.000 C 13.600 279.330,13.780 279.600,14.000 279.600 C 14.220 279.600,14.400 279.330,14.400 279.000 C 14.400 278.670,14.220 278.400,14.000 278.400 C 13.780 278.400,13.600 278.670,13.600 279.000 M234.400 282.200 C 234.400 282.530,234.580 282.800,234.800 282.800 C 235.020 282.800,235.200 282.530,235.200 282.200 C 235.200 281.870,235.020 281.600,234.800 281.600 C 234.580 281.600,234.400 281.870,234.400 282.200 M14.800 282.400 C 14.800 282.620,15.025 282.803,15.300 282.806 C 15.639 282.810,15.610 282.932,15.212 283.184 C 14.888 283.389,14.763 283.696,14.933 283.867 C 15.349 284.282,15.980 283.214,15.720 282.536 C 15.481 281.913,14.800 281.812,14.800 282.400 M164.680 282.536 C 164.348 283.401,165.106 284.346,165.563 283.636 C 165.951 283.034,165.721 282.000,165.200 282.000 C 165.027 282.000,164.793 282.241,164.680 282.536 M235.600 283.600 C 235.600 283.820,235.870 284.000,236.200 284.000 C 236.530 284.000,236.800 283.820,236.800 283.600 C 236.800 283.380,236.530 283.200,236.200 283.200 C 235.870 283.200,235.600 283.380,235.600 283.600 M165.600 284.800 C 165.600 285.020,165.870 285.200,166.200 285.200 C 166.530 285.200,166.800 285.020,166.800 284.800 C 166.800 284.580,166.530 284.400,166.200 284.400 C 165.870 284.400,165.600 284.580,165.600 284.800 M13.600 289.800 C 13.600 290.130,13.780 290.400,14.000 290.400 C 14.220 290.400,14.400 290.130,14.400 289.800 C 14.400 289.470,14.220 289.200,14.000 289.200 C 13.780 289.200,13.600 289.470,13.600 289.800 M14.800 300.800 C 14.800 301.020,15.070 301.200,15.400 301.200 C 15.730 301.200,16.000 301.020,16.000 300.800 C 16.000 300.580,15.730 300.400,15.400 300.400 C 15.070 300.400,14.800 300.580,14.800 300.800 M24.800 301.570 C 25.333 301.952,25.333 302.048,24.800 302.430 C 24.267 302.813,24.267 302.843,24.800 302.697 C 25.130 302.607,25.400 302.293,25.400 302.000 C 25.400 301.707,25.130 301.393,24.800 301.303 C 24.267 301.157,24.267 301.187,24.800 301.570 M23.200 309.000 C 23.200 309.330,23.380 309.600,23.600 309.600 C 23.820 309.600,24.000 309.330,24.000 309.000 C 24.000 308.670,23.820 308.400,23.600 308.400 C 23.380 308.400,23.200 308.670,23.200 309.000 M24.400 320.000 C 24.400 320.220,24.670 320.400,25.000 320.400 C 25.330 320.400,25.600 320.220,25.600 320.000 C 25.600 319.780,25.330 319.600,25.000 319.600 C 24.670 319.600,24.400 319.780,24.400 320.000 M34.000 337.200 C 34.000 337.420,34.270 337.600,34.600 337.600 C 34.930 337.600,35.200 337.420,35.200 337.200 C 35.200 336.980,34.930 336.800,34.600 336.800 C 34.270 336.800,34.000 336.980,34.000 337.200 M357.600 337.400 C 357.600 337.730,357.780 338.000,358.000 338.000 C 358.220 338.000,358.400 337.730,358.400 337.400 C 358.400 337.070,358.220 336.800,358.000 336.800 C 357.780 336.800,357.600 337.070,357.600 337.400 M44.364 355.237 C 43.879 355.549,43.879 355.651,44.364 355.963 C 44.966 356.351,46.000 356.121,46.000 355.600 C 46.000 355.079,44.966 354.849,44.364 355.237 M46.400 356.600 C 46.400 356.930,46.580 357.200,46.800 357.200 C 47.020 357.200,47.200 356.930,47.200 356.600 C 47.200 356.270,47.020 356.000,46.800 356.000 C 46.580 356.000,46.400 356.270,46.400 356.600 M346.400 364.000 C 346.400 364.220,346.670 364.400,347.000 364.400 C 347.330 364.400,347.600 364.220,347.600 364.000 C 347.600 363.780,347.330 363.600,347.000 363.600 C 346.670 363.600,346.400 363.780,346.400 364.000 M52.800 367.600 C 52.800 367.820,53.070 368.000,53.400 368.000 C 53.730 368.000,54.000 367.820,54.000 367.600 C 54.000 367.380,53.730 367.200,53.400 367.200 C 53.070 367.200,52.800 367.380,52.800 367.600 M61.200 375.400 C 61.200 375.730,61.380 376.000,61.600 376.000 C 61.820 376.000,62.000 375.730,62.000 375.400 C 62.000 375.070,61.820 374.800,61.600 374.800 C 61.380 374.800,61.200 375.070,61.200 375.400 M77.200 404.200 C 77.200 404.530,77.380 404.800,77.600 404.800 C 77.820 404.800,78.000 404.530,78.000 404.200 C 78.000 403.870,77.820 403.600,77.600 403.600 C 77.380 403.600,77.200 403.870,77.200 404.200 M91.200 427.600 C 91.200 427.820,91.470 428.000,91.800 428.000 C 92.130 428.000,92.400 427.820,92.400 427.600 C 92.400 427.380,92.130 427.200,91.800 427.200 C 91.470 427.200,91.200 427.380,91.200 427.600 M96.400 432.600 C 96.400 432.930,96.580 433.200,96.800 433.200 C 97.020 433.200,97.200 432.930,97.200 432.600 C 97.200 432.270,97.020 432.000,96.800 432.000 C 96.580 432.000,96.400 432.270,96.400 432.600 M288.364 450.437 C 287.879 450.749,287.879 450.851,288.364 451.163 C 288.966 451.551,290.000 451.321,290.000 450.800 C 290.000 450.279,288.966 450.049,288.364 450.437 M286.800 451.800 C 286.800 452.130,286.980 452.400,287.200 452.400 C 287.420 452.400,287.600 452.130,287.600 451.800 C 287.600 451.470,287.420 451.200,287.200 451.200 C 286.980 451.200,286.800 451.470,286.800 451.800 M270.400 464.000 C 270.400 464.220,270.670 464.400,271.000 464.400 C 271.330 464.400,271.600 464.220,271.600 464.000 C 271.600 463.780,271.330 463.600,271.000 463.600 C 270.670 463.600,270.400 463.780,270.400 464.000 M124.800 470.600 C 124.800 470.930,124.980 471.200,125.200 471.200 C 125.420 471.200,125.600 470.930,125.600 470.600 C 125.600 470.270,125.420 470.000,125.200 470.000 C 124.980 470.000,124.800 470.270,124.800 470.600 M262.400 480.200 C 262.400 480.530,262.580 480.800,262.800 480.800 C 263.020 480.800,263.200 480.530,263.200 480.200 C 263.200 479.870,263.020 479.600,262.800 479.600 C 262.580 479.600,262.400 479.870,262.400 480.200 M169.600 527.800 C 169.600 528.130,169.780 528.400,170.000 528.400 C 170.220 528.400,170.400 528.130,170.400 527.800 C 170.400 527.470,170.220 527.200,170.000 527.200 C 169.780 527.200,169.600 527.470,169.600 527.800 M222.800 532.400 C 222.800 532.620,223.070 532.800,223.400 532.800 C 223.730 532.800,224.000 532.620,224.000 532.400 C 224.000 532.180,223.730 532.000,223.400 532.000 C 223.070 532.000,222.800 532.180,222.800 532.400 M177.275 536.648 C 177.647 536.758,178.042 537.153,178.152 537.525 C 178.299 538.014,178.332 537.981,178.272 537.405 C 178.225 536.938,177.862 536.575,177.395 536.528 C 176.819 536.468,176.786 536.501,177.275 536.648 " stroke="none" fill="#90949c" fill-rule="evenodd"></path><path id="path2" d="M138.800 2.567 C 138.800 4.258,138.629 5.194,138.300 5.312 C 138.025 5.410,137.945 5.645,138.122 5.834 C 138.719 6.471,139.188 5.014,139.194 2.500 C 139.197 1.125,139.110 0.000,139.000 0.000 C 138.890 0.000,138.800 1.155,138.800 2.567 M278.400 14.233 C 278.400 14.940,279.261 14.817,279.508 14.075 C 279.595 13.814,279.382 13.600,279.033 13.600 C 278.685 13.600,278.400 13.885,278.400 14.233 M289.200 14.000 C 289.200 14.220,289.470 14.400,289.800 14.400 C 290.130 14.400,290.400 14.220,290.400 14.000 C 290.400 13.780,290.130 13.600,289.800 13.600 C 289.470 13.600,289.200 13.780,289.200 14.000 M282.000 15.157 C 282.000 15.703,283.005 15.968,283.625 15.585 C 283.928 15.397,284.037 15.104,283.867 14.933 C 283.696 14.763,283.389 14.888,283.184 15.212 C 282.932 15.610,282.810 15.639,282.806 15.300 C 282.803 15.025,282.620 14.800,282.400 14.800 C 282.180 14.800,282.000 14.961,282.000 15.157 M316.000 25.000 C 316.000 25.330,316.180 25.600,316.400 25.600 C 316.620 25.600,316.800 25.330,316.800 25.000 C 316.800 24.670,316.620 24.400,316.400 24.400 C 316.180 24.400,316.000 24.670,316.000 25.000 M306.400 25.200 C 306.400 25.420,306.670 25.600,307.000 25.600 C 307.330 25.600,307.600 25.420,307.600 25.200 C 307.600 24.980,307.330 24.800,307.000 24.800 C 306.670 24.800,306.400 24.980,306.400 25.200 M80.800 34.600 C 80.800 34.930,80.980 35.200,81.200 35.200 C 81.420 35.200,81.600 34.930,81.600 34.600 C 81.600 34.270,81.420 34.000,81.200 34.000 C 80.980 34.000,80.800 34.270,80.800 34.600 M62.400 39.600 C 62.400 39.820,62.670 40.000,63.000 40.000 C 63.330 40.000,63.600 39.820,63.600 39.600 C 63.600 39.380,63.330 39.200,63.000 39.200 C 62.670 39.200,62.400 39.380,62.400 39.600 M53.880 44.536 C 53.548 45.401,54.306 46.346,54.763 45.636 C 55.151 45.034,54.921 44.000,54.400 44.000 C 54.227 44.000,53.993 44.241,53.880 44.536 M52.800 46.800 C 52.800 47.020,53.070 47.200,53.400 47.200 C 53.730 47.200,54.000 47.020,54.000 46.800 C 54.000 46.580,53.730 46.400,53.400 46.400 C 53.070 46.400,52.800 46.580,52.800 46.800 M46.400 53.400 C 46.400 53.730,46.580 54.000,46.800 54.000 C 47.020 54.000,47.200 53.730,47.200 53.400 C 47.200 53.070,47.020 52.800,46.800 52.800 C 46.580 52.800,46.400 53.070,46.400 53.400 M44.364 54.037 C 43.879 54.349,43.879 54.451,44.364 54.763 C 44.966 55.151,46.000 54.921,46.000 54.400 C 46.000 53.879,44.966 53.649,44.364 54.037 M39.200 63.000 C 39.200 63.330,39.380 63.600,39.600 63.600 C 39.820 63.600,40.000 63.330,40.000 63.000 C 40.000 62.670,39.820 62.400,39.600 62.400 C 39.380 62.400,39.200 62.670,39.200 63.000 M34.000 81.200 C 34.000 81.420,34.270 81.600,34.600 81.600 C 34.930 81.600,35.200 81.420,35.200 81.200 C 35.200 80.980,34.930 80.800,34.600 80.800 C 34.270 80.800,34.000 80.980,34.000 81.200 M194.000 100.800 C 194.000 101.020,194.270 101.200,194.600 101.200 C 194.930 101.200,195.200 101.020,195.200 100.800 C 195.200 100.580,194.930 100.400,194.600 100.400 C 194.270 100.400,194.000 100.580,194.000 100.800 M384.400 103.200 C 384.400 103.420,384.670 103.600,385.000 103.600 C 385.330 103.600,385.600 103.420,385.600 103.200 C 385.600 102.980,385.330 102.800,385.000 102.800 C 384.670 102.800,384.400 102.980,384.400 103.200 M176.800 109.200 C 176.800 109.420,177.070 109.600,177.400 109.600 C 177.730 109.600,178.000 109.420,178.000 109.200 C 178.000 108.980,177.730 108.800,177.400 108.800 C 177.070 108.800,176.800 108.980,176.800 109.200 M234.000 110.400 C 234.000 110.620,234.270 110.800,234.600 110.800 C 234.930 110.800,235.200 110.620,235.200 110.400 C 235.200 110.180,234.930 110.000,234.600 110.000 C 234.270 110.000,234.000 110.180,234.000 110.400 M146.400 120.000 C 146.400 120.220,146.670 120.400,147.000 120.400 C 147.330 120.400,147.600 120.220,147.600 120.000 C 147.600 119.780,147.330 119.600,147.000 119.600 C 146.670 119.600,146.400 119.780,146.400 120.000 M391.600 120.200 C 391.600 120.530,391.780 120.800,392.000 120.800 C 392.220 120.800,392.400 120.530,392.400 120.200 C 392.400 119.870,392.220 119.600,392.000 119.600 C 391.780 119.600,391.600 119.870,391.600 120.200 M393.164 120.837 C 392.679 121.149,392.679 121.251,393.164 121.563 C 393.766 121.951,394.800 121.721,394.800 121.200 C 394.800 120.679,393.766 120.449,393.164 120.837 M255.200 127.800 C 255.200 128.130,255.380 128.400,255.600 128.400 C 255.820 128.400,256.000 128.130,256.000 127.800 C 256.000 127.470,255.820 127.200,255.600 127.200 C 255.380 127.200,255.200 127.470,255.200 127.800 M262.400 134.800 C 262.400 135.020,262.670 135.200,263.000 135.200 C 263.330 135.200,263.600 135.020,263.600 134.800 C 263.600 134.580,263.330 134.400,263.000 134.400 C 262.670 134.400,262.400 134.580,262.400 134.800 M263.480 136.136 C 263.148 137.001,263.906 137.946,264.363 137.236 C 264.751 136.634,264.521 135.600,264.000 135.600 C 263.827 135.600,263.593 135.841,263.480 136.136 M394.000 140.800 C 394.000 141.020,394.270 141.200,394.600 141.200 C 394.930 141.200,395.200 141.020,395.200 140.800 C 395.200 140.580,394.930 140.400,394.600 140.400 C 394.270 140.400,394.000 140.580,394.000 140.800 M119.600 147.000 C 119.600 147.330,119.780 147.600,120.000 147.600 C 120.220 147.600,120.400 147.330,120.400 147.000 C 120.400 146.670,120.220 146.400,120.000 146.400 C 119.780 146.400,119.600 146.670,119.600 147.000 M282.364 164.837 C 281.879 165.149,281.879 165.251,282.364 165.563 C 282.966 165.951,284.000 165.721,284.000 165.200 C 284.000 164.679,282.966 164.449,282.364 164.837 M284.400 166.200 C 284.400 166.530,284.580 166.800,284.800 166.800 C 285.020 166.800,285.200 166.530,285.200 166.200 C 285.200 165.870,285.020 165.600,284.800 165.600 C 284.580 165.600,284.400 165.870,284.400 166.200 M108.800 177.400 C 108.800 177.730,108.980 178.000,109.200 178.000 C 109.420 178.000,109.600 177.730,109.600 177.400 C 109.600 177.070,109.420 176.800,109.200 176.800 C 108.980 176.800,108.800 177.070,108.800 177.400 M100.400 194.600 C 100.400 194.930,100.580 195.200,100.800 195.200 C 101.020 195.200,101.200 194.930,101.200 194.600 C 101.200 194.270,101.020 194.000,100.800 194.000 C 100.580 194.000,100.400 194.270,100.400 194.600 M110.000 234.600 C 110.000 234.930,110.180 235.200,110.400 235.200 C 110.620 235.200,110.800 234.930,110.800 234.600 C 110.800 234.270,110.620 234.000,110.400 234.000 C 110.180 234.000,110.000 234.270,110.000 234.600 M281.600 234.800 C 281.600 235.020,281.870 235.200,282.200 235.200 C 282.530 235.200,282.800 235.020,282.800 234.800 C 282.800 234.580,282.530 234.400,282.200 234.400 C 281.870 234.400,281.600 234.580,281.600 234.800 M127.200 255.600 C 127.200 255.820,127.470 256.000,127.800 256.000 C 128.130 256.000,128.400 255.820,128.400 255.600 C 128.400 255.380,128.130 255.200,127.800 255.200 C 127.470 255.200,127.200 255.380,127.200 255.600 M134.400 263.000 C 134.400 263.330,134.580 263.600,134.800 263.600 C 135.020 263.600,135.200 263.330,135.200 263.000 C 135.200 262.670,135.020 262.400,134.800 262.400 C 134.580 262.400,134.400 262.670,134.400 263.000 M263.600 263.000 C 263.600 263.330,263.330 263.600,263.000 263.600 C 262.670 263.600,262.400 263.780,262.400 264.000 C 262.400 264.582,263.168 264.490,263.829 263.829 C 264.490 263.168,264.582 262.400,264.000 262.400 C 263.780 262.400,263.600 262.670,263.600 263.000 M135.964 263.637 C 135.479 263.949,135.479 264.051,135.964 264.363 C 136.566 264.751,137.600 264.521,137.600 264.000 C 137.600 263.479,136.566 263.249,135.964 263.637 M13.600 279.000 C 13.600 279.330,13.780 279.600,14.000 279.600 C 14.220 279.600,14.400 279.330,14.400 279.000 C 14.400 278.670,14.220 278.400,14.000 278.400 C 13.780 278.400,13.600 278.670,13.600 279.000 M234.400 282.200 C 234.400 282.530,234.580 282.800,234.800 282.800 C 235.020 282.800,235.200 282.530,235.200 282.200 C 235.200 281.870,235.020 281.600,234.800 281.600 C 234.580 281.600,234.400 281.870,234.400 282.200 M14.800 282.400 C 14.800 282.620,15.025 282.803,15.300 282.806 C 15.639 282.810,15.610 282.932,15.212 283.184 C 14.888 283.389,14.763 283.696,14.933 283.867 C 15.349 284.282,15.980 283.214,15.720 282.536 C 15.481 281.913,14.800 281.812,14.800 282.400 M164.680 282.536 C 164.348 283.401,165.106 284.346,165.563 283.636 C 165.951 283.034,165.721 282.000,165.200 282.000 C 165.027 282.000,164.793 282.241,164.680 282.536 M235.600 283.600 C 235.600 283.820,235.870 284.000,236.200 284.000 C 236.530 284.000,236.800 283.820,236.800 283.600 C 236.800 283.380,236.530 283.200,236.200 283.200 C 235.870 283.200,235.600 283.380,235.600 283.600 M165.600 284.800 C 165.600 285.020,165.870 285.200,166.200 285.200 C 166.530 285.200,166.800 285.020,166.800 284.800 C 166.800 284.580,166.530 284.400,166.200 284.400 C 165.870 284.400,165.600 284.580,165.600 284.800 M13.600 289.800 C 13.600 290.130,13.780 290.400,14.000 290.400 C 14.220 290.400,14.400 290.130,14.400 289.800 C 14.400 289.470,14.220 289.200,14.000 289.200 C 13.780 289.200,13.600 289.470,13.600 289.800 M14.800 300.800 C 14.800 301.020,15.070 301.200,15.400 301.200 C 15.730 301.200,16.000 301.020,16.000 300.800 C 16.000 300.580,15.730 300.400,15.400 300.400 C 15.070 300.400,14.800 300.580,14.800 300.800 M24.800 301.570 C 25.333 301.952,25.333 302.048,24.800 302.430 C 24.267 302.813,24.267 302.843,24.800 302.697 C 25.130 302.607,25.400 302.293,25.400 302.000 C 25.400 301.707,25.130 301.393,24.800 301.303 C 24.267 301.157,24.267 301.187,24.800 301.570 M23.200 309.000 C 23.200 309.330,23.380 309.600,23.600 309.600 C 23.820 309.600,24.000 309.330,24.000 309.000 C 24.000 308.670,23.820 308.400,23.600 308.400 C 23.380 308.400,23.200 308.670,23.200 309.000 M24.400 320.000 C 24.400 320.220,24.670 320.400,25.000 320.400 C 25.330 320.400,25.600 320.220,25.600 320.000 C 25.600 319.780,25.330 319.600,25.000 319.600 C 24.670 319.600,24.400 319.780,24.400 320.000 M34.000 337.200 C 34.000 337.420,34.270 337.600,34.600 337.600 C 34.930 337.600,35.200 337.420,35.200 337.200 C 35.200 336.980,34.930 336.800,34.600 336.800 C 34.270 336.800,34.000 336.980,34.000 337.200 M357.600 337.400 C 357.600 337.730,357.780 338.000,358.000 338.000 C 358.220 338.000,358.400 337.730,358.400 337.400 C 358.400 337.070,358.220 336.800,358.000 336.800 C 357.780 336.800,357.600 337.070,357.600 337.400 M44.364 355.237 C 43.879 355.549,43.879 355.651,44.364 355.963 C 44.966 356.351,46.000 356.121,46.000 355.600 C 46.000 355.079,44.966 354.849,44.364 355.237 M46.400 356.600 C 46.400 356.930,46.580 357.200,46.800 357.200 C 47.020 357.200,47.200 356.930,47.200 356.600 C 47.200 356.270,47.020 356.000,46.800 356.000 C 46.580 356.000,46.400 356.270,46.400 356.600 M346.400 364.000 C 346.400 364.220,346.670 364.400,347.000 364.400 C 347.330 364.400,347.600 364.220,347.600 364.000 C 347.600 363.780,347.330 363.600,347.000 363.600 C 346.670 363.600,346.400 363.780,346.400 364.000 M52.800 367.600 C 52.800 367.820,53.070 368.000,53.400 368.000 C 53.730 368.000,54.000 367.820,54.000 367.600 C 54.000 367.380,53.730 367.200,53.400 367.200 C 53.070 367.200,52.800 367.380,52.800 367.600 M61.200 375.400 C 61.200 375.730,61.380 376.000,61.600 376.000 C 61.820 376.000,62.000 375.730,62.000 375.400 C 62.000 375.070,61.820 374.800,61.600 374.800 C 61.380 374.800,61.200 375.070,61.200 375.400 M77.200 404.200 C 77.200 404.530,77.380 404.800,77.600 404.800 C 77.820 404.800,78.000 404.530,78.000 404.200 C 78.000 403.870,77.820 403.600,77.600 403.600 C 77.380 403.600,77.200 403.870,77.200 404.200 M91.200 427.600 C 91.200 427.820,91.470 428.000,91.800 428.000 C 92.130 428.000,92.400 427.820,92.400 427.600 C 92.400 427.380,92.130 427.200,91.800 427.200 C 91.470 427.200,91.200 427.380,91.200 427.600 M96.400 432.600 C 96.400 432.930,96.580 433.200,96.800 433.200 C 97.020 433.200,97.200 432.930,97.200 432.600 C 97.200 432.270,97.020 432.000,96.800 432.000 C 96.580 432.000,96.400 432.270,96.400 432.600 M288.364 450.437 C 287.879 450.749,287.879 450.851,288.364 451.163 C 288.966 451.551,290.000 451.321,290.000 450.800 C 290.000 450.279,288.966 450.049,288.364 450.437 M286.800 451.800 C 286.800 452.130,286.980 452.400,287.200 452.400 C 287.420 452.400,287.600 452.130,287.600 451.800 C 287.600 451.470,287.420 451.200,287.200 451.200 C 286.980 451.200,286.800 451.470,286.800 451.800 M270.400 464.000 C 270.400 464.220,270.670 464.400,271.000 464.400 C 271.330 464.400,271.600 464.220,271.600 464.000 C 271.600 463.780,271.330 463.600,271.000 463.600 C 270.670 463.600,270.400 463.780,270.400 464.000 M124.800 470.600 C 124.800 470.930,124.980 471.200,125.200 471.200 C 125.420 471.200,125.600 470.930,125.600 470.600 C 125.600 470.270,125.420 470.000,125.200 470.000 C 124.980 470.000,124.800 470.270,124.800 470.600 M262.400 480.200 C 262.400 480.530,262.580 480.800,262.800 480.800 C 263.020 480.800,263.200 480.530,263.200 480.200 C 263.200 479.870,263.020 479.600,262.800 479.600 C 262.580 479.600,262.400 479.870,262.400 480.200 M169.600 527.800 C 169.600 528.130,169.780 528.400,170.000 528.400 C 170.220 528.400,170.400 528.130,170.400 527.800 C 170.400 527.470,170.220 527.200,170.000 527.200 C 169.780 527.200,169.600 527.470,169.600 527.800 M222.800 532.400 C 222.800 532.620,223.070 532.800,223.400 532.800 C 223.730 532.800,224.000 532.620,224.000 532.400 C 224.000 532.180,223.730 532.000,223.400 532.000 C 223.070 532.000,222.800 532.180,222.800 532.400 M177.275 536.648 C 177.647 536.758,178.042 537.153,178.152 537.525 C 178.299 538.014,178.332 537.981,178.272 537.405 C 178.225 536.938,177.862 536.575,177.395 536.528 C 176.819 536.468,176.786 536.501,177.275 536.648 " stroke="none" fill="#90949c" fill-rule="evenodd"></path><path id="path3" d="M138.800 2.567 C 138.800 4.258,138.629 5.194,138.300 5.312 C 138.025 5.410,137.945 5.645,138.122 5.834 C 138.719 6.471,139.188 5.014,139.194 2.500 C 139.197 1.125,139.110 0.000,139.000 0.000 C 138.890 0.000,138.800 1.155,138.800 2.567 M278.400 14.233 C 278.400 14.940,279.261 14.817,279.508 14.075 C 279.595 13.814,279.382 13.600,279.033 13.600 C 278.685 13.600,278.400 13.885,278.400 14.233 M289.200 14.000 C 289.200 14.220,289.470 14.400,289.800 14.400 C 290.130 14.400,290.400 14.220,290.400 14.000 C 290.400 13.780,290.130 13.600,289.800 13.600 C 289.470 13.600,289.200 13.780,289.200 14.000 M282.000 15.157 C 282.000 15.703,283.005 15.968,283.625 15.585 C 283.928 15.397,284.037 15.104,283.867 14.933 C 283.696 14.763,283.389 14.888,283.184 15.212 C 282.932 15.610,282.810 15.639,282.806 15.300 C 282.803 15.025,282.620 14.800,282.400 14.800 C 282.180 14.800,282.000 14.961,282.000 15.157 M316.000 25.000 C 316.000 25.330,316.180 25.600,316.400 25.600 C 316.620 25.600,316.800 25.330,316.800 25.000 C 316.800 24.670,316.620 24.400,316.400 24.400 C 316.180 24.400,316.000 24.670,316.000 25.000 M306.400 25.200 C 306.400 25.420,306.670 25.600,307.000 25.600 C 307.330 25.600,307.600 25.420,307.600 25.200 C 307.600 24.980,307.330 24.800,307.000 24.800 C 306.670 24.800,306.400 24.980,306.400 25.200 M80.800 34.600 C 80.800 34.930,80.980 35.200,81.200 35.200 C 81.420 35.200,81.600 34.930,81.600 34.600 C 81.600 34.270,81.420 34.000,81.200 34.000 C 80.980 34.000,80.800 34.270,80.800 34.600 M62.400 39.600 C 62.400 39.820,62.670 40.000,63.000 40.000 C 63.330 40.000,63.600 39.820,63.600 39.600 C 63.600 39.380,63.330 39.200,63.000 39.200 C 62.670 39.200,62.400 39.380,62.400 39.600 M53.880 44.536 C 53.548 45.401,54.306 46.346,54.763 45.636 C 55.151 45.034,54.921 44.000,54.400 44.000 C 54.227 44.000,53.993 44.241,53.880 44.536 M52.800 46.800 C 52.800 47.020,53.070 47.200,53.400 47.200 C 53.730 47.200,54.000 47.020,54.000 46.800 C 54.000 46.580,53.730 46.400,53.400 46.400 C 53.070 46.400,52.800 46.580,52.800 46.800 M46.400 53.400 C 46.400 53.730,46.580 54.000,46.800 54.000 C 47.020 54.000,47.200 53.730,47.200 53.400 C 47.200 53.070,47.020 52.800,46.800 52.800 C 46.580 52.800,46.400 53.070,46.400 53.400 M44.364 54.037 C 43.879 54.349,43.879 54.451,44.364 54.763 C 44.966 55.151,46.000 54.921,46.000 54.400 C 46.000 53.879,44.966 53.649,44.364 54.037 M39.200 63.000 C 39.200 63.330,39.380 63.600,39.600 63.600 C 39.820 63.600,40.000 63.330,40.000 63.000 C 40.000 62.670,39.820 62.400,39.600 62.400 C 39.380 62.400,39.200 62.670,39.200 63.000 M34.000 81.200 C 34.000 81.420,34.270 81.600,34.600 81.600 C 34.930 81.600,35.200 81.420,35.200 81.200 C 35.200 80.980,34.930 80.800,34.600 80.800 C 34.270 80.800,34.000 80.980,34.000 81.200 M194.000 100.800 C 194.000 101.020,194.270 101.200,194.600 101.200 C 194.930 101.200,195.200 101.020,195.200 100.800 C 195.200 100.580,194.930 100.400,194.600 100.400 C 194.270 100.400,194.000 100.580,194.000 100.800 M384.400 103.200 C 384.400 103.420,384.670 103.600,385.000 103.600 C 385.330 103.600,385.600 103.420,385.600 103.200 C 385.600 102.980,385.330 102.800,385.000 102.800 C 384.670 102.800,384.400 102.980,384.400 103.200 M176.800 109.200 C 176.800 109.420,177.070 109.600,177.400 109.600 C 177.730 109.600,178.000 109.420,178.000 109.200 C 178.000 108.980,177.730 108.800,177.400 108.800 C 177.070 108.800,176.800 108.980,176.800 109.200 M234.000 110.400 C 234.000 110.620,234.270 110.800,234.600 110.800 C 234.930 110.800,235.200 110.620,235.200 110.400 C 235.200 110.180,234.930 110.000,234.600 110.000 C 234.270 110.000,234.000 110.180,234.000 110.400 M146.400 120.000 C 146.400 120.220,146.670 120.400,147.000 120.400 C 147.330 120.400,147.600 120.220,147.600 120.000 C 147.600 119.780,147.330 119.600,147.000 119.600 C 146.670 119.600,146.400 119.780,146.400 120.000 M391.600 120.200 C 391.600 120.530,391.780 120.800,392.000 120.800 C 392.220 120.800,392.400 120.530,392.400 120.200 C 392.400 119.870,392.220 119.600,392.000 119.600 C 391.780 119.600,391.600 119.870,391.600 120.200 M393.164 120.837 C 392.679 121.149,392.679 121.251,393.164 121.563 C 393.766 121.951,394.800 121.721,394.800 121.200 C 394.800 120.679,393.766 120.449,393.164 120.837 M255.200 127.800 C 255.200 128.130,255.380 128.400,255.600 128.400 C 255.820 128.400,256.000 128.130,256.000 127.800 C 256.000 127.470,255.820 127.200,255.600 127.200 C 255.380 127.200,255.200 127.470,255.200 127.800 M262.400 134.800 C 262.400 135.020,262.670 135.200,263.000 135.200 C 263.330 135.200,263.600 135.020,263.600 134.800 C 263.600 134.580,263.330 134.400,263.000 134.400 C 262.670 134.400,262.400 134.580,262.400 134.800 M263.480 136.136 C 263.148 137.001,263.906 137.946,264.363 137.236 C 264.751 136.634,264.521 135.600,264.000 135.600 C 263.827 135.600,263.593 135.841,263.480 136.136 M394.000 140.800 C 394.000 141.020,394.270 141.200,394.600 141.200 C 394.930 141.200,395.200 141.020,395.200 140.800 C 395.200 140.580,394.930 140.400,394.600 140.400 C 394.270 140.400,394.000 140.580,394.000 140.800 M119.600 147.000 C 119.600 147.330,119.780 147.600,120.000 147.600 C 120.220 147.600,120.400 147.330,120.400 147.000 C 120.400 146.670,120.220 146.400,120.000 146.400 C 119.780 146.400,119.600 146.670,119.600 147.000 M282.364 164.837 C 281.879 165.149,281.879 165.251,282.364 165.563 C 282.966 165.951,284.000 165.721,284.000 165.200 C 284.000 164.679,282.966 164.449,282.364 164.837 M284.400 166.200 C 284.400 166.530,284.580 166.800,284.800 166.800 C 285.020 166.800,285.200 166.530,285.200 166.200 C 285.200 165.870,285.020 165.600,284.800 165.600 C 284.580 165.600,284.400 165.870,284.400 166.200 M108.800 177.400 C 108.800 177.730,108.980 178.000,109.200 178.000 C 109.420 178.000,109.600 177.730,109.600 177.400 C 109.600 177.070,109.420 176.800,109.200 176.800 C 108.980 176.800,108.800 177.070,108.800 177.400 M100.400 194.600 C 100.400 194.930,100.580 195.200,100.800 195.200 C 101.020 195.200,101.200 194.930,101.200 194.600 C 101.200 194.270,101.020 194.000,100.800 194.000 C 100.580 194.000,100.400 194.270,100.400 194.600 M110.000 234.600 C 110.000 234.930,110.180 235.200,110.400 235.200 C 110.620 235.200,110.800 234.930,110.800 234.600 C 110.800 234.270,110.620 234.000,110.400 234.000 C 110.180 234.000,110.000 234.270,110.000 234.600 M281.600 234.800 C 281.600 235.020,281.870 235.200,282.200 235.200 C 282.530 235.200,282.800 235.020,282.800 234.800 C 282.800 234.580,282.530 234.400,282.200 234.400 C 281.870 234.400,281.600 234.580,281.600 234.800 M127.200 255.600 C 127.200 255.820,127.470 256.000,127.800 256.000 C 128.130 256.000,128.400 255.820,128.400 255.600 C 128.400 255.380,128.130 255.200,127.800 255.200 C 127.470 255.200,127.200 255.380,127.200 255.600 M134.400 263.000 C 134.400 263.330,134.580 263.600,134.800 263.600 C 135.020 263.600,135.200 263.330,135.200 263.000 C 135.200 262.670,135.020 262.400,134.800 262.400 C 134.580 262.400,134.400 262.670,134.400 263.000 M263.600 263.000 C 263.600 263.330,263.330 263.600,263.000 263.600 C 262.670 263.600,262.400 263.780,262.400 264.000 C 262.400 264.582,263.168 264.490,263.829 263.829 C 264.490 263.168,264.582 262.400,264.000 262.400 C 263.780 262.400,263.600 262.670,263.600 263.000 M135.964 263.637 C 135.479 263.949,135.479 264.051,135.964 264.363 C 136.566 264.751,137.600 264.521,137.600 264.000 C 137.600 263.479,136.566 263.249,135.964 263.637 M13.600 279.000 C 13.600 279.330,13.780 279.600,14.000 279.600 C 14.220 279.600,14.400 279.330,14.400 279.000 C 14.400 278.670,14.220 278.400,14.000 278.400 C 13.780 278.400,13.600 278.670,13.600 279.000 M234.400 282.200 C 234.400 282.530,234.580 282.800,234.800 282.800 C 235.020 282.800,235.200 282.530,235.200 282.200 C 235.200 281.870,235.020 281.600,234.800 281.600 C 234.580 281.600,234.400 281.870,234.400 282.200 M14.800 282.400 C 14.800 282.620,15.025 282.803,15.300 282.806 C 15.639 282.810,15.610 282.932,15.212 283.184 C 14.888 283.389,14.763 283.696,14.933 283.867 C 15.349 284.282,15.980 283.214,15.720 282.536 C 15.481 281.913,14.800 281.812,14.800 282.400 M164.680 282.536 C 164.348 283.401,165.106 284.346,165.563 283.636 C 165.951 283.034,165.721 282.000,165.200 282.000 C 165.027 282.000,164.793 282.241,164.680 282.536 M235.600 283.600 C 235.600 283.820,235.870 284.000,236.200 284.000 C 236.530 284.000,236.800 283.820,236.800 283.600 C 236.800 283.380,236.530 283.200,236.200 283.200 C 235.870 283.200,235.600 283.380,235.600 283.600 M165.600 284.800 C 165.600 285.020,165.870 285.200,166.200 285.200 C 166.530 285.200,166.800 285.020,166.800 284.800 C 166.800 284.580,166.530 284.400,166.200 284.400 C 165.870 284.400,165.600 284.580,165.600 284.800 M13.600 289.800 C 13.600 290.130,13.780 290.400,14.000 290.400 C 14.220 290.400,14.400 290.130,14.400 289.800 C 14.400 289.470,14.220 289.200,14.000 289.200 C 13.780 289.200,13.600 289.470,13.600 289.800 M14.800 300.800 C 14.800 301.020,15.070 301.200,15.400 301.200 C 15.730 301.200,16.000 301.020,16.000 300.800 C 16.000 300.580,15.730 300.400,15.400 300.400 C 15.070 300.400,14.800 300.580,14.800 300.800 M24.800 301.570 C 25.333 301.952,25.333 302.048,24.800 302.430 C 24.267 302.813,24.267 302.843,24.800 302.697 C 25.130 302.607,25.400 302.293,25.400 302.000 C 25.400 301.707,25.130 301.393,24.800 301.303 C 24.267 301.157,24.267 301.187,24.800 301.570 M23.200 309.000 C 23.200 309.330,23.380 309.600,23.600 309.600 C 23.820 309.600,24.000 309.330,24.000 309.000 C 24.000 308.670,23.820 308.400,23.600 308.400 C 23.380 308.400,23.200 308.670,23.200 309.000 M24.400 320.000 C 24.400 320.220,24.670 320.400,25.000 320.400 C 25.330 320.400,25.600 320.220,25.600 320.000 C 25.600 319.780,25.330 319.600,25.000 319.600 C 24.670 319.600,24.400 319.780,24.400 320.000 M34.000 337.200 C 34.000 337.420,34.270 337.600,34.600 337.600 C 34.930 337.600,35.200 337.420,35.200 337.200 C 35.200 336.980,34.930 336.800,34.600 336.800 C 34.270 336.800,34.000 336.980,34.000 337.200 M357.600 337.400 C 357.600 337.730,357.780 338.000,358.000 338.000 C 358.220 338.000,358.400 337.730,358.400 337.400 C 358.400 337.070,358.220 336.800,358.000 336.800 C 357.780 336.800,357.600 337.070,357.600 337.400 M44.364 355.237 C 43.879 355.549,43.879 355.651,44.364 355.963 C 44.966 356.351,46.000 356.121,46.000 355.600 C 46.000 355.079,44.966 354.849,44.364 355.237 M46.400 356.600 C 46.400 356.930,46.580 357.200,46.800 357.200 C 47.020 357.200,47.200 356.930,47.200 356.600 C 47.200 356.270,47.020 356.000,46.800 356.000 C 46.580 356.000,46.400 356.270,46.400 356.600 M346.400 364.000 C 346.400 364.220,346.670 364.400,347.000 364.400 C 347.330 364.400,347.600 364.220,347.600 364.000 C 347.600 363.780,347.330 363.600,347.000 363.600 C 346.670 363.600,346.400 363.780,346.400 364.000 M52.800 367.600 C 52.800 367.820,53.070 368.000,53.400 368.000 C 53.730 368.000,54.000 367.820,54.000 367.600 C 54.000 367.380,53.730 367.200,53.400 367.200 C 53.070 367.200,52.800 367.380,52.800 367.600 M61.200 375.400 C 61.200 375.730,61.380 376.000,61.600 376.000 C 61.820 376.000,62.000 375.730,62.000 375.400 C 62.000 375.070,61.820 374.800,61.600 374.800 C 61.380 374.800,61.200 375.070,61.200 375.400 M77.200 404.200 C 77.200 404.530,77.380 404.800,77.600 404.800 C 77.820 404.800,78.000 404.530,78.000 404.200 C 78.000 403.870,77.820 403.600,77.600 403.600 C 77.380 403.600,77.200 403.870,77.200 404.200 M91.200 427.600 C 91.200 427.820,91.470 428.000,91.800 428.000 C 92.130 428.000,92.400 427.820,92.400 427.600 C 92.400 427.380,92.130 427.200,91.800 427.200 C 91.470 427.200,91.200 427.380,91.200 427.600 M96.400 432.600 C 96.400 432.930,96.580 433.200,96.800 433.200 C 97.020 433.200,97.200 432.930,97.200 432.600 C 97.200 432.270,97.020 432.000,96.800 432.000 C 96.580 432.000,96.400 432.270,96.400 432.600 M288.364 450.437 C 287.879 450.749,287.879 450.851,288.364 451.163 C 288.966 451.551,290.000 451.321,290.000 450.800 C 290.000 450.279,288.966 450.049,288.364 450.437 M286.800 451.800 C 286.800 452.130,286.980 452.400,287.200 452.400 C 287.420 452.400,287.600 452.130,287.600 451.800 C 287.600 451.470,287.420 451.200,287.200 451.200 C 286.980 451.200,286.800 451.470,286.800 451.800 M270.400 464.000 C 270.400 464.220,270.670 464.400,271.000 464.400 C 271.330 464.400,271.600 464.220,271.600 464.000 C 271.600 463.780,271.330 463.600,271.000 463.600 C 270.670 463.600,270.400 463.780,270.400 464.000 M124.800 470.600 C 124.800 470.930,124.980 471.200,125.200 471.200 C 125.420 471.200,125.600 470.930,125.600 470.600 C 125.600 470.270,125.420 470.000,125.200 470.000 C 124.980 470.000,124.800 470.270,124.800 470.600 M262.400 480.200 C 262.400 480.530,262.580 480.800,262.800 480.800 C 263.020 480.800,263.200 480.530,263.200 480.200 C 263.200 479.870,263.020 479.600,262.800 479.600 C 262.580 479.600,262.400 479.870,262.400 480.200 M169.600 527.800 C 169.600 528.130,169.780 528.400,170.000 528.400 C 170.220 528.400,170.400 528.130,170.400 527.800 C 170.400 527.470,170.220 527.200,170.000 527.200 C 169.780 527.200,169.600 527.470,169.600 527.800 M222.800 532.400 C 222.800 532.620,223.070 532.800,223.400 532.800 C 223.730 532.800,224.000 532.620,224.000 532.400 C 224.000 532.180,223.730 532.000,223.400 532.000 C 223.070 532.000,222.800 532.180,222.800 532.400 M177.275 536.648 C 177.647 536.758,178.042 537.153,178.152 537.525 C 178.299 538.014,178.332 537.981,178.272 537.405 C 178.225 536.938,177.862 536.575,177.395 536.528 C 176.819 536.468,176.786 536.501,177.275 536.648 " stroke="none" fill="#90949c" fill-rule="evenodd"></path><path id="path4" d="M138.800 2.567 C 138.800 4.258,138.629 5.194,138.300 5.312 C 138.025 5.410,137.945 5.645,138.122 5.834 C 138.719 6.471,139.188 5.014,139.194 2.500 C 139.197 1.125,139.110 0.000,139.000 0.000 C 138.890 0.000,138.800 1.155,138.800 2.567 M278.400 14.233 C 278.400 14.940,279.261 14.817,279.508 14.075 C 279.595 13.814,279.382 13.600,279.033 13.600 C 278.685 13.600,278.400 13.885,278.400 14.233 M289.200 14.000 C 289.200 14.220,289.470 14.400,289.800 14.400 C 290.130 14.400,290.400 14.220,290.400 14.000 C 290.400 13.780,290.130 13.600,289.800 13.600 C 289.470 13.600,289.200 13.780,289.200 14.000 M282.000 15.157 C 282.000 15.703,283.005 15.968,283.625 15.585 C 283.928 15.397,284.037 15.104,283.867 14.933 C 283.696 14.763,283.389 14.888,283.184 15.212 C 282.932 15.610,282.810 15.639,282.806 15.300 C 282.803 15.025,282.620 14.800,282.400 14.800 C 282.180 14.800,282.000 14.961,282.000 15.157 M316.000 25.000 C 316.000 25.330,316.180 25.600,316.400 25.600 C 316.620 25.600,316.800 25.330,316.800 25.000 C 316.800 24.670,316.620 24.400,316.400 24.400 C 316.180 24.400,316.000 24.670,316.000 25.000 M306.400 25.200 C 306.400 25.420,306.670 25.600,307.000 25.600 C 307.330 25.600,307.600 25.420,307.600 25.200 C 307.600 24.980,307.330 24.800,307.000 24.800 C 306.670 24.800,306.400 24.980,306.400 25.200 M80.800 34.600 C 80.800 34.930,80.980 35.200,81.200 35.200 C 81.420 35.200,81.600 34.930,81.600 34.600 C 81.600 34.270,81.420 34.000,81.200 34.000 C 80.980 34.000,80.800 34.270,80.800 34.600 M62.400 39.600 C 62.400 39.820,62.670 40.000,63.000 40.000 C 63.330 40.000,63.600 39.820,63.600 39.600 C 63.600 39.380,63.330 39.200,63.000 39.200 C 62.670 39.200,62.400 39.380,62.400 39.600 M53.880 44.536 C 53.548 45.401,54.306 46.346,54.763 45.636 C 55.151 45.034,54.921 44.000,54.400 44.000 C 54.227 44.000,53.993 44.241,53.880 44.536 M52.800 46.800 C 52.800 47.020,53.070 47.200,53.400 47.200 C 53.730 47.200,54.000 47.020,54.000 46.800 C 54.000 46.580,53.730 46.400,53.400 46.400 C 53.070 46.400,52.800 46.580,52.800 46.800 M46.400 53.400 C 46.400 53.730,46.580 54.000,46.800 54.000 C 47.020 54.000,47.200 53.730,47.200 53.400 C 47.200 53.070,47.020 52.800,46.800 52.800 C 46.580 52.800,46.400 53.070,46.400 53.400 M44.364 54.037 C 43.879 54.349,43.879 54.451,44.364 54.763 C 44.966 55.151,46.000 54.921,46.000 54.400 C 46.000 53.879,44.966 53.649,44.364 54.037 M39.200 63.000 C 39.200 63.330,39.380 63.600,39.600 63.600 C 39.820 63.600,40.000 63.330,40.000 63.000 C 40.000 62.670,39.820 62.400,39.600 62.400 C 39.380 62.400,39.200 62.670,39.200 63.000 M34.000 81.200 C 34.000 81.420,34.270 81.600,34.600 81.600 C 34.930 81.600,35.200 81.420,35.200 81.200 C 35.200 80.980,34.930 80.800,34.600 80.800 C 34.270 80.800,34.000 80.980,34.000 81.200 M194.000 100.800 C 194.000 101.020,194.270 101.200,194.600 101.200 C 194.930 101.200,195.200 101.020,195.200 100.800 C 195.200 100.580,194.930 100.400,194.600 100.400 C 194.270 100.400,194.000 100.580,194.000 100.800 M384.400 103.200 C 384.400 103.420,384.670 103.600,385.000 103.600 C 385.330 103.600,385.600 103.420,385.600 103.200 C 385.600 102.980,385.330 102.800,385.000 102.800 C 384.670 102.800,384.400 102.980,384.400 103.200 M176.800 109.200 C 176.800 109.420,177.070 109.600,177.400 109.600 C 177.730 109.600,178.000 109.420,178.000 109.200 C 178.000 108.980,177.730 108.800,177.400 108.800 C 177.070 108.800,176.800 108.980,176.800 109.200 M234.000 110.400 C 234.000 110.620,234.270 110.800,234.600 110.800 C 234.930 110.800,235.200 110.620,235.200 110.400 C 235.200 110.180,234.930 110.000,234.600 110.000 C 234.270 110.000,234.000 110.180,234.000 110.400 M146.400 120.000 C 146.400 120.220,146.670 120.400,147.000 120.400 C 147.330 120.400,147.600 120.220,147.600 120.000 C 147.600 119.780,147.330 119.600,147.000 119.600 C 146.670 119.600,146.400 119.780,146.400 120.000 M391.600 120.200 C 391.600 120.530,391.780 120.800,392.000 120.800 C 392.220 120.800,392.400 120.530,392.400 120.200 C 392.400 119.870,392.220 119.600,392.000 119.600 C 391.780 119.600,391.600 119.870,391.600 120.200 M393.164 120.837 C 392.679 121.149,392.679 121.251,393.164 121.563 C 393.766 121.951,394.800 121.721,394.800 121.200 C 394.800 120.679,393.766 120.449,393.164 120.837 M255.200 127.800 C 255.200 128.130,255.380 128.400,255.600 128.400 C 255.820 128.400,256.000 128.130,256.000 127.800 C 256.000 127.470,255.820 127.200,255.600 127.200 C 255.380 127.200,255.200 127.470,255.200 127.800 M262.400 134.800 C 262.400 135.020,262.670 135.200,263.000 135.200 C 263.330 135.200,263.600 135.020,263.600 134.800 C 263.600 134.580,263.330 134.400,263.000 134.400 C 262.670 134.400,262.400 134.580,262.400 134.800 M263.480 136.136 C 263.148 137.001,263.906 137.946,264.363 137.236 C 264.751 136.634,264.521 135.600,264.000 135.600 C 263.827 135.600,263.593 135.841,263.480 136.136 M394.000 140.800 C 394.000 141.020,394.270 141.200,394.600 141.200 C 394.930 141.200,395.200 141.020,395.200 140.800 C 395.200 140.580,394.930 140.400,394.600 140.400 C 394.270 140.400,394.000 140.580,394.000 140.800 M119.600 147.000 C 119.600 147.330,119.780 147.600,120.000 147.600 C 120.220 147.600,120.400 147.330,120.400 147.000 C 120.400 146.670,120.220 146.400,120.000 146.400 C 119.780 146.400,119.600 146.670,119.600 147.000 M282.364 164.837 C 281.879 165.149,281.879 165.251,282.364 165.563 C 282.966 165.951,284.000 165.721,284.000 165.200 C 284.000 164.679,282.966 164.449,282.364 164.837 M284.400 166.200 C 284.400 166.530,284.580 166.800,284.800 166.800 C 285.020 166.800,285.200 166.530,285.200 166.200 C 285.200 165.870,285.020 165.600,284.800 165.600 C 284.580 165.600,284.400 165.870,284.400 166.200 M108.800 177.400 C 108.800 177.730,108.980 178.000,109.200 178.000 C 109.420 178.000,109.600 177.730,109.600 177.400 C 109.600 177.070,109.420 176.800,109.200 176.800 C 108.980 176.800,108.800 177.070,108.800 177.400 M100.400 194.600 C 100.400 194.930,100.580 195.200,100.800 195.200 C 101.020 195.200,101.200 194.930,101.200 194.600 C 101.200 194.270,101.020 194.000,100.800 194.000 C 100.580 194.000,100.400 194.270,100.400 194.600 M110.000 234.600 C 110.000 234.930,110.180 235.200,110.400 235.200 C 110.620 235.200,110.800 234.930,110.800 234.600 C 110.800 234.270,110.620 234.000,110.400 234.000 C 110.180 234.000,110.000 234.270,110.000 234.600 M281.600 234.800 C 281.600 235.020,281.870 235.200,282.200 235.200 C 282.530 235.200,282.800 235.020,282.800 234.800 C 282.800 234.580,282.530 234.400,282.200 234.400 C 281.870 234.400,281.600 234.580,281.600 234.800 M127.200 255.600 C 127.200 255.820,127.470 256.000,127.800 256.000 C 128.130 256.000,128.400 255.820,128.400 255.600 C 128.400 255.380,128.130 255.200,127.800 255.200 C 127.470 255.200,127.200 255.380,127.200 255.600 M134.400 263.000 C 134.400 263.330,134.580 263.600,134.800 263.600 C 135.020 263.600,135.200 263.330,135.200 263.000 C 135.200 262.670,135.020 262.400,134.800 262.400 C 134.580 262.400,134.400 262.670,134.400 263.000 M263.600 263.000 C 263.600 263.330,263.330 263.600,263.000 263.600 C 262.670 263.600,262.400 263.780,262.400 264.000 C 262.400 264.582,263.168 264.490,263.829 263.829 C 264.490 263.168,264.582 262.400,264.000 262.400 C 263.780 262.400,263.600 262.670,263.600 263.000 M135.964 263.637 C 135.479 263.949,135.479 264.051,135.964 264.363 C 136.566 264.751,137.600 264.521,137.600 264.000 C 137.600 263.479,136.566 263.249,135.964 263.637 M13.600 279.000 C 13.600 279.330,13.780 279.600,14.000 279.600 C 14.220 279.600,14.400 279.330,14.400 279.000 C 14.400 278.670,14.220 278.400,14.000 278.400 C 13.780 278.400,13.600 278.670,13.600 279.000 M234.400 282.200 C 234.400 282.530,234.580 282.800,234.800 282.800 C 235.020 282.800,235.200 282.530,235.200 282.200 C 235.200 281.870,235.020 281.600,234.800 281.600 C 234.580 281.600,234.400 281.870,234.400 282.200 M14.800 282.400 C 14.800 282.620,15.025 282.803,15.300 282.806 C 15.639 282.810,15.610 282.932,15.212 283.184 C 14.888 283.389,14.763 283.696,14.933 283.867 C 15.349 284.282,15.980 283.214,15.720 282.536 C 15.481 281.913,14.800 281.812,14.800 282.400 M164.680 282.536 C 164.348 283.401,165.106 284.346,165.563 283.636 C 165.951 283.034,165.721 282.000,165.200 282.000 C 165.027 282.000,164.793 282.241,164.680 282.536 M235.600 283.600 C 235.600 283.820,235.870 284.000,236.200 284.000 C 236.530 284.000,236.800 283.820,236.800 283.600 C 236.800 283.380,236.530 283.200,236.200 283.200 C 235.870 283.200,235.600 283.380,235.600 283.600 M165.600 284.800 C 165.600 285.020,165.870 285.200,166.200 285.200 C 166.530 285.200,166.800 285.020,166.800 284.800 C 166.800 284.580,166.530 284.400,166.200 284.400 C 165.870 284.400,165.600 284.580,165.600 284.800 M13.600 289.800 C 13.600 290.130,13.780 290.400,14.000 290.400 C 14.220 290.400,14.400 290.130,14.400 289.800 C 14.400 289.470,14.220 289.200,14.000 289.200 C 13.780 289.200,13.600 289.470,13.600 289.800 M14.800 300.800 C 14.800 301.020,15.070 301.200,15.400 301.200 C 15.730 301.200,16.000 301.020,16.000 300.800 C 16.000 300.580,15.730 300.400,15.400 300.400 C 15.070 300.400,14.800 300.580,14.800 300.800 M24.800 301.570 C 25.333 301.952,25.333 302.048,24.800 302.430 C 24.267 302.813,24.267 302.843,24.800 302.697 C 25.130 302.607,25.400 302.293,25.400 302.000 C 25.400 301.707,25.130 301.393,24.800 301.303 C 24.267 301.157,24.267 301.187,24.800 301.570 M23.200 309.000 C 23.200 309.330,23.380 309.600,23.600 309.600 C 23.820 309.600,24.000 309.330,24.000 309.000 C 24.000 308.670,23.820 308.400,23.600 308.400 C 23.380 308.400,23.200 308.670,23.200 309.000 M24.400 320.000 C 24.400 320.220,24.670 320.400,25.000 320.400 C 25.330 320.400,25.600 320.220,25.600 320.000 C 25.600 319.780,25.330 319.600,25.000 319.600 C 24.670 319.600,24.400 319.780,24.400 320.000 M34.000 337.200 C 34.000 337.420,34.270 337.600,34.600 337.600 C 34.930 337.600,35.200 337.420,35.200 337.200 C 35.200 336.980,34.930 336.800,34.600 336.800 C 34.270 336.800,34.000 336.980,34.000 337.200 M357.600 337.400 C 357.600 337.730,357.780 338.000,358.000 338.000 C 358.220 338.000,358.400 337.730,358.400 337.400 C 358.400 337.070,358.220 336.800,358.000 336.800 C 357.780 336.800,357.600 337.070,357.600 337.400 M44.364 355.237 C 43.879 355.549,43.879 355.651,44.364 355.963 C 44.966 356.351,46.000 356.121,46.000 355.600 C 46.000 355.079,44.966 354.849,44.364 355.237 M46.400 356.600 C 46.400 356.930,46.580 357.200,46.800 357.200 C 47.020 357.200,47.200 356.930,47.200 356.600 C 47.200 356.270,47.020 356.000,46.800 356.000 C 46.580 356.000,46.400 356.270,46.400 356.600 M346.400 364.000 C 346.400 364.220,346.670 364.400,347.000 364.400 C 347.330 364.400,347.600 364.220,347.600 364.000 C 347.600 363.780,347.330 363.600,347.000 363.600 C 346.670 363.600,346.400 363.780,346.400 364.000 M52.800 367.600 C 52.800 367.820,53.070 368.000,53.400 368.000 C 53.730 368.000,54.000 367.820,54.000 367.600 C 54.000 367.380,53.730 367.200,53.400 367.200 C 53.070 367.200,52.800 367.380,52.800 367.600 M61.200 375.400 C 61.200 375.730,61.380 376.000,61.600 376.000 C 61.820 376.000,62.000 375.730,62.000 375.400 C 62.000 375.070,61.820 374.800,61.600 374.800 C 61.380 374.800,61.200 375.070,61.200 375.400 M77.200 404.200 C 77.200 404.530,77.380 404.800,77.600 404.800 C 77.820 404.800,78.000 404.530,78.000 404.200 C 78.000 403.870,77.820 403.600,77.600 403.600 C 77.380 403.600,77.200 403.870,77.200 404.200 M91.200 427.600 C 91.200 427.820,91.470 428.000,91.800 428.000 C 92.130 428.000,92.400 427.820,92.400 427.600 C 92.400 427.380,92.130 427.200,91.800 427.200 C 91.470 427.200,91.200 427.380,91.200 427.600 M96.400 432.600 C 96.400 432.930,96.580 433.200,96.800 433.200 C 97.020 433.200,97.200 432.930,97.200 432.600 C 97.200 432.270,97.020 432.000,96.800 432.000 C 96.580 432.000,96.400 432.270,96.400 432.600 M288.364 450.437 C 287.879 450.749,287.879 450.851,288.364 451.163 C 288.966 451.551,290.000 451.321,290.000 450.800 C 290.000 450.279,288.966 450.049,288.364 450.437 M286.800 451.800 C 286.800 452.130,286.980 452.400,287.200 452.400 C 287.420 452.400,287.600 452.130,287.600 451.800 C 287.600 451.470,287.420 451.200,287.200 451.200 C 286.980 451.200,286.800 451.470,286.800 451.800 M270.400 464.000 C 270.400 464.220,270.670 464.400,271.000 464.400 C 271.330 464.400,271.600 464.220,271.600 464.000 C 271.600 463.780,271.330 463.600,271.000 463.600 C 270.670 463.600,270.400 463.780,270.400 464.000 M124.800 470.600 C 124.800 470.930,124.980 471.200,125.200 471.200 C 125.420 471.200,125.600 470.930,125.600 470.600 C 125.600 470.270,125.420 470.000,125.200 470.000 C 124.980 470.000,124.800 470.270,124.800 470.600 M262.400 480.200 C 262.400 480.530,262.580 480.800,262.800 480.800 C 263.020 480.800,263.200 480.530,263.200 480.200 C 263.200 479.870,263.020 479.600,262.800 479.600 C 262.580 479.600,262.400 479.870,262.400 480.200 M169.600 527.800 C 169.600 528.130,169.780 528.400,170.000 528.400 C 170.220 528.400,170.400 528.130,170.400 527.800 C 170.400 527.470,170.220 527.200,170.000 527.200 C 169.780 527.200,169.600 527.470,169.600 527.800 M222.800 532.400 C 222.800 532.620,223.070 532.800,223.400 532.800 C 223.730 532.800,224.000 532.620,224.000 532.400 C 224.000 532.180,223.730 532.000,223.400 532.000 C 223.070 532.000,222.800 532.180,222.800 532.400 M177.275 536.648 C 177.647 536.758,178.042 537.153,178.152 537.525 C 178.299 538.014,178.332 537.981,178.272 537.405 C 178.225 536.938,177.862 536.575,177.395 536.528 C 176.819 536.468,176.786 536.501,177.275 536.648 " stroke="none" fill="#90949c" fill-rule="evenodd"></path></g></svg>