<svg xmlns="http://www.w3.org/2000/svg" width="15.905" height="12.984" viewBox="0 0 15.905 12.984">
  <g id="logout-icon" transform="translate(0 -41.115)">
    <g id="Group_8426" data-name="Group 8426" transform="translate(0 41.115)">
      <path id="Path_9008" data-name="Path 9008" d="M6.492,53.125a.264.264,0,0,1-.02-.137c.007-.037-.017-.068-.071-.091s-.081-.042-.081-.056-.039-.024-.117-.03l-.117-.01H2.921a1.562,1.562,0,0,1-1.146-.477A1.563,1.563,0,0,1,1.3,51.177V44.036a1.563,1.563,0,0,1,.477-1.146,1.563,1.563,0,0,1,1.146-.477H6.167a.306.306,0,0,0,.208-.066.337.337,0,0,0,.1-.2,1.707,1.707,0,0,0,.031-.238,2.523,2.523,0,0,0-.005-.269q-.01-.162-.01-.2a.329.329,0,0,0-.325-.324H2.921a2.814,2.814,0,0,0-2.064.857A2.814,2.814,0,0,0,0,44.036v7.141a2.813,2.813,0,0,0,.857,2.064,2.813,2.813,0,0,0,2.064.857H6.167a.308.308,0,0,0,.208-.066.337.337,0,0,0,.1-.2,1.71,1.71,0,0,0,.031-.238,2.521,2.521,0,0,0-.005-.269Q6.492,53.165,6.492,53.125Z" transform="translate(0 -41.115)" fill="#f26a6b"/>
      <path id="Path_9009" data-name="Path 9009" d="M121.451,55.957l-5.518-5.518a.649.649,0,0,0-1.106.457v2.921h-4.544a.658.658,0,0,0-.649.649v3.9a.658.658,0,0,0,.649.649h4.544v2.921a.646.646,0,0,0,1.106.456l5.518-5.518a.637.637,0,0,0,0-.913Z" transform="translate(-105.738 -49.922)" fill="#f26a6b"/>
    </g>
  </g>
</svg>
