<svg xmlns="http://www.w3.org/2000/svg" width="15.078" height="19.823" viewBox="0 0 15.078 19.823"><defs><style>.a{fill:#8c939c;}</style></defs><g transform="translate(-41.895)"><path class="a" d="M108.526,9.695c2.2,0,3.991-2.17,3.991-4.847S111.93,0,108.526,0s-3.991,2.17-3.991,4.847S106.322,9.695,108.526,9.695Z" transform="translate(-59.092)"/><path class="a" d="M41.9,300.456c0-.163,0-.046,0,0Z" transform="translate(0 -283.359)"/><path class="a" d="M308.085,301.634c0-.045,0-.31,0,0Z" transform="translate(-251.113 -284.411)"/><path class="a" d="M56.975,184.574c-.074-4.664-.683-5.993-5.344-6.834a3.274,3.274,0,0,1-4.371,0c-4.61.832-5.256,2.141-5.341,6.682-.007.371-.01.39-.011.347,0,.081,0,.23,0,.49,0,0,1.11,2.237,7.537,2.237s7.537-2.237,7.537-2.237c0-.167,0-.283,0-.362A3,3,0,0,1,56.975,184.574Z" transform="translate(-0.012 -167.673)"/></g></svg>