<svg xmlns="http://www.w3.org/2000/svg" xmlns:xlink="http://www.w3.org/1999/xlink" width="52" height="52" viewBox="0 0 52 52">
  <defs>
    <filter id="Ellipse_338" x="0" y="0" width="52" height="52" filterUnits="userSpaceOnUse">
      <feOffset dy="3" input="SourceAlpha"/>
      <feGaussianBlur stdDeviation="3" result="blur"/>
      <feFlood flood-color="#d8dadb"/>
      <feComposite operator="in" in2="blur"/>
      <feComposite in="SourceGraphic"/>
    </filter>
  </defs>
  <g id="Marital_Status-icon" data-name="Marital Status-icon" transform="translate(21.587 14.675)">
    <g transform="matrix(1, 0, 0, 1, -21.59, -14.67)" filter="url(#Ellipse_338)">
      <g id="Ellipse_338-2" data-name="Ellipse 338" transform="translate(10 7)" fill="#fff" stroke="#f26a6b" stroke-width="1">
        <circle cx="16" cy="16" r="16" stroke="none"/>
        <circle cx="16" cy="16" r="16.5" fill="none"/>
      </g>
    </g>
    <g id="wedding-rings" transform="translate(-3.587 -25.786)">
      <path id="Path_9300" data-name="Path 9300" d="M5.669,39.767a4.347,4.347,0,1,1,3.56-1.525,3.341,3.341,0,0,0,1.572.528,5.918,5.918,0,0,0-.15-6.892A5.941,5.941,0,0,0,8.284,30a5.844,5.844,0,0,0-1.616-.445c1.127-.829,1.557-1.524,1.557-2.131a1.317,1.317,0,0,0-2.308-.867,1.317,1.317,0,0,0-2.308.867c0,.606.431,1.3,1.558,2.131A5.918,5.918,0,1,0,7.242,41.2a6.951,6.951,0,0,1-1.573-1.43Z" fill="#f26a6b"/>
      <path id="Path_9301" data-name="Path 9301" d="M160.735,128.715a5.929,5.929,0,0,0-1.325.149,6.953,6.953,0,0,1,1.573,1.43,4.347,4.347,0,1,1-3.56,1.525,3.341,3.341,0,0,0-1.572-.528,5.918,5.918,0,0,0,.15,6.892,5.941,5.941,0,0,0,2.367,1.875,5.918,5.918,0,1,0,2.367-11.342Z" transform="translate(-149.687 -99.203)" fill="#f26a6b"/>
    </g>
  </g>
</svg>
