<svg xmlns="http://www.w3.org/2000/svg" width="15.989" height="14.357" viewBox="0 0 15.989 14.357"><defs><style>.a{fill:#8c939c;}</style></defs><g transform="translate(0 -26.111)"><path class="a" d="M5.342,38.981A4.1,4.1,0,1,1,8.7,37.544a3.149,3.149,0,0,0,1.482.5,5.577,5.577,0,0,0-.141-6.495A5.6,5.6,0,0,0,7.807,29.78a5.507,5.507,0,0,0-1.523-.42c1.062-.782,1.468-1.437,1.468-2.008a1.241,1.241,0,0,0-2.175-.817,1.241,1.241,0,0,0-2.175.817c0,.571.406,1.226,1.468,2.008A5.577,5.577,0,1,0,6.825,40.328a6.55,6.55,0,0,1-1.483-1.347Z"/><path class="a" d="M160.395,128.715a5.588,5.588,0,0,0-1.249.14,6.552,6.552,0,0,1,1.483,1.347,4.1,4.1,0,1,1-3.355,1.437,3.149,3.149,0,0,0-1.482-.5,5.577,5.577,0,0,0,.141,6.495,5.6,5.6,0,0,0,2.231,1.767,5.577,5.577,0,1,0,2.231-10.688Z" transform="translate(-149.982 -99.399)"/></g></svg>