<svg xmlns="http://www.w3.org/2000/svg" width="14.831" height="18.539" viewBox="0 0 14.831 18.539"><defs><style>.a{fill:#8c939c;}</style></defs><path class="a" d="M6.312,30.583c1.379-.8,2.591-2.2,2.591-2.916a1.556,1.556,0,0,0-2.727-1.024,1.556,1.556,0,0,0-2.727,1.024c0,.716,1.345,2.127,2.712,2.916C6.161,30.583,6.627,30.623,6.312,30.583Z" transform="translate(1.306 -26.111)"/><path class="a" d="M7.415,14.831a7.416,7.416,0,1,1,7.416-7.415A7.423,7.423,0,0,1,7.415,14.831Zm0-13.112a5.7,5.7,0,1,0,5.7,5.7A5.7,5.7,0,0,0,7.415,1.719Z" transform="translate(0 3.708)"/></svg>