<svg xmlns="http://www.w3.org/2000/svg" width="15.548" height="15.549" viewBox="0 0 15.548 15.549"><defs><style>.a{fill:#8c939c;}</style></defs><g transform="translate(-0.025 0)"><path class="a" d="M15,.038,13.354.787a.99.99,0,0,0-.285.2L10.387,3.667,1.154,2.56A.549.549,0,0,0,.7,2.717l-.514.514a.549.549,0,0,0,.164.89L6.967,7.088l-1.9,1.9H1.749a.555.555,0,0,0-.389.16l-.277.279a.549.549,0,0,0,.172.893l2.8,1.2,1.2,2.8a.549.549,0,0,0,.893.172l.279-.279a.548.548,0,0,0,.16-.389V10.5l1.9-1.9,2.967,6.619a.549.549,0,0,0,.89.164l.514-.514a.55.55,0,0,0,.157-.454L11.9,5.186,14.588,2.5a.968.968,0,0,0,.2-.285L15.534.573A.4.4,0,0,0,15,.038Z" transform="translate(0 0)"/></g></svg>