<svg xmlns="http://www.w3.org/2000/svg" width="52" height="52" viewBox="0 0 52 52">
  <g id="message" transform="translate(-76 -665)">
    <g id="Close-icon" transform="translate(1 30)">
      <rect id="Rectangle_1565" data-name="Rectangle 1565" width="52" height="52" rx="16" transform="translate(75 635)" fill="#fff"/>
      <g id="chat-comment-oval-speech-bubble-with-text-lines" transform="translate(87.166 647.761)">
        <g id="_x32__26_">
          <g id="Group_9541" data-name="Group 9541">
            <path id="Path_9347" data-name="Path 9347" d="M19.079,15.445H9.994a.909.909,0,0,0,0,1.817h9.085a.909.909,0,1,0,0-1.817ZM20.9,9.994H8.177a.909.909,0,0,0,0,1.817H20.9a.909.909,0,1,0,0-1.817ZM14.537,0C6.509,0,0,5.695,0,12.72a12.175,12.175,0,0,0,5.451,9.92v6.433l6.368-3.864a16.67,16.67,0,0,0,2.717.23c8.029,0,14.537-5.695,14.537-12.72S22.565,0,14.537,0Zm0,23.622a14.7,14.7,0,0,1-3.071-.333L7.188,25.86l.057-4.214A10.534,10.534,0,0,1,1.817,12.72c0-6.021,5.695-10.9,12.72-10.9s12.72,4.882,12.72,10.9S21.561,23.622,14.537,23.622Z" fill="#F26A6B" stroke="#F26A6B" stroke-width="0.3"/>
          </g>
        </g>
      </g>
    </g>
  </g>
</svg>
