<svg xmlns="http://www.w3.org/2000/svg" width="29.79" height="25.07" viewBox="0 0 29.79 25.07"><defs><style>.a{fill:#fff;}</style></defs><g transform="translate(0 -13.348)"><path class="a" d="M17.977,10.651A5.413,5.413,0,0,1,20.5,14.672a4.367,4.367,0,1,0-2.519-4.021ZM15.115,19.6a4.369,4.369,0,1,0-4.37-4.369A4.369,4.369,0,0,0,15.115,19.6Zm1.853.3H13.261a5.6,5.6,0,0,0-5.594,5.594v4.534l.012.071.312.1A25.464,25.464,0,0,0,15.6,31.418a15.615,15.615,0,0,0,6.641-1.247l.292-.148h.031V25.489A5.6,5.6,0,0,0,16.968,19.894Zm7.228-4.51H20.518a5.384,5.384,0,0,1-1.662,3.75A6.647,6.647,0,0,1,23.6,25.5v1.4a15.054,15.054,0,0,0,5.863-1.232l.292-.148h.031V20.978A5.6,5.6,0,0,0,24.2,15.384Zm-16.748-.3a4.34,4.34,0,0,0,2.324-.674A5.407,5.407,0,0,1,11.8,10.964c0-.082.012-.163.012-.245a4.369,4.369,0,1,0-4.368,4.368Zm3.924,4.048A5.388,5.388,0,0,1,9.711,15.4c-.136-.01-.271-.021-.41-.021H5.594A5.6,5.6,0,0,0,0,20.978v4.535l.012.07.312.1a26.228,26.228,0,0,0,6.3,1.184V25.5A6.649,6.649,0,0,1,11.372,19.134Z" transform="translate(0 7)"/></g></svg>