<svg xmlns="http://www.w3.org/2000/svg" width="13.972" height="18.629" viewBox="0 0 13.972 18.629"><defs><style>.a{fill:#fff;}</style></defs><path class="a" d="M77.584,6.986H76.42V5.434a5.434,5.434,0,0,0-10.867,0V6.986H64.388A.388.388,0,0,0,64,7.374v9.7a1.554,1.554,0,0,0,1.552,1.552H76.42a1.554,1.554,0,0,0,1.552-1.552v-9.7A.388.388,0,0,0,77.584,6.986Zm-5.436,8.108a.388.388,0,0,1-.386.431H70.21a.388.388,0,0,1-.386-.431l.245-2.2a1.536,1.536,0,0,1-.635-1.248,1.552,1.552,0,0,1,3.1,0,1.536,1.536,0,0,1-.635,1.248Zm1.943-8.108h-6.21V5.434a3.1,3.1,0,0,1,6.21,0Z" transform="translate(-64)"/></svg>