<svg xmlns="http://www.w3.org/2000/svg" width="15.075" height="20.099" viewBox="0 0 15.075 20.099"><defs><style>.a{fill:#c2c8cf;}</style></defs><path class="a" d="M78.656,7.537H77.4V5.862a5.862,5.862,0,0,0-11.725,0V7.537H64.419A.419.419,0,0,0,64,7.956V18.425A1.677,1.677,0,0,0,65.675,20.1H77.4a1.677,1.677,0,0,0,1.675-1.675V7.956A.419.419,0,0,0,78.656,7.537Zm-5.865,8.747a.419.419,0,0,1-.416.465H70.7a.419.419,0,0,1-.416-.465l.264-2.375a1.657,1.657,0,0,1-.685-1.347,1.675,1.675,0,0,1,3.35,0,1.657,1.657,0,0,1-.685,1.347Zm2.1-8.747h-6.7V5.862a3.35,3.35,0,0,1,6.7,0Z" transform="translate(-64)"/></svg>