<svg xmlns="http://www.w3.org/2000/svg" width="16.397" height="16.397" viewBox="0 0 16.397 16.397">
  <g id="Group_9528" data-name="Group 9528" transform="translate(0 0)">
    <g id="Group_9527" data-name="Group 9527" transform="translate(0 0)">
      <path id="Path_9318" data-name="Path 9318" d="M12.153,81.309a.383.383,0,0,0-.527,0L4.538,88.4a.373.373,0,0,0,.1.6l.582.291v.98l-1.783.51-1.8-1.8.51-1.784h.979l.291.582a.373.373,0,0,0,.274.2.373.373,0,0,0,.323-.1L11.1,80.781a.373.373,0,0,0,0-.527L9.729,78.882a.372.372,0,0,0-.263-.109h0a.373.373,0,0,0-.264.11L1.6,86.561s0,.009-.007.013a.365.365,0,0,0-.087.147L.857,88.987.014,91.943a.373.373,0,0,0,.358.475.379.379,0,0,0,.1-.014l2.953-.844,2.264-.648c.007,0,.011-.007.018-.009a.688.688,0,0,0,.126-.074s.011-.006.016-.01l7.671-7.609a.373.373,0,0,0,0-.528Z" transform="translate(0 -76.021)" fill="#f26a6b"/>
      <path id="Path_9319" data-name="Path 9319" d="M296.122,2.663,293.886.425a1.524,1.524,0,0,0-2.109,0L290.412,1.8a.373.373,0,0,0,0,.526l3.8,3.808a.372.372,0,0,0,.526,0l1.379-1.367a1.492,1.492,0,0,0,0-2.11Z" transform="translate(-280.162 -0.002)" fill="#f26a6b"/>
    </g>
  </g>
</svg>
