<svg xmlns="http://www.w3.org/2000/svg" xmlns:xlink="http://www.w3.org/1999/xlink" width="52" height="52" viewBox="0 0 52 52">
  <defs>
    <filter id="Ellipse_339" x="0" y="0" width="52" height="52" filterUnits="userSpaceOnUse">
      <feOffset dy="3" input="SourceAlpha"/>
      <feGaussianBlur stdDeviation="3" result="blur"/>
      <feFlood flood-color="#d8dadb"/>
      <feComposite operator="in" in2="blur"/>
      <feComposite in="SourceGraphic"/>
    </filter>
  </defs>
  <g id="phone-OTP-icon" transform="translate(17 14)">
    <g transform="matrix(1, 0, 0, 1, -17, -14)" filter="url(#Ellipse_339)">
      <g id="Ellipse_339-2" data-name="Ellipse 339" transform="translate(10 7)" fill="#fff" stroke="#fb5e60" stroke-width="1">
        <circle cx="16" cy="16" r="16" stroke="none"/>
        <circle cx="16" cy="16" r="16.5" fill="none"/>
      </g>
    </g>
    <g id="mobile" transform="translate(-1.951)">
      <path id="Path_10642" data-name="Path 10642" d="M15.075,0H7.3A1.346,1.346,0,0,0,5.951,1.347v15.8A1.345,1.345,0,0,0,7.3,18.487h7.778a1.346,1.346,0,0,0,1.345-1.345V1.347A1.346,1.346,0,0,0,15.075,0ZM9.266.818h3.84c.1,0,.176.145.176.324s-.079.325-.176.325H9.266c-.1,0-.175-.146-.175-.325S9.168.818,9.266.818Zm1.92,16.34a.859.859,0,1,1,.858-.86.859.859,0,0,1-.858.86Zm4.226-2.943H6.959V2.272h8.453V14.215Z" fill="#fb5e60"/>
    </g>
    <g id="Rectangle_1613" data-name="Rectangle 1613" transform="translate(2 6)" fill="#fb5e60" stroke="#fff" stroke-width="1">
      <rect width="15" height="6" rx="1" stroke="none"/>
      <rect x="-0.5" y="-0.5" width="16" height="7" rx="1.5" fill="none"/>
    </g>
    <path id="Path_10643" data-name="Path 10643" d="M-4.214-3.241l.084-1.076L-5-3.7l-.246-.429.978-.429-.971-.422.232-.415.886.612-.1-1.076h.478l-.105,1.076.879-.612.225.408-.971.436.978.429-.232.415-.879-.6.1,1.076Zm3.362,0,.084-1.076L-1.64-3.7l-.246-.429.978-.429-.971-.422.232-.415.886.612-.1-1.076h.478l-.1,1.071L.393-5.4l.225.408-.971.436.978.429-.232.415-.879-.6.1,1.076Zm3.362,0,.084-1.076L1.722-3.7l-.246-.429.978-.429L1.483-4.98l.232-.42.886.612L2.5-5.864h.478l-.1,1.076.88-.612.225.408-.971.436.978.429-.232.415-.879-.6.1,1.076Z" transform="translate(10.27 13.361)" fill="#fff"/>
  </g>
</svg>
