<svg xmlns="http://www.w3.org/2000/svg" width="23.001" height="20.999" viewBox="0 0 23.001 20.999">
  <g id="pray-icon" transform="translate(2 1.003)">
    <g id="pray" transform="translate(-2 -22.458)">
      <path id="Path_10712" data-name="Path 10712" d="M23,36.627a.671.671,0,0,0-.26-.476L18.587,32.96a.676.676,0,0,0-.892.061l-.346.351-1-.808-1.182-9.23v-.01A2.18,2.18,0,0,0,11.5,22.062a2.18,2.18,0,0,0-3.663,1.262v.01l-1.182,9.23-1,.808-.346-.351a.675.675,0,0,0-.892-.061L.262,36.151a.67.67,0,0,0-.082.989l4.76,5.1a.675.675,0,0,0,.483.214h.011a.675.675,0,0,0,.479-.2l3.8-3.831a.67.67,0,0,0,0-.943l-.22-.222,2-2,2,2-.22.222a.67.67,0,0,0,0,.943l3.8,3.831a.675.675,0,0,0,.479.2h.011a.675.675,0,0,0,.483-.214l4.76-5.1A.67.67,0,0,0,23,36.627ZM5.449,40.816,1.67,36.765l3.1-2.379,3.52,3.568ZM10.6,34.264,8.552,36.305,6.6,34.333l1.109-.9A.671.671,0,0,0,7.957,33l1.215-9.492a.832.832,0,0,1,1.654.121V33.72a.762.762,0,0,1-.226.543Zm1.8,0a.763.763,0,0,1-.226-.544V23.63a.832.832,0,0,1,1.654-.121L15.043,33a.671.671,0,0,0,.244.437l1.109.9-1.948,1.973Zm5.151,6.553L14.71,37.954l3.524-3.568,3.1,2.379Z" fill="#8c939c"/>
    </g>
  </g>
</svg>
