<svg xmlns="http://www.w3.org/2000/svg" width="11.043" height="9.203" viewBox="0 0 11.043 9.203"><defs><style>.a{fill:#8c939c;}</style></defs><path class="a" d="M11.221,4.071a.46.46,0,0,1-.46-.46V2.92H8.92v.69a.46.46,0,0,1-.92,0V2.92A.921.921,0,0,1,8.92,2h1.841a.921.921,0,0,1,.92.92v.69A.46.46,0,0,1,11.221,4.071Z" transform="translate(-4.319 -2)"/><path class="a" d="M5.848,13.35a.948.948,0,0,1-.327.055,1.008,1.008,0,0,1-.354-.064L0,11.62v3.511A1.265,1.265,0,0,0,1.265,16.4H9.778a1.265,1.265,0,0,0,1.265-1.265V11.62Z" transform="translate(0 -7.193)"/><path class="a" d="M11.043,6.265V7.319l-5.411,1.8a.341.341,0,0,1-.221,0L0,7.319V6.265A1.265,1.265,0,0,1,1.265,5H9.778A1.265,1.265,0,0,1,11.043,6.265Z" transform="translate(0 -3.62)"/></svg>