<svg xmlns="http://www.w3.org/2000/svg" xmlns:xlink="http://www.w3.org/1999/xlink" width="52" height="52" viewBox="0 0 52 52">
  <defs>
    <filter id="Ellipse_337" x="0" y="0" width="52" height="52" filterUnits="userSpaceOnUse">
      <feOffset dy="3" input="SourceAlpha"/>
      <feGaussianBlur stdDeviation="3" result="blur"/>
      <feFlood flood-color="#d8dadb"/>
      <feComposite operator="in" in2="blur"/>
      <feComposite in="SourceGraphic"/>
    </filter>
  </defs>
  <g id="man-user" transform="translate(10 7)">
    <g id="Component_19_1" data-name="Component 19 – 1">
      <g transform="matrix(1, 0, 0, 1, -10, -7)" filter="url(#Ellipse_337)">
        <g id="Ellipse_337-2" data-name="Ellipse 337" transform="translate(10 7)" fill="#fff" stroke="#f26a6b" stroke-width="1">
          <circle cx="16" cy="16" r="16" stroke="none"/>
          <circle cx="16" cy="16" r="16.5" fill="none"/>
        </g>
      </g>
    </g>
    <path id="Path_9292" data-name="Path 9292" d="M108.066,8.579c1.95,0,3.531-1.92,3.531-4.289S111.079,0,108.066,0s-3.531,1.92-3.531,4.289S106.116,8.579,108.066,8.579Z" transform="translate(-92.396 7)" fill="none" stroke="#f26a6b" stroke-width="1.5"/>
    <path id="Path_9293" data-name="Path 9293" d="M41.9,300.446c0-.144,0-.041,0,0Z" transform="translate(-32.896 -278.318)" fill="none" stroke="#f26a6b" stroke-width="1.5"/>
    <path id="Path_9294" data-name="Path 9294" d="M308.085,301.617c0-.04,0-.274,0,0Z" transform="translate(-285.745 -279.377)" fill="none" stroke="#f26a6b" stroke-width="1.5"/>
    <path id="Path_9295" data-name="Path 9295" d="M55.24,183.787c-.065-4.127-.6-5.3-4.729-6.047a2.9,2.9,0,0,1-3.868,0c-4.079.736-4.651,1.895-4.726,5.913-.006.328-.009.345-.01.307,0,.071,0,.2,0,.434,0,0,.982,1.979,6.67,1.979s6.67-1.979,6.67-1.979c0-.148,0-.251,0-.321A2.656,2.656,0,0,1,55.24,183.787Z" transform="translate(-32.908 -161.832)" fill="none" stroke="#f26a6b" stroke-width="1.5"/>
  </g>
</svg>
