<svg xmlns="http://www.w3.org/2000/svg" width="17.089" height="14.24" viewBox="0 0 17.089 14.24"><defs><style>.a{fill:#8c939c;}</style></defs><path class="a" d="M12.984,5.2a.712.712,0,0,1-.712-.712V3.424H9.424V4.492A.712.712,0,0,1,8,4.492V3.424A1.425,1.425,0,0,1,9.424,2h2.848A1.425,1.425,0,0,1,13.7,3.424V4.492A.712.712,0,0,1,12.984,5.2Z" transform="translate(-2.304 -2)"/><path class="a" d="M9.05,14.3a1.467,1.467,0,0,1-.506.085,1.56,1.56,0,0,1-.548-.1L0,11.62v5.433a1.957,1.957,0,0,0,1.958,1.958H15.131a1.957,1.957,0,0,0,1.958-1.958V11.62Z" transform="translate(0 -4.77)"/><path class="a" d="M17.089,6.958V8.589L8.715,11.38a.527.527,0,0,1-.342,0L0,8.589V6.958A1.957,1.957,0,0,1,1.958,5H15.131A1.957,1.957,0,0,1,17.089,6.958Z" transform="translate(0 -2.864)"/></svg>