<svg xmlns="http://www.w3.org/2000/svg" xmlns:xlink="http://www.w3.org/1999/xlink" width="52" height="52" viewBox="0 0 52 52">
  <defs>
    <filter id="Ellipse_339" x="0" y="0" width="52" height="52" filterUnits="userSpaceOnUse">
      <feOffset dy="3" input="SourceAlpha"/>
      <feGaussianBlur stdDeviation="3" result="blur"/>
      <feFlood flood-color="#d8dadb"/>
      <feComposite operator="in" in2="blur"/>
      <feComposite in="SourceGraphic"/>
    </filter>
  </defs>
  <g id="question" transform="translate(15.496 13.623)">
    <g transform="matrix(1, 0, 0, 1, -15.5, -13.62)" filter="url(#Ellipse_339)">
      <g id="Ellipse_339-2" data-name="Ellipse 339" transform="translate(10 7)" fill="#fff" stroke="#f26a6b" stroke-width="1">
        <circle cx="16" cy="16" r="16" stroke="none"/>
        <circle cx="16" cy="16" r="16.5" fill="none"/>
      </g>
    </g>
    <path id="Path_9342" data-name="Path 9342" d="M93.839,242.306a.568.568,0,0,0-1.015,0l-2.271,4.541a.568.568,0,0,0,1.015.508l.411-.822h2.7l.411.822a.568.568,0,0,0,1.015-.508ZM92.546,245.4l.784-1.569.785,1.569Zm0,0" transform="translate(-86.587 -232.834)" fill="#f26a6b"/>
    <path id="Path_9343" data-name="Path 9343" d="M306.716,64.6l-.835-.417a1.694,1.694,0,0,0,.013-.21V61.7a1.7,1.7,0,1,0-3.406,0V63.97a1.7,1.7,0,0,0,2.884,1.225l.836.418a.568.568,0,1,0,.508-1.015Zm-2.524-.06a.568.568,0,0,1-.568-.568V61.7a.568.568,0,0,1,1.135,0V63.97A.568.568,0,0,1,304.191,64.537Zm0,0" transform="translate(-290.559 -57.725)" fill="#f26a6b"/>
    <path id="Path_9344" data-name="Path 9344" d="M18.6,9.27A5.677,5.677,0,1,0,8.653,6.888H1.068A.568.568,0,0,0,.5,7.455v9.083a.568.568,0,0,0,.568.568h1.7v1.7a.568.568,0,0,0,.883.472l3.263-2.175h5.5a.568.568,0,0,0,.568-.568V11.223a5.675,5.675,0,0,0,1.211.13h5.109a.568.568,0,0,0,.4-.969Zm-6.742,6.7H6.744a.566.566,0,0,0-.315.1L3.906,17.748v-1.21a.568.568,0,0,0-.568-.568h-1.7V8.023h7.4a5.712,5.712,0,0,0,2.822,2.822ZM14.2,10.218a4.541,4.541,0,1,1,3.211-1.33.567.567,0,0,0,0,.8l.527.527Zm0,0" fill="#f26a6b"/>
  </g>
</svg>
