<svg xmlns="http://www.w3.org/2000/svg" width="20.067" height="22.786" viewBox="0 0 20.067 22.786">
  <g id="Recommended_icon" data-name="Recommended=icon" transform="translate(-30.556 0)">
    <g id="Group_9470" data-name="Group 9470" transform="translate(45.272 4.013)">
      <g id="Group_9469" data-name="Group 9469">
        <path id="Path_9249" data-name="Path 9249" d="M363.214,90.17h-1.338a.669.669,0,1,0,0,1.338h1.338a.669.669,0,0,0,0-1.338Z" transform="translate(-361.207 -90.17)" fill="#f26a6b"/>
      </g>
    </g>
    <g id="Group_9472" data-name="Group 9472" transform="translate(38.582 0)">
      <g id="Group_9471" data-name="Group 9471" transform="translate(0 0)">
        <path id="Path_9250" data-name="Path 9250" d="M212.843,1.707,212.174.369a.669.669,0,1,0-1.2.6l.669,1.338a.669.669,0,1,0,1.2-.6Z" transform="translate(-210.907 0)" fill="#f26a6b"/>
      </g>
    </g>
    <g id="Group_9474" data-name="Group 9474" transform="translate(43.265 0)">
      <g id="Group_9473" data-name="Group 9473" transform="translate(0 0)">
        <path id="Path_9251" data-name="Path 9251" d="M317.75.07a.67.67,0,0,0-.9.3l-.669,1.338a.669.669,0,0,0,1.2.6l.669-1.338A.669.669,0,0,0,317.75.07Z" transform="translate(-316.112 0)" fill="#f26a6b"/>
      </g>
    </g>
    <g id="Group_9476" data-name="Group 9476" transform="translate(35.907 4.013)">
      <g id="Group_9475" data-name="Group 9475" transform="translate(0)">
        <path id="Path_9252" data-name="Path 9252" d="M152.8,90.17h-1.338a.669.669,0,1,0,0,1.338H152.8a.669.669,0,1,0,0-1.338Z" transform="translate(-150.793 -90.17)" fill="#f26a6b"/>
      </g>
    </g>
    <g id="Group_9478" data-name="Group 9478" transform="translate(30.556 10.746)">
      <g id="Group_9477" data-name="Group 9477" transform="translate(0)">
        <path id="Path_9253" data-name="Path 9253" d="M33.9,241.468H31.225a.669.669,0,0,0-.669.669v10.7a.669.669,0,0,0,.669.669H33.9a.669.669,0,0,0,.669-.669v-10.7A.669.669,0,0,0,33.9,241.468Z" transform="translate(-30.556 -241.468)" fill="#f26a6b"/>
      </g>
    </g>
    <g id="Group_9480" data-name="Group 9480" transform="translate(35.907 4.058)">
      <g id="Group_9479" data-name="Group 9479" transform="translate(0)">
        <path id="Path_9254" data-name="Path 9254" d="M165.5,99.634a2.1,2.1,0,0,0-2.132-1.773H158.15a11.549,11.549,0,0,0,.671-3.955,2.785,2.785,0,0,0-2.792-2.734h-.552a.669.669,0,0,0-.669.669c0,1.547-.6,4.339-1.738,5.475a7.409,7.409,0,0,1-2.275,1.47v10.037a15.625,15.625,0,0,0,5.517,1.079h4.376a2.034,2.034,0,0,0,2.006-2.746,2.007,2.007,0,0,0,1.338-2.676,2.008,2.008,0,0,0,.967-3.274A2,2,0,0,0,165.5,99.634Z" transform="translate(-150.794 -91.172)" fill="#f26a6b"/>
      </g>
    </g>
  </g>
</svg>
