<svg xmlns="http://www.w3.org/2000/svg" width="16.962" height="16.963" viewBox="0 0 16.962 16.963">
  <g id="search-1" transform="translate(-4.277 -4.276)">
    <path id="Path_9246" data-name="Path 9246" d="M11.329,1.941a6.638,6.638,0,1,0-.908,10.139,1.4,1.4,0,0,0,.379.7l3.769,3.769a1.4,1.4,0,0,0,1.983-1.983L12.783,10.8a1.4,1.4,0,0,0-.7-.378A6.644,6.644,0,0,0,11.329,1.941Zm-1.19,8.2a4.955,4.955,0,1,1,0-7.008A4.961,4.961,0,0,1,10.139,10.139Z" transform="translate(4.276 4.276)" fill="#f26a6b"/>
  </g>
</svg>
