<svg xmlns="http://www.w3.org/2000/svg" width="20.197" height="20.198" viewBox="0 0 20.197 20.198">
  <g id="Serious-icon" transform="translate(-0.004)">
    <g id="Group_9482" data-name="Group 9482" transform="translate(0.004 13.465)">
      <g id="Group_9481" data-name="Group 9481">
        <path id="Path_9255" data-name="Path 9255" d="M20.189,347.546l-.654-2.615a2.1,2.1,0,0,0-1.1-1.372l-4.357-2.178a.425.425,0,0,0-.333-.018.42.42,0,0,0-.242.23l-2.167,5.057-.319-.637a3.584,3.584,0,0,0,.77-1.73c0-.778-.645-1.262-1.683-1.262s-1.683.484-1.683,1.262a3.584,3.584,0,0,0,.769,1.729l-.319.637L6.7,341.592a.42.42,0,0,0-.242-.23.429.429,0,0,0-.333.018l-4.356,2.179a2.106,2.106,0,0,0-1.1,1.372l-.654,2.615a.421.421,0,0,0,.408.523H19.781a.42.42,0,0,0,.408-.523Z" transform="translate(-0.004 -341.337)" fill="#f26a6b"/>
      </g>
    </g>
    <g id="Group_9484" data-name="Group 9484" transform="translate(4.212 6.641)">
      <g id="Group_9483" data-name="Group 9483">
        <path id="Path_9256" data-name="Path 9256" d="M118.284,168.627a.42.42,0,1,0-.8.266,2.552,2.552,0,0,1,.12.8c0,.814-.3,1.262-.448,1.243a.42.42,0,0,0-.63.256c-.589,2.376-2.185,3.971-3.971,3.971s-3.382-1.6-3.971-3.971a.426.426,0,0,0-.263-.279.45.45,0,0,0-.394.042c-.105,0-.421-.448-.421-1.262a2.551,2.551,0,0,1,.12-.8.421.421,0,0,0-.8-.266,3.408,3.408,0,0,0-.163,1.066c0,1.172.518,2.063,1.213,2.1.764,2.534,2.606,4.209,4.678,4.209s3.914-1.675,4.678-4.209c.694-.04,1.213-.931,1.213-2.1A3.383,3.383,0,0,0,118.284,168.627Z" transform="translate(-106.666 -168.339)" fill="#f26a6b"/>
      </g>
    </g>
    <g id="Group_9486" data-name="Group 9486" transform="translate(4.212)">
      <g id="Group_9485" data-name="Group 9485">
        <path id="Path_9257" data-name="Path 9257" d="M112.558,0a5.9,5.9,0,0,0-5.891,5.891,5.773,5.773,0,0,0,.151,1.262.421.421,0,0,0,.411.331,8.528,8.528,0,0,1,1.058.087.4.4,0,0,0,.072,0,.425.425,0,0,0,.429-.421.433.433,0,0,0-.025-.145,6.1,6.1,0,0,1,.119-1.959h.064c1.455,0,2.181-.462,2.515-1.045a7.683,7.683,0,0,0,4.5,1.873,6.2,6.2,0,0,0,.426,1.446.418.418,0,0,0,.384.251h.035l1.121-.092a.422.422,0,0,0,.377-.329,5.818,5.818,0,0,0,.151-1.262A5.9,5.9,0,0,0,112.558,0Z" transform="translate(-106.667)" fill="#f26a6b"/>
      </g>
    </g>
    <g id="Group_9488" data-name="Group 9488" transform="translate(7.578 7.574)">
      <g id="Group_9487" data-name="Group 9487">
        <path id="Path_9258" data-name="Path 9258" d="M193.262,192h-.842a.421.421,0,0,0,0,.842h.842a.421.421,0,1,0,0-.842Z" transform="translate(-192 -192)" fill="#f26a6b"/>
      </g>
    </g>
    <g id="Group_9490" data-name="Group 9490" transform="translate(10.944 7.574)">
      <g id="Group_9489" data-name="Group 9489">
        <path id="Path_9259" data-name="Path 9259" d="M278.6,192h-.842a.421.421,0,0,0,0,.842h.842a.421.421,0,1,0,0-.842Z" transform="translate(-277.333 -192)" fill="#f26a6b"/>
      </g>
    </g>
  </g>
</svg>
