<svg xmlns="http://www.w3.org/2000/svg" width="20.636" height="20.637" viewBox="0 0 20.636 20.637"><defs><style>.a{fill:#8c939c;}</style></defs><path class="a" d="M20,8.078l-1.616-.205A8.121,8.121,0,0,0,17.9,6.691l1-1.286a1.278,1.278,0,0,0-.1-1.7L17.438,2.349a1.281,1.281,0,0,0-1.707-.109l-1.284,1a8.1,8.1,0,0,0-1.182-.489l-.205-1.614A1.288,1.288,0,0,0,11.781,0H9.855A1.288,1.288,0,0,0,8.578,1.133L8.372,2.749a8,8,0,0,0-1.182.489l-1.285-1a1.279,1.279,0,0,0-1.7.1L2.849,3.7A1.282,1.282,0,0,0,2.74,5.406l1,1.285a8.017,8.017,0,0,0-.489,1.181l-1.614.205A1.288,1.288,0,0,0,.5,9.355v1.926a1.288,1.288,0,0,0,1.133,1.278l1.616.205a8.121,8.121,0,0,0,.489,1.181l-1,1.286a1.278,1.278,0,0,0,.1,1.7L4.2,18.288a1.283,1.283,0,0,0,1.707.108l1.285-1a7.933,7.933,0,0,0,1.181.489L8.578,19.5a1.288,1.288,0,0,0,1.278,1.137h1.926A1.288,1.288,0,0,0,13.059,19.5l.205-1.616a8.121,8.121,0,0,0,1.181-.489l1.286,1a1.278,1.278,0,0,0,1.7-.1l1.354-1.354a1.281,1.281,0,0,0,.109-1.707l-1-1.285a7.932,7.932,0,0,0,.489-1.181L20,12.559a1.288,1.288,0,0,0,1.135-1.278V9.355A1.286,1.286,0,0,0,20,8.078Zm-9.186,6.54a4.3,4.3,0,1,1,4.3-4.3A4.3,4.3,0,0,1,10.818,14.618Zm0,0" transform="translate(-0.5)"/></svg>